%TF.GenerationSoftware,KiCad,Pcbnew,5.1.9-73d0e3b20d~88~ubuntu18.04.1*%
%TF.CreationDate,2021-01-26T17:19:55+01:00*%
%TF.ProjectId,d1ce,64316365-2e6b-4696-9361-645f70636258,v1*%
%TF.SameCoordinates,Original*%
%TF.FileFunction,Legend,Bot*%
%TF.FilePolarity,Positive*%
%FSLAX46Y46*%
G04 Gerber Fmt 4.6, Leading zero omitted, Abs format (unit mm)*
G04 Created by KiCad (PCBNEW 5.1.9-73d0e3b20d~88~ubuntu18.04.1) date 2021-01-26 17:19:55*
%MOMM*%
%LPD*%
G01*
G04 APERTURE LIST*
%ADD10C,0.100000*%
%ADD11C,0.150000*%
%ADD12C,0.200000*%
G04 APERTURE END LIST*
D10*
X148986428Y-144895000D02*
X148629285Y-144895000D01*
X149057857Y-145109285D02*
X148807857Y-144359285D01*
X148557857Y-145109285D01*
X147736428Y-145109285D02*
X147736428Y-144359285D01*
X147736428Y-144645000D02*
X147665000Y-144609285D01*
X147522142Y-144609285D01*
X147450714Y-144645000D01*
X147415000Y-144680714D01*
X147379285Y-144752142D01*
X147379285Y-144966428D01*
X147415000Y-145037857D01*
X147450714Y-145073571D01*
X147522142Y-145109285D01*
X147665000Y-145109285D01*
X147736428Y-145073571D01*
X146950714Y-145109285D02*
X147022142Y-145073571D01*
X147057857Y-145037857D01*
X147093571Y-144966428D01*
X147093571Y-144752142D01*
X147057857Y-144680714D01*
X147022142Y-144645000D01*
X146950714Y-144609285D01*
X146843571Y-144609285D01*
X146772142Y-144645000D01*
X146736428Y-144680714D01*
X146700714Y-144752142D01*
X146700714Y-144966428D01*
X146736428Y-145037857D01*
X146772142Y-145073571D01*
X146843571Y-145109285D01*
X146950714Y-145109285D01*
X146057857Y-145109285D02*
X146057857Y-144716428D01*
X146093571Y-144645000D01*
X146165000Y-144609285D01*
X146307857Y-144609285D01*
X146379285Y-144645000D01*
X146057857Y-145073571D02*
X146129285Y-145109285D01*
X146307857Y-145109285D01*
X146379285Y-145073571D01*
X146415000Y-145002142D01*
X146415000Y-144930714D01*
X146379285Y-144859285D01*
X146307857Y-144823571D01*
X146129285Y-144823571D01*
X146057857Y-144787857D01*
X145700714Y-145109285D02*
X145700714Y-144609285D01*
X145700714Y-144752142D02*
X145665000Y-144680714D01*
X145629285Y-144645000D01*
X145557857Y-144609285D01*
X145486428Y-144609285D01*
X144915000Y-145109285D02*
X144915000Y-144359285D01*
X144915000Y-145073571D02*
X144986428Y-145109285D01*
X145129285Y-145109285D01*
X145200714Y-145073571D01*
X145236428Y-145037857D01*
X145272142Y-144966428D01*
X145272142Y-144752142D01*
X145236428Y-144680714D01*
X145200714Y-144645000D01*
X145129285Y-144609285D01*
X144986428Y-144609285D01*
X144915000Y-144645000D01*
X144093571Y-144609285D02*
X143807857Y-144609285D01*
X143986428Y-145109285D02*
X143986428Y-144466428D01*
X143950714Y-144395000D01*
X143879285Y-144359285D01*
X143807857Y-144359285D01*
X143557857Y-145109285D02*
X143557857Y-144609285D01*
X143557857Y-144752142D02*
X143522142Y-144680714D01*
X143486428Y-144645000D01*
X143415000Y-144609285D01*
X143343571Y-144609285D01*
X142986428Y-145109285D02*
X143057857Y-145073571D01*
X143093571Y-145037857D01*
X143129285Y-144966428D01*
X143129285Y-144752142D01*
X143093571Y-144680714D01*
X143057857Y-144645000D01*
X142986428Y-144609285D01*
X142879285Y-144609285D01*
X142807857Y-144645000D01*
X142772142Y-144680714D01*
X142736428Y-144752142D01*
X142736428Y-144966428D01*
X142772142Y-145037857D01*
X142807857Y-145073571D01*
X142879285Y-145109285D01*
X142986428Y-145109285D01*
X142415000Y-145109285D02*
X142415000Y-144609285D01*
X142415000Y-144680714D02*
X142379285Y-144645000D01*
X142307857Y-144609285D01*
X142200714Y-144609285D01*
X142129285Y-144645000D01*
X142093571Y-144716428D01*
X142093571Y-145109285D01*
X142093571Y-144716428D02*
X142057857Y-144645000D01*
X141986428Y-144609285D01*
X141879285Y-144609285D01*
X141807857Y-144645000D01*
X141772142Y-144716428D01*
X141772142Y-145109285D01*
X140950714Y-144359285D02*
X140522142Y-144359285D01*
X140736428Y-145109285D02*
X140736428Y-144359285D01*
X140272142Y-145109285D02*
X140272142Y-144359285D01*
X139950714Y-145109285D02*
X139950714Y-144716428D01*
X139986428Y-144645000D01*
X140057857Y-144609285D01*
X140165000Y-144609285D01*
X140236428Y-144645000D01*
X140272142Y-144680714D01*
X139307857Y-145073571D02*
X139379285Y-145109285D01*
X139522142Y-145109285D01*
X139593571Y-145073571D01*
X139629285Y-145002142D01*
X139629285Y-144716428D01*
X139593571Y-144645000D01*
X139522142Y-144609285D01*
X139379285Y-144609285D01*
X139307857Y-144645000D01*
X139272142Y-144716428D01*
X139272142Y-144787857D01*
X139629285Y-144859285D01*
X138379285Y-145109285D02*
X138379285Y-144359285D01*
X138057857Y-145073571D02*
X137986428Y-145109285D01*
X137843571Y-145109285D01*
X137772142Y-145073571D01*
X137736428Y-145002142D01*
X137736428Y-144966428D01*
X137772142Y-144895000D01*
X137843571Y-144859285D01*
X137950714Y-144859285D01*
X138022142Y-144823571D01*
X138057857Y-144752142D01*
X138057857Y-144716428D01*
X138022142Y-144645000D01*
X137950714Y-144609285D01*
X137843571Y-144609285D01*
X137772142Y-144645000D01*
X137307857Y-145109285D02*
X137379285Y-145073571D01*
X137415000Y-145037857D01*
X137450714Y-144966428D01*
X137450714Y-144752142D01*
X137415000Y-144680714D01*
X137379285Y-144645000D01*
X137307857Y-144609285D01*
X137200714Y-144609285D01*
X137129285Y-144645000D01*
X137093571Y-144680714D01*
X137057857Y-144752142D01*
X137057857Y-144966428D01*
X137093571Y-145037857D01*
X137129285Y-145073571D01*
X137200714Y-145109285D01*
X137307857Y-145109285D01*
X136629285Y-145109285D02*
X136700714Y-145073571D01*
X136736428Y-145002142D01*
X136736428Y-144359285D01*
X136343571Y-145109285D02*
X136343571Y-144609285D01*
X136343571Y-144359285D02*
X136379285Y-144395000D01*
X136343571Y-144430714D01*
X136307857Y-144395000D01*
X136343571Y-144359285D01*
X136343571Y-144430714D01*
X135986428Y-144609285D02*
X135986428Y-145109285D01*
X135986428Y-144680714D02*
X135950714Y-144645000D01*
X135879285Y-144609285D01*
X135772142Y-144609285D01*
X135700714Y-144645000D01*
X135665000Y-144716428D01*
X135665000Y-145109285D01*
X135022142Y-145073571D02*
X135093571Y-145109285D01*
X135236428Y-145109285D01*
X135307857Y-145073571D01*
X135343571Y-145002142D01*
X135343571Y-144716428D01*
X135307857Y-144645000D01*
X135236428Y-144609285D01*
X135093571Y-144609285D01*
X135022142Y-144645000D01*
X134986428Y-144716428D01*
X134986428Y-144787857D01*
X135343571Y-144859285D01*
X134343571Y-145109285D02*
X134343571Y-144716428D01*
X134379285Y-144645000D01*
X134450714Y-144609285D01*
X134593571Y-144609285D01*
X134665000Y-144645000D01*
X134343571Y-145073571D02*
X134415000Y-145109285D01*
X134593571Y-145109285D01*
X134665000Y-145073571D01*
X134700714Y-145002142D01*
X134700714Y-144930714D01*
X134665000Y-144859285D01*
X134593571Y-144823571D01*
X134415000Y-144823571D01*
X134343571Y-144787857D01*
X133986428Y-145109285D02*
X133986428Y-144609285D01*
X133986428Y-144752142D02*
X133950714Y-144680714D01*
X133915000Y-144645000D01*
X133843571Y-144609285D01*
X133772142Y-144609285D01*
X132522142Y-145037857D02*
X132557857Y-145073571D01*
X132665000Y-145109285D01*
X132736428Y-145109285D01*
X132843571Y-145073571D01*
X132915000Y-145002142D01*
X132950714Y-144930714D01*
X132986428Y-144787857D01*
X132986428Y-144680714D01*
X132950714Y-144537857D01*
X132915000Y-144466428D01*
X132843571Y-144395000D01*
X132736428Y-144359285D01*
X132665000Y-144359285D01*
X132557857Y-144395000D01*
X132522142Y-144430714D01*
X132200714Y-145109285D02*
X132200714Y-144359285D01*
X131879285Y-145109285D02*
X131879285Y-144716428D01*
X131915000Y-144645000D01*
X131986428Y-144609285D01*
X132093571Y-144609285D01*
X132165000Y-144645000D01*
X132200714Y-144680714D01*
X131522142Y-145109285D02*
X131522142Y-144609285D01*
X131522142Y-144359285D02*
X131557857Y-144395000D01*
X131522142Y-144430714D01*
X131486428Y-144395000D01*
X131522142Y-144359285D01*
X131522142Y-144430714D01*
X131165000Y-144609285D02*
X131165000Y-145359285D01*
X131165000Y-144645000D02*
X131093571Y-144609285D01*
X130950714Y-144609285D01*
X130879285Y-144645000D01*
X130843571Y-144680714D01*
X130807857Y-144752142D01*
X130807857Y-144966428D01*
X130843571Y-145037857D01*
X130879285Y-145073571D01*
X130950714Y-145109285D01*
X131093571Y-145109285D01*
X131165000Y-145073571D01*
D11*
X150268928Y-146355714D02*
X150078452Y-147022380D01*
X149887976Y-146546190D01*
X149697500Y-147022380D01*
X149507023Y-146355714D01*
X149221309Y-146355714D02*
X149030833Y-147022380D01*
X148840357Y-146546190D01*
X148649880Y-147022380D01*
X148459404Y-146355714D01*
X148173690Y-146355714D02*
X147983214Y-147022380D01*
X147792738Y-146546190D01*
X147602261Y-147022380D01*
X147411785Y-146355714D01*
X147030833Y-146927142D02*
X146983214Y-146974761D01*
X147030833Y-147022380D01*
X147078452Y-146974761D01*
X147030833Y-146927142D01*
X147030833Y-147022380D01*
X146126071Y-147022380D02*
X146126071Y-146498571D01*
X146173690Y-146403333D01*
X146268928Y-146355714D01*
X146459404Y-146355714D01*
X146554642Y-146403333D01*
X146126071Y-146974761D02*
X146221309Y-147022380D01*
X146459404Y-147022380D01*
X146554642Y-146974761D01*
X146602261Y-146879523D01*
X146602261Y-146784285D01*
X146554642Y-146689047D01*
X146459404Y-146641428D01*
X146221309Y-146641428D01*
X146126071Y-146593809D01*
X145507023Y-147022380D02*
X145602261Y-146974761D01*
X145649880Y-146879523D01*
X145649880Y-146022380D01*
X145126071Y-147022380D02*
X145126071Y-146022380D01*
X145126071Y-146403333D02*
X145030833Y-146355714D01*
X144840357Y-146355714D01*
X144745119Y-146403333D01*
X144697500Y-146450952D01*
X144649880Y-146546190D01*
X144649880Y-146831904D01*
X144697500Y-146927142D01*
X144745119Y-146974761D01*
X144840357Y-147022380D01*
X145030833Y-147022380D01*
X145126071Y-146974761D01*
X143840357Y-146974761D02*
X143935595Y-147022380D01*
X144126071Y-147022380D01*
X144221309Y-146974761D01*
X144268928Y-146879523D01*
X144268928Y-146498571D01*
X144221309Y-146403333D01*
X144126071Y-146355714D01*
X143935595Y-146355714D01*
X143840357Y-146403333D01*
X143792738Y-146498571D01*
X143792738Y-146593809D01*
X144268928Y-146689047D01*
X143364166Y-147022380D02*
X143364166Y-146355714D01*
X143364166Y-146546190D02*
X143316547Y-146450952D01*
X143268928Y-146403333D01*
X143173690Y-146355714D01*
X143078452Y-146355714D01*
X142887976Y-146355714D02*
X142507023Y-146355714D01*
X142745119Y-146022380D02*
X142745119Y-146879523D01*
X142697500Y-146974761D01*
X142602261Y-147022380D01*
X142507023Y-147022380D01*
X141745119Y-146355714D02*
X141745119Y-147165238D01*
X141792738Y-147260476D01*
X141840357Y-147308095D01*
X141935595Y-147355714D01*
X142078452Y-147355714D01*
X142173690Y-147308095D01*
X141745119Y-146974761D02*
X141840357Y-147022380D01*
X142030833Y-147022380D01*
X142126071Y-146974761D01*
X142173690Y-146927142D01*
X142221309Y-146831904D01*
X142221309Y-146546190D01*
X142173690Y-146450952D01*
X142126071Y-146403333D01*
X142030833Y-146355714D01*
X141840357Y-146355714D01*
X141745119Y-146403333D01*
X141126071Y-147022380D02*
X141221309Y-146974761D01*
X141268928Y-146927142D01*
X141316547Y-146831904D01*
X141316547Y-146546190D01*
X141268928Y-146450952D01*
X141221309Y-146403333D01*
X141126071Y-146355714D01*
X140983214Y-146355714D01*
X140887976Y-146403333D01*
X140840357Y-146450952D01*
X140792738Y-146546190D01*
X140792738Y-146831904D01*
X140840357Y-146927142D01*
X140887976Y-146974761D01*
X140983214Y-147022380D01*
X141126071Y-147022380D01*
X140364166Y-146355714D02*
X140364166Y-147022380D01*
X140364166Y-146450952D02*
X140316547Y-146403333D01*
X140221309Y-146355714D01*
X140078452Y-146355714D01*
X139983214Y-146403333D01*
X139935595Y-146498571D01*
X139935595Y-147022380D01*
X139554642Y-146355714D02*
X139030833Y-146355714D01*
X139554642Y-147022380D01*
X139030833Y-147022380D01*
X138221309Y-147022380D02*
X138221309Y-146498571D01*
X138268928Y-146403333D01*
X138364166Y-146355714D01*
X138554642Y-146355714D01*
X138649880Y-146403333D01*
X138221309Y-146974761D02*
X138316547Y-147022380D01*
X138554642Y-147022380D01*
X138649880Y-146974761D01*
X138697500Y-146879523D01*
X138697500Y-146784285D01*
X138649880Y-146689047D01*
X138554642Y-146641428D01*
X138316547Y-146641428D01*
X138221309Y-146593809D01*
X137602261Y-147022380D02*
X137697500Y-146974761D01*
X137745119Y-146879523D01*
X137745119Y-146022380D01*
X136840357Y-146974761D02*
X136935595Y-147022380D01*
X137126071Y-147022380D01*
X137221309Y-146974761D01*
X137268928Y-146879523D01*
X137268928Y-146498571D01*
X137221309Y-146403333D01*
X137126071Y-146355714D01*
X136935595Y-146355714D01*
X136840357Y-146403333D01*
X136792738Y-146498571D01*
X136792738Y-146593809D01*
X137268928Y-146689047D01*
X136459404Y-146355714D02*
X135935595Y-146355714D01*
X136459404Y-147022380D01*
X135935595Y-147022380D01*
X135554642Y-146927142D02*
X135507023Y-146974761D01*
X135554642Y-147022380D01*
X135602261Y-146974761D01*
X135554642Y-146927142D01*
X135554642Y-147022380D01*
X134649880Y-146974761D02*
X134745119Y-147022380D01*
X134935595Y-147022380D01*
X135030833Y-146974761D01*
X135078452Y-146927142D01*
X135126071Y-146831904D01*
X135126071Y-146546190D01*
X135078452Y-146450952D01*
X135030833Y-146403333D01*
X134935595Y-146355714D01*
X134745119Y-146355714D01*
X134649880Y-146403333D01*
X134078452Y-147022380D02*
X134173690Y-146974761D01*
X134221309Y-146927142D01*
X134268928Y-146831904D01*
X134268928Y-146546190D01*
X134221309Y-146450952D01*
X134173690Y-146403333D01*
X134078452Y-146355714D01*
X133935595Y-146355714D01*
X133840357Y-146403333D01*
X133792738Y-146450952D01*
X133745119Y-146546190D01*
X133745119Y-146831904D01*
X133792738Y-146927142D01*
X133840357Y-146974761D01*
X133935595Y-147022380D01*
X134078452Y-147022380D01*
X133459404Y-146355714D02*
X133078452Y-146355714D01*
X133316547Y-147022380D02*
X133316547Y-146165238D01*
X133268928Y-146070000D01*
X133173690Y-146022380D01*
X133078452Y-146022380D01*
X132887976Y-146355714D02*
X132507023Y-146355714D01*
X132745119Y-147022380D02*
X132745119Y-146165238D01*
X132697500Y-146070000D01*
X132602261Y-146022380D01*
X132507023Y-146022380D01*
X131792738Y-146974761D02*
X131887976Y-147022380D01*
X132078452Y-147022380D01*
X132173690Y-146974761D01*
X132221309Y-146879523D01*
X132221309Y-146498571D01*
X132173690Y-146403333D01*
X132078452Y-146355714D01*
X131887976Y-146355714D01*
X131792738Y-146403333D01*
X131745119Y-146498571D01*
X131745119Y-146593809D01*
X132221309Y-146689047D01*
X130935595Y-146974761D02*
X131030833Y-147022380D01*
X131221309Y-147022380D01*
X131316547Y-146974761D01*
X131364166Y-146879523D01*
X131364166Y-146498571D01*
X131316547Y-146403333D01*
X131221309Y-146355714D01*
X131030833Y-146355714D01*
X130935595Y-146403333D01*
X130887976Y-146498571D01*
X130887976Y-146593809D01*
X131364166Y-146689047D01*
D12*
X136539523Y-143074761D02*
X136539523Y-141074761D01*
X136539523Y-142979523D02*
X136730000Y-143074761D01*
X137110952Y-143074761D01*
X137301428Y-142979523D01*
X137396666Y-142884285D01*
X137491904Y-142693809D01*
X137491904Y-142122380D01*
X137396666Y-141931904D01*
X137301428Y-141836666D01*
X137110952Y-141741428D01*
X136730000Y-141741428D01*
X136539523Y-141836666D01*
X134539523Y-143074761D02*
X135682380Y-143074761D01*
X135110952Y-143074761D02*
X135110952Y-141074761D01*
X135301428Y-141360476D01*
X135491904Y-141550952D01*
X135682380Y-141646190D01*
X132825238Y-142979523D02*
X133015714Y-143074761D01*
X133396666Y-143074761D01*
X133587142Y-142979523D01*
X133682380Y-142884285D01*
X133777619Y-142693809D01*
X133777619Y-142122380D01*
X133682380Y-141931904D01*
X133587142Y-141836666D01*
X133396666Y-141741428D01*
X133015714Y-141741428D01*
X132825238Y-141836666D01*
X131206190Y-142979523D02*
X131396666Y-143074761D01*
X131777619Y-143074761D01*
X131968095Y-142979523D01*
X132063333Y-142789047D01*
X132063333Y-142027142D01*
X131968095Y-141836666D01*
X131777619Y-141741428D01*
X131396666Y-141741428D01*
X131206190Y-141836666D01*
X131110952Y-142027142D01*
X131110952Y-142217619D01*
X132063333Y-142408095D01*
M02*
