%TF.GenerationSoftware,KiCad,Pcbnew,5.1.9-73d0e3b20d~88~ubuntu18.04.1*%
%TF.CreationDate,2021-01-26T17:19:55+01:00*%
%TF.ProjectId,d1ce,64316365-2e6b-4696-9361-645f70636258,v1*%
%TF.SameCoordinates,Original*%
%TF.FileFunction,Copper,L1,Top*%
%TF.FilePolarity,Positive*%
%FSLAX46Y46*%
G04 Gerber Fmt 4.6, Leading zero omitted, Abs format (unit mm)*
G04 Created by KiCad (PCBNEW 5.1.9-73d0e3b20d~88~ubuntu18.04.1) date 2021-01-26 17:19:55*
%MOMM*%
%LPD*%
G01*
G04 APERTURE LIST*
%TA.AperFunction,SMDPad,CuDef*%
%ADD10R,5.100000X5.100000*%
%TD*%
%TA.AperFunction,SMDPad,CuDef*%
%ADD11C,17.800000*%
%TD*%
%TA.AperFunction,ComponentPad*%
%ADD12R,1.800000X1.800000*%
%TD*%
%TA.AperFunction,ComponentPad*%
%ADD13C,1.800000*%
%TD*%
%TA.AperFunction,ComponentPad*%
%ADD14O,1.400000X1.400000*%
%TD*%
%TA.AperFunction,ComponentPad*%
%ADD15C,1.400000*%
%TD*%
%TA.AperFunction,ComponentPad*%
%ADD16C,2.000000*%
%TD*%
%TA.AperFunction,ComponentPad*%
%ADD17C,1.408000*%
%TD*%
%TA.AperFunction,ComponentPad*%
%ADD18R,1.408000X1.408000*%
%TD*%
%TA.AperFunction,ComponentPad*%
%ADD19O,1.600000X1.600000*%
%TD*%
%TA.AperFunction,ComponentPad*%
%ADD20R,1.600000X1.600000*%
%TD*%
%TA.AperFunction,ViaPad*%
%ADD21C,0.800000*%
%TD*%
%TA.AperFunction,Conductor*%
%ADD22C,0.300000*%
%TD*%
%TA.AperFunction,Conductor*%
%ADD23C,0.254000*%
%TD*%
%TA.AperFunction,Conductor*%
%ADD24C,0.100000*%
%TD*%
G04 APERTURE END LIST*
D10*
%TO.P,BT1,1*%
%TO.N,Net-(BT1-Pad1)*%
X142200000Y-118570000D03*
X142200000Y-144170000D03*
D11*
%TO.P,BT1,2*%
%TO.N,GND*%
X142200000Y-131370000D03*
%TD*%
D12*
%TO.P,D1,1*%
%TO.N,Net-(D1-Pad1)*%
X133350000Y-58420000D03*
D13*
%TO.P,D1,2*%
%TO.N,/LED1*%
X135890000Y-58420000D03*
%TD*%
%TO.P,D2,2*%
%TO.N,/LED2*%
X135894800Y-71120000D03*
D12*
%TO.P,D2,1*%
%TO.N,Net-(D2-Pad1)*%
X133354800Y-71120000D03*
%TD*%
D13*
%TO.P,D3,2*%
%TO.N,/LED3*%
X135890000Y-83820000D03*
D12*
%TO.P,D3,1*%
%TO.N,Net-(D3-Pad1)*%
X133350000Y-83820000D03*
%TD*%
%TO.P,D4,1*%
%TO.N,Net-(D4-Pad1)*%
X146685000Y-71120000D03*
D13*
%TO.P,D4,2*%
%TO.N,/LED4*%
X149225000Y-71120000D03*
%TD*%
%TO.P,D5,2*%
%TO.N,/LED5*%
X161894800Y-58420000D03*
D12*
%TO.P,D5,1*%
%TO.N,Net-(D5-Pad1)*%
X159354800Y-58420000D03*
%TD*%
D13*
%TO.P,D6,2*%
%TO.N,/LED6*%
X161894800Y-71120000D03*
D12*
%TO.P,D6,1*%
%TO.N,Net-(D6-Pad1)*%
X159354800Y-71120000D03*
%TD*%
%TO.P,D7,1*%
%TO.N,Net-(D7-Pad1)*%
X159385000Y-83820000D03*
D13*
%TO.P,D7,2*%
%TO.N,/LED7*%
X161925000Y-83820000D03*
%TD*%
D14*
%TO.P,R1,2*%
%TO.N,GND*%
X134620000Y-98390000D03*
D15*
%TO.P,R1,1*%
%TO.N,Net-(D1-Pad1)*%
X134620000Y-90770000D03*
%TD*%
D14*
%TO.P,R2,2*%
%TO.N,GND*%
X139065000Y-98390000D03*
D15*
%TO.P,R2,1*%
%TO.N,Net-(D2-Pad1)*%
X139065000Y-90770000D03*
%TD*%
%TO.P,R3,1*%
%TO.N,Net-(D3-Pad1)*%
X143510000Y-90825000D03*
D14*
%TO.P,R3,2*%
%TO.N,GND*%
X143510000Y-98445000D03*
%TD*%
%TO.P,R4,2*%
%TO.N,GND*%
X147955000Y-98445000D03*
D15*
%TO.P,R4,1*%
%TO.N,Net-(D4-Pad1)*%
X147955000Y-90825000D03*
%TD*%
D14*
%TO.P,R5,2*%
%TO.N,GND*%
X152400000Y-98445000D03*
D15*
%TO.P,R5,1*%
%TO.N,Net-(D5-Pad1)*%
X152400000Y-90825000D03*
%TD*%
%TO.P,R6,1*%
%TO.N,Net-(D6-Pad1)*%
X156845000Y-90825000D03*
D14*
%TO.P,R6,2*%
%TO.N,GND*%
X156845000Y-98445000D03*
%TD*%
%TO.P,R7,2*%
%TO.N,GND*%
X161290000Y-98445000D03*
D15*
%TO.P,R7,1*%
%TO.N,Net-(D7-Pad1)*%
X161290000Y-90825000D03*
%TD*%
D16*
%TO.P,SW1,1*%
%TO.N,Net-(SW1-Pad1)*%
X162987580Y-138067980D03*
%TO.P,SW1,2*%
%TO.N,GND*%
X162987580Y-142567980D03*
%TO.P,SW1,1*%
%TO.N,Net-(SW1-Pad1)*%
X156487580Y-138067980D03*
%TO.P,SW1,2*%
%TO.N,GND*%
X156487580Y-142567980D03*
%TD*%
D17*
%TO.P,SW2,3*%
%TO.N,Net-(SW2-Pad3)*%
X158070000Y-121290000D03*
%TO.P,SW2,2*%
%TO.N,Net-(BT1-Pad1)*%
X158070000Y-123790000D03*
D18*
%TO.P,SW2,1*%
%TO.N,VCC*%
X158070000Y-126290000D03*
%TD*%
D19*
%TO.P,U1,8*%
%TO.N,VCC*%
X155780000Y-111760000D03*
%TO.P,U1,4*%
%TO.N,GND*%
X163400000Y-104140000D03*
%TO.P,U1,7*%
%TO.N,/PB2toData*%
X155780000Y-109220000D03*
%TO.P,U1,3*%
%TO.N,Net-(SW1-Pad1)*%
X163400000Y-106680000D03*
%TO.P,U1,6*%
%TO.N,/PB1toLatch*%
X155780000Y-106680000D03*
%TO.P,U1,2*%
%TO.N,Net-(U1-Pad2)*%
X163400000Y-109220000D03*
%TO.P,U1,5*%
%TO.N,/PB0toClock*%
X155780000Y-104140000D03*
D20*
%TO.P,U1,1*%
%TO.N,Net-(U1-Pad1)*%
X163400000Y-111760000D03*
%TD*%
D19*
%TO.P,U2,16*%
%TO.N,VCC*%
X149860000Y-111760000D03*
%TO.P,U2,8*%
%TO.N,GND*%
X132080000Y-104140000D03*
%TO.P,U2,15*%
%TO.N,/LED1*%
X147320000Y-111760000D03*
%TO.P,U2,7*%
%TO.N,Net-(U2-Pad7)*%
X134620000Y-104140000D03*
%TO.P,U2,14*%
%TO.N,/PB2toData*%
X144780000Y-111760000D03*
%TO.P,U2,6*%
%TO.N,/LED7*%
X137160000Y-104140000D03*
%TO.P,U2,13*%
%TO.N,GND*%
X142240000Y-111760000D03*
%TO.P,U2,5*%
%TO.N,/LED6*%
X139700000Y-104140000D03*
%TO.P,U2,12*%
%TO.N,/PB1toLatch*%
X139700000Y-111760000D03*
%TO.P,U2,4*%
%TO.N,/LED5*%
X142240000Y-104140000D03*
%TO.P,U2,11*%
%TO.N,/PB0toClock*%
X137160000Y-111760000D03*
%TO.P,U2,3*%
%TO.N,/LED4*%
X144780000Y-104140000D03*
%TO.P,U2,10*%
%TO.N,VCC*%
X134620000Y-111760000D03*
%TO.P,U2,2*%
%TO.N,/LED3*%
X147320000Y-104140000D03*
%TO.P,U2,9*%
%TO.N,Net-(U2-Pad9)*%
X132080000Y-111760000D03*
D20*
%TO.P,U2,1*%
%TO.N,/LED2*%
X149860000Y-104140000D03*
%TD*%
D21*
%TO.N,/LED1*%
X133200000Y-100970000D03*
%TD*%
D22*
%TO.N,Net-(BT1-Pad1)*%
X142200000Y-118570000D02*
X148200000Y-118570000D01*
X148200000Y-118570000D02*
X153420000Y-123790000D01*
X153420000Y-123790000D02*
X158070000Y-123790000D01*
%TO.N,GND*%
X161290000Y-102030000D02*
X163400000Y-104140000D01*
X161290000Y-98445000D02*
X161290000Y-102030000D01*
X161290000Y-98445000D02*
X156845000Y-98445000D01*
X156845000Y-98445000D02*
X152400000Y-98445000D01*
X152400000Y-98445000D02*
X147955000Y-98445000D01*
X147955000Y-98445000D02*
X143510000Y-98445000D01*
X139120000Y-98445000D02*
X139065000Y-98390000D01*
X143510000Y-98445000D02*
X139120000Y-98445000D01*
X139065000Y-98390000D02*
X134620000Y-98390000D01*
X134620000Y-98390000D02*
X133180000Y-98390000D01*
X132080000Y-99490000D02*
X132080000Y-104140000D01*
X133180000Y-98390000D02*
X132080000Y-99490000D01*
X132080000Y-104140000D02*
X132080000Y-106050000D01*
X136530000Y-106050000D02*
X142240000Y-111760000D01*
X132080000Y-106050000D02*
X136530000Y-106050000D01*
X142240000Y-111760000D02*
X139430000Y-114570000D01*
X139430000Y-114570000D02*
X135200000Y-114570000D01*
X135200000Y-124370000D02*
X142200000Y-131370000D01*
X135200000Y-114570000D02*
X135200000Y-124370000D01*
X156487580Y-142567980D02*
X162987580Y-142567980D01*
X142200000Y-131370000D02*
X153397980Y-142567980D01*
X153397980Y-142567980D02*
X156487580Y-142567980D01*
%TO.N,/LED1*%
X135770001Y-103540001D02*
X133200000Y-100970000D01*
X135770001Y-104452003D02*
X135770001Y-103540001D01*
X136607999Y-105290001D02*
X135770001Y-104452003D01*
X147320000Y-111760000D02*
X140850001Y-105290001D01*
X140850001Y-105290001D02*
X136607999Y-105290001D01*
%TO.N,Net-(D1-Pad1)*%
X133350000Y-58420000D02*
X131550000Y-58420000D01*
X131550000Y-58420000D02*
X129800000Y-60170000D01*
X129800000Y-88677120D02*
X131892880Y-90770000D01*
X131892880Y-90770000D02*
X134620000Y-90770000D01*
X129800000Y-60170000D02*
X129800000Y-88677120D01*
%TO.N,Net-(D2-Pad1)*%
X139065000Y-90770000D02*
X137065000Y-88770000D01*
X137065000Y-88770000D02*
X130600000Y-88770000D01*
X130600000Y-73874800D02*
X133354800Y-71120000D01*
X130600000Y-88770000D02*
X130600000Y-73874800D01*
%TO.N,Net-(D3-Pad1)*%
X133350000Y-83820000D02*
X133350000Y-85520000D01*
X133350000Y-85520000D02*
X135800000Y-87970000D01*
X140655000Y-87970000D02*
X143510000Y-90825000D01*
X135800000Y-87970000D02*
X140655000Y-87970000D01*
%TO.N,Net-(D4-Pad1)*%
X146685000Y-89555000D02*
X147955000Y-90825000D01*
X146685000Y-71120000D02*
X146685000Y-89555000D01*
%TO.N,Net-(D5-Pad1)*%
X159354800Y-58420000D02*
X155750000Y-58420000D01*
X152400000Y-61770000D02*
X152400000Y-90825000D01*
X155750000Y-58420000D02*
X152400000Y-61770000D01*
%TO.N,Net-(D6-Pad1)*%
X156845000Y-73629800D02*
X156845000Y-90825000D01*
X159354800Y-71120000D02*
X156845000Y-73629800D01*
%TO.N,/LED7*%
X164550001Y-86445001D02*
X161925000Y-83820000D01*
X164550001Y-104692001D02*
X164550001Y-86445001D01*
X163952001Y-105290001D02*
X164550001Y-104692001D01*
X162847999Y-105290001D02*
X163952001Y-105290001D01*
X160547997Y-102989999D02*
X162847999Y-105290001D01*
X138310001Y-102989999D02*
X160547997Y-102989999D01*
X137160000Y-104140000D02*
X138310001Y-102989999D01*
%TO.N,Net-(D7-Pad1)*%
X159385000Y-88920000D02*
X161290000Y-90825000D01*
X159385000Y-83820000D02*
X159385000Y-88920000D01*
%TO.N,Net-(SW1-Pad1)*%
X156487580Y-138067980D02*
X162987580Y-138067980D01*
X163400000Y-106680000D02*
X161600000Y-108480000D01*
X161600000Y-136680400D02*
X162987580Y-138067980D01*
X161600000Y-108480000D02*
X161600000Y-136680400D01*
%TO.N,VCC*%
X159124001Y-115104001D02*
X155780000Y-111760000D01*
X159124001Y-125235999D02*
X159124001Y-115104001D01*
X158070000Y-126290000D02*
X159124001Y-125235999D01*
X155780000Y-111760000D02*
X149860000Y-111760000D01*
%TD*%
D23*
%TO.N,GND*%
X166275001Y-148465000D02*
X129545000Y-148465000D01*
X129545000Y-141620000D01*
X139011928Y-141620000D01*
X139011928Y-146720000D01*
X139024188Y-146844482D01*
X139060498Y-146964180D01*
X139119463Y-147074494D01*
X139198815Y-147171185D01*
X139295506Y-147250537D01*
X139405820Y-147309502D01*
X139525518Y-147345812D01*
X139650000Y-147358072D01*
X144750000Y-147358072D01*
X144874482Y-147345812D01*
X144994180Y-147309502D01*
X145104494Y-147250537D01*
X145201185Y-147171185D01*
X145280537Y-147074494D01*
X145339502Y-146964180D01*
X145375812Y-146844482D01*
X145388072Y-146720000D01*
X145388072Y-143703393D01*
X155531772Y-143703393D01*
X155627536Y-143967794D01*
X155917151Y-144108684D01*
X156228688Y-144190364D01*
X156550175Y-144209698D01*
X156869255Y-144165941D01*
X157173668Y-144060775D01*
X157347624Y-143967794D01*
X157443388Y-143703393D01*
X162031772Y-143703393D01*
X162127536Y-143967794D01*
X162417151Y-144108684D01*
X162728688Y-144190364D01*
X163050175Y-144209698D01*
X163369255Y-144165941D01*
X163673668Y-144060775D01*
X163847624Y-143967794D01*
X163943388Y-143703393D01*
X162987580Y-142747585D01*
X162031772Y-143703393D01*
X157443388Y-143703393D01*
X156487580Y-142747585D01*
X155531772Y-143703393D01*
X145388072Y-143703393D01*
X145388072Y-142630575D01*
X154845862Y-142630575D01*
X154889619Y-142949655D01*
X154994785Y-143254068D01*
X155087766Y-143428024D01*
X155352167Y-143523788D01*
X156307975Y-142567980D01*
X156667185Y-142567980D01*
X157622993Y-143523788D01*
X157887394Y-143428024D01*
X158028284Y-143138409D01*
X158109964Y-142826872D01*
X158121769Y-142630575D01*
X161345862Y-142630575D01*
X161389619Y-142949655D01*
X161494785Y-143254068D01*
X161587766Y-143428024D01*
X161852167Y-143523788D01*
X162807975Y-142567980D01*
X163167185Y-142567980D01*
X164122993Y-143523788D01*
X164387394Y-143428024D01*
X164528284Y-143138409D01*
X164609964Y-142826872D01*
X164629298Y-142505385D01*
X164585541Y-142186305D01*
X164480375Y-141881892D01*
X164387394Y-141707936D01*
X164122993Y-141612172D01*
X163167185Y-142567980D01*
X162807975Y-142567980D01*
X161852167Y-141612172D01*
X161587766Y-141707936D01*
X161446876Y-141997551D01*
X161365196Y-142309088D01*
X161345862Y-142630575D01*
X158121769Y-142630575D01*
X158129298Y-142505385D01*
X158085541Y-142186305D01*
X157980375Y-141881892D01*
X157887394Y-141707936D01*
X157622993Y-141612172D01*
X156667185Y-142567980D01*
X156307975Y-142567980D01*
X155352167Y-141612172D01*
X155087766Y-141707936D01*
X154946876Y-141997551D01*
X154865196Y-142309088D01*
X154845862Y-142630575D01*
X145388072Y-142630575D01*
X145388072Y-141620000D01*
X145375812Y-141495518D01*
X145356717Y-141432567D01*
X155531772Y-141432567D01*
X156487580Y-142388375D01*
X157443388Y-141432567D01*
X162031772Y-141432567D01*
X162987580Y-142388375D01*
X163943388Y-141432567D01*
X163847624Y-141168166D01*
X163558009Y-141027276D01*
X163246472Y-140945596D01*
X162924985Y-140926262D01*
X162605905Y-140970019D01*
X162301492Y-141075185D01*
X162127536Y-141168166D01*
X162031772Y-141432567D01*
X157443388Y-141432567D01*
X157347624Y-141168166D01*
X157058009Y-141027276D01*
X156746472Y-140945596D01*
X156424985Y-140926262D01*
X156105905Y-140970019D01*
X155801492Y-141075185D01*
X155627536Y-141168166D01*
X155531772Y-141432567D01*
X145356717Y-141432567D01*
X145339502Y-141375820D01*
X145280537Y-141265506D01*
X145201185Y-141168815D01*
X145104494Y-141089463D01*
X144994180Y-141030498D01*
X144874482Y-140994188D01*
X144750000Y-140981928D01*
X139650000Y-140981928D01*
X139525518Y-140994188D01*
X139405820Y-141030498D01*
X139295506Y-141089463D01*
X139198815Y-141168815D01*
X139119463Y-141265506D01*
X139060498Y-141375820D01*
X139024188Y-141495518D01*
X139011928Y-141620000D01*
X129545000Y-141620000D01*
X129545000Y-138121830D01*
X135627775Y-138121830D01*
X136671590Y-139195270D01*
X138304451Y-140123449D01*
X140087016Y-140715238D01*
X141950782Y-140947894D01*
X143824125Y-140812478D01*
X145635054Y-140314192D01*
X147313976Y-139472186D01*
X147728410Y-139195270D01*
X148772225Y-138121830D01*
X142200000Y-131549605D01*
X135627775Y-138121830D01*
X129545000Y-138121830D01*
X129545000Y-131120782D01*
X132622106Y-131120782D01*
X132757522Y-132994125D01*
X133255808Y-134805054D01*
X134097814Y-136483976D01*
X134374730Y-136898410D01*
X135448170Y-137942225D01*
X142020395Y-131370000D01*
X142379605Y-131370000D01*
X148951830Y-137942225D01*
X150025270Y-136898410D01*
X150953449Y-135265549D01*
X151545238Y-133482984D01*
X151777894Y-131619218D01*
X151642478Y-129745875D01*
X151144192Y-127934946D01*
X150302186Y-126256024D01*
X150025270Y-125841590D01*
X148951830Y-124797775D01*
X142379605Y-131370000D01*
X142020395Y-131370000D01*
X135448170Y-124797775D01*
X134374730Y-125841590D01*
X133446551Y-127474451D01*
X132854762Y-129257016D01*
X132622106Y-131120782D01*
X129545000Y-131120782D01*
X129545000Y-124618170D01*
X135627775Y-124618170D01*
X142200000Y-131190395D01*
X148772225Y-124618170D01*
X147728410Y-123544730D01*
X146095549Y-122616551D01*
X144312984Y-122024762D01*
X142449218Y-121792106D01*
X140575875Y-121927522D01*
X138764946Y-122425808D01*
X137086024Y-123267814D01*
X136671590Y-123544730D01*
X135627775Y-124618170D01*
X129545000Y-124618170D01*
X129545000Y-111618665D01*
X130645000Y-111618665D01*
X130645000Y-111901335D01*
X130700147Y-112178574D01*
X130808320Y-112439727D01*
X130965363Y-112674759D01*
X131165241Y-112874637D01*
X131400273Y-113031680D01*
X131661426Y-113139853D01*
X131938665Y-113195000D01*
X132221335Y-113195000D01*
X132498574Y-113139853D01*
X132759727Y-113031680D01*
X132994759Y-112874637D01*
X133194637Y-112674759D01*
X133350000Y-112442241D01*
X133505363Y-112674759D01*
X133705241Y-112874637D01*
X133940273Y-113031680D01*
X134201426Y-113139853D01*
X134478665Y-113195000D01*
X134761335Y-113195000D01*
X135038574Y-113139853D01*
X135299727Y-113031680D01*
X135534759Y-112874637D01*
X135734637Y-112674759D01*
X135890000Y-112442241D01*
X136045363Y-112674759D01*
X136245241Y-112874637D01*
X136480273Y-113031680D01*
X136741426Y-113139853D01*
X137018665Y-113195000D01*
X137301335Y-113195000D01*
X137578574Y-113139853D01*
X137839727Y-113031680D01*
X138074759Y-112874637D01*
X138274637Y-112674759D01*
X138430000Y-112442241D01*
X138585363Y-112674759D01*
X138785241Y-112874637D01*
X139020273Y-113031680D01*
X139281426Y-113139853D01*
X139558665Y-113195000D01*
X139841335Y-113195000D01*
X140118574Y-113139853D01*
X140379727Y-113031680D01*
X140614759Y-112874637D01*
X140814637Y-112674759D01*
X140971680Y-112439727D01*
X140976067Y-112429135D01*
X141087615Y-112615131D01*
X141276586Y-112823519D01*
X141502580Y-112991037D01*
X141756913Y-113111246D01*
X141890961Y-113151904D01*
X142113000Y-113029915D01*
X142113000Y-111887000D01*
X142093000Y-111887000D01*
X142093000Y-111633000D01*
X142113000Y-111633000D01*
X142113000Y-110490085D01*
X141890961Y-110368096D01*
X141756913Y-110408754D01*
X141502580Y-110528963D01*
X141276586Y-110696481D01*
X141087615Y-110904869D01*
X140976067Y-111090865D01*
X140971680Y-111080273D01*
X140814637Y-110845241D01*
X140614759Y-110645363D01*
X140379727Y-110488320D01*
X140118574Y-110380147D01*
X139841335Y-110325000D01*
X139558665Y-110325000D01*
X139281426Y-110380147D01*
X139020273Y-110488320D01*
X138785241Y-110645363D01*
X138585363Y-110845241D01*
X138430000Y-111077759D01*
X138274637Y-110845241D01*
X138074759Y-110645363D01*
X137839727Y-110488320D01*
X137578574Y-110380147D01*
X137301335Y-110325000D01*
X137018665Y-110325000D01*
X136741426Y-110380147D01*
X136480273Y-110488320D01*
X136245241Y-110645363D01*
X136045363Y-110845241D01*
X135890000Y-111077759D01*
X135734637Y-110845241D01*
X135534759Y-110645363D01*
X135299727Y-110488320D01*
X135038574Y-110380147D01*
X134761335Y-110325000D01*
X134478665Y-110325000D01*
X134201426Y-110380147D01*
X133940273Y-110488320D01*
X133705241Y-110645363D01*
X133505363Y-110845241D01*
X133350000Y-111077759D01*
X133194637Y-110845241D01*
X132994759Y-110645363D01*
X132759727Y-110488320D01*
X132498574Y-110380147D01*
X132221335Y-110325000D01*
X131938665Y-110325000D01*
X131661426Y-110380147D01*
X131400273Y-110488320D01*
X131165241Y-110645363D01*
X130965363Y-110845241D01*
X130808320Y-111080273D01*
X130700147Y-111341426D01*
X130645000Y-111618665D01*
X129545000Y-111618665D01*
X129545000Y-104489040D01*
X130688091Y-104489040D01*
X130782930Y-104753881D01*
X130927615Y-104995131D01*
X131116586Y-105203519D01*
X131342580Y-105371037D01*
X131596913Y-105491246D01*
X131730961Y-105531904D01*
X131953000Y-105409915D01*
X131953000Y-104267000D01*
X130809376Y-104267000D01*
X130688091Y-104489040D01*
X129545000Y-104489040D01*
X129545000Y-103790960D01*
X130688091Y-103790960D01*
X130809376Y-104013000D01*
X131953000Y-104013000D01*
X131953000Y-102870085D01*
X131730961Y-102748096D01*
X131596913Y-102788754D01*
X131342580Y-102908963D01*
X131116586Y-103076481D01*
X130927615Y-103284869D01*
X130782930Y-103526119D01*
X130688091Y-103790960D01*
X129545000Y-103790960D01*
X129545000Y-100868061D01*
X132165000Y-100868061D01*
X132165000Y-101071939D01*
X132204774Y-101271898D01*
X132282795Y-101460256D01*
X132396063Y-101629774D01*
X132540226Y-101773937D01*
X132709744Y-101887205D01*
X132898102Y-101965226D01*
X133098061Y-102005000D01*
X133124843Y-102005000D01*
X133974136Y-102854294D01*
X133940273Y-102868320D01*
X133705241Y-103025363D01*
X133505363Y-103225241D01*
X133348320Y-103460273D01*
X133343933Y-103470865D01*
X133232385Y-103284869D01*
X133043414Y-103076481D01*
X132817420Y-102908963D01*
X132563087Y-102788754D01*
X132429039Y-102748096D01*
X132207000Y-102870085D01*
X132207000Y-104013000D01*
X132227000Y-104013000D01*
X132227000Y-104267000D01*
X132207000Y-104267000D01*
X132207000Y-105409915D01*
X132429039Y-105531904D01*
X132563087Y-105491246D01*
X132817420Y-105371037D01*
X133043414Y-105203519D01*
X133232385Y-104995131D01*
X133343933Y-104809135D01*
X133348320Y-104819727D01*
X133505363Y-105054759D01*
X133705241Y-105254637D01*
X133940273Y-105411680D01*
X134201426Y-105519853D01*
X134478665Y-105575000D01*
X134761335Y-105575000D01*
X135038574Y-105519853D01*
X135299727Y-105411680D01*
X135491429Y-105283589D01*
X136025656Y-105817816D01*
X136050235Y-105847765D01*
X136080183Y-105872343D01*
X136080186Y-105872346D01*
X136109558Y-105896451D01*
X136169766Y-105945863D01*
X136306139Y-106018755D01*
X136454111Y-106063642D01*
X136468489Y-106065058D01*
X136569438Y-106075001D01*
X136569445Y-106075001D01*
X136607998Y-106078798D01*
X136646551Y-106075001D01*
X140524844Y-106075001D01*
X144774842Y-110325000D01*
X144638665Y-110325000D01*
X144361426Y-110380147D01*
X144100273Y-110488320D01*
X143865241Y-110645363D01*
X143665363Y-110845241D01*
X143508320Y-111080273D01*
X143503933Y-111090865D01*
X143392385Y-110904869D01*
X143203414Y-110696481D01*
X142977420Y-110528963D01*
X142723087Y-110408754D01*
X142589039Y-110368096D01*
X142367000Y-110490085D01*
X142367000Y-111633000D01*
X142387000Y-111633000D01*
X142387000Y-111887000D01*
X142367000Y-111887000D01*
X142367000Y-113029915D01*
X142589039Y-113151904D01*
X142723087Y-113111246D01*
X142977420Y-112991037D01*
X143203414Y-112823519D01*
X143392385Y-112615131D01*
X143503933Y-112429135D01*
X143508320Y-112439727D01*
X143665363Y-112674759D01*
X143865241Y-112874637D01*
X144100273Y-113031680D01*
X144361426Y-113139853D01*
X144638665Y-113195000D01*
X144921335Y-113195000D01*
X145198574Y-113139853D01*
X145459727Y-113031680D01*
X145694759Y-112874637D01*
X145894637Y-112674759D01*
X146050000Y-112442241D01*
X146205363Y-112674759D01*
X146405241Y-112874637D01*
X146640273Y-113031680D01*
X146901426Y-113139853D01*
X147178665Y-113195000D01*
X147461335Y-113195000D01*
X147738574Y-113139853D01*
X147999727Y-113031680D01*
X148234759Y-112874637D01*
X148434637Y-112674759D01*
X148590000Y-112442241D01*
X148745363Y-112674759D01*
X148945241Y-112874637D01*
X149180273Y-113031680D01*
X149441426Y-113139853D01*
X149718665Y-113195000D01*
X150001335Y-113195000D01*
X150278574Y-113139853D01*
X150539727Y-113031680D01*
X150774759Y-112874637D01*
X150974637Y-112674759D01*
X151061339Y-112545000D01*
X154578661Y-112545000D01*
X154665363Y-112674759D01*
X154865241Y-112874637D01*
X155100273Y-113031680D01*
X155361426Y-113139853D01*
X155638665Y-113195000D01*
X155921335Y-113195000D01*
X156074397Y-113164554D01*
X158339002Y-115429159D01*
X158339002Y-119978275D01*
X158201880Y-119951000D01*
X157938120Y-119951000D01*
X157679428Y-120002457D01*
X157435746Y-120103393D01*
X157216437Y-120249931D01*
X157029931Y-120436437D01*
X156883393Y-120655746D01*
X156782457Y-120899428D01*
X156731000Y-121158120D01*
X156731000Y-121421880D01*
X156782457Y-121680572D01*
X156883393Y-121924254D01*
X157029931Y-122143563D01*
X157216437Y-122330069D01*
X157435746Y-122476607D01*
X157588791Y-122540000D01*
X157435746Y-122603393D01*
X157216437Y-122749931D01*
X157029931Y-122936437D01*
X156984119Y-123005000D01*
X153745157Y-123005000D01*
X148782347Y-118042190D01*
X148757764Y-118012236D01*
X148638233Y-117914138D01*
X148501860Y-117841246D01*
X148353887Y-117796359D01*
X148238561Y-117785000D01*
X148238553Y-117785000D01*
X148200000Y-117781203D01*
X148161447Y-117785000D01*
X145388072Y-117785000D01*
X145388072Y-116020000D01*
X145375812Y-115895518D01*
X145339502Y-115775820D01*
X145280537Y-115665506D01*
X145201185Y-115568815D01*
X145104494Y-115489463D01*
X144994180Y-115430498D01*
X144874482Y-115394188D01*
X144750000Y-115381928D01*
X139650000Y-115381928D01*
X139525518Y-115394188D01*
X139405820Y-115430498D01*
X139295506Y-115489463D01*
X139198815Y-115568815D01*
X139119463Y-115665506D01*
X139060498Y-115775820D01*
X139024188Y-115895518D01*
X139011928Y-116020000D01*
X139011928Y-121120000D01*
X139024188Y-121244482D01*
X139060498Y-121364180D01*
X139119463Y-121474494D01*
X139198815Y-121571185D01*
X139295506Y-121650537D01*
X139405820Y-121709502D01*
X139525518Y-121745812D01*
X139650000Y-121758072D01*
X144750000Y-121758072D01*
X144874482Y-121745812D01*
X144994180Y-121709502D01*
X145104494Y-121650537D01*
X145201185Y-121571185D01*
X145280537Y-121474494D01*
X145339502Y-121364180D01*
X145375812Y-121244482D01*
X145388072Y-121120000D01*
X145388072Y-119355000D01*
X147874843Y-119355000D01*
X152837653Y-124317810D01*
X152862236Y-124347764D01*
X152981767Y-124445862D01*
X153096608Y-124507245D01*
X153118140Y-124518754D01*
X153266113Y-124563642D01*
X153341026Y-124571020D01*
X153381439Y-124575000D01*
X153381444Y-124575000D01*
X153420000Y-124578797D01*
X153458556Y-124575000D01*
X156984119Y-124575000D01*
X157029931Y-124643563D01*
X157216437Y-124830069D01*
X157392825Y-124947928D01*
X157366000Y-124947928D01*
X157241518Y-124960188D01*
X157121820Y-124996498D01*
X157011506Y-125055463D01*
X156914815Y-125134815D01*
X156835463Y-125231506D01*
X156776498Y-125341820D01*
X156740188Y-125461518D01*
X156727928Y-125586000D01*
X156727928Y-126994000D01*
X156740188Y-127118482D01*
X156776498Y-127238180D01*
X156835463Y-127348494D01*
X156914815Y-127445185D01*
X157011506Y-127524537D01*
X157121820Y-127583502D01*
X157241518Y-127619812D01*
X157366000Y-127632072D01*
X158774000Y-127632072D01*
X158898482Y-127619812D01*
X159018180Y-127583502D01*
X159128494Y-127524537D01*
X159225185Y-127445185D01*
X159304537Y-127348494D01*
X159363502Y-127238180D01*
X159399812Y-127118482D01*
X159412072Y-126994000D01*
X159412072Y-126058085D01*
X159651812Y-125818345D01*
X159681765Y-125793763D01*
X159779863Y-125674232D01*
X159852755Y-125537859D01*
X159875913Y-125461518D01*
X159897643Y-125389886D01*
X159905021Y-125314973D01*
X159909001Y-125274560D01*
X159909001Y-125274555D01*
X159912798Y-125235999D01*
X159909001Y-125197443D01*
X159909001Y-115142557D01*
X159912798Y-115104001D01*
X159909001Y-115065445D01*
X159909001Y-115065440D01*
X159905021Y-115025027D01*
X159897643Y-114950114D01*
X159852755Y-114802141D01*
X159779863Y-114665768D01*
X159681765Y-114546237D01*
X159651811Y-114521654D01*
X157184554Y-112054397D01*
X157215000Y-111901335D01*
X157215000Y-111618665D01*
X157159853Y-111341426D01*
X157051680Y-111080273D01*
X156894637Y-110845241D01*
X156694759Y-110645363D01*
X156462241Y-110490000D01*
X156694759Y-110334637D01*
X156894637Y-110134759D01*
X157051680Y-109899727D01*
X157159853Y-109638574D01*
X157215000Y-109361335D01*
X157215000Y-109078665D01*
X157159853Y-108801426D01*
X157051680Y-108540273D01*
X156894637Y-108305241D01*
X156694759Y-108105363D01*
X156462241Y-107950000D01*
X156694759Y-107794637D01*
X156894637Y-107594759D01*
X157051680Y-107359727D01*
X157159853Y-107098574D01*
X157215000Y-106821335D01*
X157215000Y-106538665D01*
X157159853Y-106261426D01*
X157051680Y-106000273D01*
X156894637Y-105765241D01*
X156694759Y-105565363D01*
X156462241Y-105410000D01*
X156694759Y-105254637D01*
X156894637Y-105054759D01*
X157051680Y-104819727D01*
X157159853Y-104558574D01*
X157215000Y-104281335D01*
X157215000Y-103998665D01*
X157170509Y-103774999D01*
X160222840Y-103774999D01*
X162256411Y-105808571D01*
X162128320Y-106000273D01*
X162020147Y-106261426D01*
X161965000Y-106538665D01*
X161965000Y-106821335D01*
X161995446Y-106974396D01*
X161072190Y-107897653D01*
X161042236Y-107922236D01*
X160944138Y-108041768D01*
X160871246Y-108178141D01*
X160826359Y-108326114D01*
X160815000Y-108441440D01*
X160815000Y-108441447D01*
X160811203Y-108480000D01*
X160815000Y-108518553D01*
X160815001Y-136641837D01*
X160811203Y-136680400D01*
X160826359Y-136834286D01*
X160871246Y-136982259D01*
X160871247Y-136982260D01*
X160944139Y-137118633D01*
X160984690Y-137168044D01*
X161017655Y-137208212D01*
X161017659Y-137208216D01*
X161042237Y-137238164D01*
X161072185Y-137262742D01*
X161092423Y-137282980D01*
X157929457Y-137282980D01*
X157757567Y-137025728D01*
X157529832Y-136797993D01*
X157262043Y-136619062D01*
X156964492Y-136495812D01*
X156648613Y-136432980D01*
X156326547Y-136432980D01*
X156010668Y-136495812D01*
X155713117Y-136619062D01*
X155445328Y-136797993D01*
X155217593Y-137025728D01*
X155038662Y-137293517D01*
X154915412Y-137591068D01*
X154852580Y-137906947D01*
X154852580Y-138229013D01*
X154915412Y-138544892D01*
X155038662Y-138842443D01*
X155217593Y-139110232D01*
X155445328Y-139337967D01*
X155713117Y-139516898D01*
X156010668Y-139640148D01*
X156326547Y-139702980D01*
X156648613Y-139702980D01*
X156964492Y-139640148D01*
X157262043Y-139516898D01*
X157529832Y-139337967D01*
X157757567Y-139110232D01*
X157929457Y-138852980D01*
X161545703Y-138852980D01*
X161717593Y-139110232D01*
X161945328Y-139337967D01*
X162213117Y-139516898D01*
X162510668Y-139640148D01*
X162826547Y-139702980D01*
X163148613Y-139702980D01*
X163464492Y-139640148D01*
X163762043Y-139516898D01*
X164029832Y-139337967D01*
X164257567Y-139110232D01*
X164436498Y-138842443D01*
X164559748Y-138544892D01*
X164622580Y-138229013D01*
X164622580Y-137906947D01*
X164559748Y-137591068D01*
X164436498Y-137293517D01*
X164257567Y-137025728D01*
X164029832Y-136797993D01*
X163762043Y-136619062D01*
X163464492Y-136495812D01*
X163148613Y-136432980D01*
X162826547Y-136432980D01*
X162523097Y-136493340D01*
X162385000Y-136355243D01*
X162385000Y-113158354D01*
X162475518Y-113185812D01*
X162600000Y-113198072D01*
X164200000Y-113198072D01*
X164324482Y-113185812D01*
X164444180Y-113149502D01*
X164554494Y-113090537D01*
X164651185Y-113011185D01*
X164730537Y-112914494D01*
X164789502Y-112804180D01*
X164825812Y-112684482D01*
X164838072Y-112560000D01*
X164838072Y-110960000D01*
X164825812Y-110835518D01*
X164789502Y-110715820D01*
X164730537Y-110605506D01*
X164651185Y-110508815D01*
X164554494Y-110429463D01*
X164444180Y-110370498D01*
X164324482Y-110334188D01*
X164316039Y-110333357D01*
X164514637Y-110134759D01*
X164671680Y-109899727D01*
X164779853Y-109638574D01*
X164835000Y-109361335D01*
X164835000Y-109078665D01*
X164779853Y-108801426D01*
X164671680Y-108540273D01*
X164514637Y-108305241D01*
X164314759Y-108105363D01*
X164082241Y-107950000D01*
X164314759Y-107794637D01*
X164514637Y-107594759D01*
X164671680Y-107359727D01*
X164779853Y-107098574D01*
X164835000Y-106821335D01*
X164835000Y-106538665D01*
X164779853Y-106261426D01*
X164671680Y-106000273D01*
X164543589Y-105808570D01*
X165077812Y-105274347D01*
X165107765Y-105249765D01*
X165205863Y-105130234D01*
X165278755Y-104993861D01*
X165298492Y-104928797D01*
X165323643Y-104845888D01*
X165334836Y-104732237D01*
X165335001Y-104730562D01*
X165335001Y-104730557D01*
X165338798Y-104692001D01*
X165335001Y-104653445D01*
X165335001Y-86483553D01*
X165338798Y-86445000D01*
X165335001Y-86406447D01*
X165335001Y-86406440D01*
X165323642Y-86291114D01*
X165278755Y-86143141D01*
X165205863Y-86006768D01*
X165107765Y-85887237D01*
X165077817Y-85862659D01*
X163414597Y-84199440D01*
X163460000Y-83971184D01*
X163460000Y-83668816D01*
X163401011Y-83372257D01*
X163285299Y-83092905D01*
X163117312Y-82841495D01*
X162903505Y-82627688D01*
X162652095Y-82459701D01*
X162372743Y-82343989D01*
X162076184Y-82285000D01*
X161773816Y-82285000D01*
X161477257Y-82343989D01*
X161197905Y-82459701D01*
X160946495Y-82627688D01*
X160880056Y-82694127D01*
X160874502Y-82675820D01*
X160815537Y-82565506D01*
X160736185Y-82468815D01*
X160639494Y-82389463D01*
X160529180Y-82330498D01*
X160409482Y-82294188D01*
X160285000Y-82281928D01*
X158485000Y-82281928D01*
X158360518Y-82294188D01*
X158240820Y-82330498D01*
X158130506Y-82389463D01*
X158033815Y-82468815D01*
X157954463Y-82565506D01*
X157895498Y-82675820D01*
X157859188Y-82795518D01*
X157846928Y-82920000D01*
X157846928Y-84720000D01*
X157859188Y-84844482D01*
X157895498Y-84964180D01*
X157954463Y-85074494D01*
X158033815Y-85171185D01*
X158130506Y-85250537D01*
X158240820Y-85309502D01*
X158360518Y-85345812D01*
X158485000Y-85358072D01*
X158600000Y-85358072D01*
X158600001Y-88881437D01*
X158596203Y-88920000D01*
X158611359Y-89073886D01*
X158656246Y-89221859D01*
X158656247Y-89221860D01*
X158729139Y-89358233D01*
X158764331Y-89401114D01*
X158802655Y-89447812D01*
X158802659Y-89447816D01*
X158827237Y-89477764D01*
X158857185Y-89502342D01*
X159970489Y-90615646D01*
X159955000Y-90693514D01*
X159955000Y-90956486D01*
X160006304Y-91214405D01*
X160106939Y-91457359D01*
X160253038Y-91676013D01*
X160438987Y-91861962D01*
X160657641Y-92008061D01*
X160900595Y-92108696D01*
X161158514Y-92160000D01*
X161421486Y-92160000D01*
X161679405Y-92108696D01*
X161922359Y-92008061D01*
X162141013Y-91861962D01*
X162326962Y-91676013D01*
X162473061Y-91457359D01*
X162573696Y-91214405D01*
X162625000Y-90956486D01*
X162625000Y-90693514D01*
X162573696Y-90435595D01*
X162473061Y-90192641D01*
X162326962Y-89973987D01*
X162141013Y-89788038D01*
X161922359Y-89641939D01*
X161679405Y-89541304D01*
X161421486Y-89490000D01*
X161158514Y-89490000D01*
X161080646Y-89505489D01*
X160170000Y-88594843D01*
X160170000Y-85358072D01*
X160285000Y-85358072D01*
X160409482Y-85345812D01*
X160529180Y-85309502D01*
X160639494Y-85250537D01*
X160736185Y-85171185D01*
X160815537Y-85074494D01*
X160874502Y-84964180D01*
X160880056Y-84945873D01*
X160946495Y-85012312D01*
X161197905Y-85180299D01*
X161477257Y-85296011D01*
X161773816Y-85355000D01*
X162076184Y-85355000D01*
X162304440Y-85309597D01*
X163765002Y-86770160D01*
X163765001Y-102753807D01*
X163749040Y-102748091D01*
X163527000Y-102869376D01*
X163527000Y-104013000D01*
X163547000Y-104013000D01*
X163547000Y-104267000D01*
X163527000Y-104267000D01*
X163527000Y-104287000D01*
X163273000Y-104287000D01*
X163273000Y-104267000D01*
X163253000Y-104267000D01*
X163253000Y-104013000D01*
X163273000Y-104013000D01*
X163273000Y-102869376D01*
X163050960Y-102748091D01*
X162786119Y-102842930D01*
X162544869Y-102987615D01*
X162336481Y-103176586D01*
X162168963Y-103402580D01*
X162137437Y-103469281D01*
X161130344Y-102462189D01*
X161105761Y-102432235D01*
X160986230Y-102334137D01*
X160849857Y-102261245D01*
X160701884Y-102216358D01*
X160586558Y-102204999D01*
X160586550Y-102204999D01*
X160547997Y-102201202D01*
X160509444Y-102204999D01*
X138348553Y-102204999D01*
X138310000Y-102201202D01*
X138271447Y-102204999D01*
X138271440Y-102204999D01*
X138156114Y-102216358D01*
X138008141Y-102261245D01*
X137871768Y-102334137D01*
X137811560Y-102383549D01*
X137782188Y-102407654D01*
X137782185Y-102407657D01*
X137752237Y-102432235D01*
X137727659Y-102462184D01*
X137454396Y-102735446D01*
X137301335Y-102705000D01*
X137018665Y-102705000D01*
X136741426Y-102760147D01*
X136480273Y-102868320D01*
X136319695Y-102975614D01*
X136297817Y-102957659D01*
X134235000Y-100894843D01*
X134235000Y-100868061D01*
X134195226Y-100668102D01*
X134117205Y-100479744D01*
X134003937Y-100310226D01*
X133859774Y-100166063D01*
X133690256Y-100052795D01*
X133501898Y-99974774D01*
X133301939Y-99935000D01*
X133098061Y-99935000D01*
X132898102Y-99974774D01*
X132709744Y-100052795D01*
X132540226Y-100166063D01*
X132396063Y-100310226D01*
X132282795Y-100479744D01*
X132204774Y-100668102D01*
X132165000Y-100868061D01*
X129545000Y-100868061D01*
X129545000Y-98723330D01*
X133327278Y-98723330D01*
X133417147Y-98969123D01*
X133553241Y-99192660D01*
X133730330Y-99385351D01*
X133941608Y-99539792D01*
X134178956Y-99650047D01*
X134286671Y-99682716D01*
X134493000Y-99559374D01*
X134493000Y-98517000D01*
X134747000Y-98517000D01*
X134747000Y-99559374D01*
X134953329Y-99682716D01*
X135061044Y-99650047D01*
X135298392Y-99539792D01*
X135509670Y-99385351D01*
X135686759Y-99192660D01*
X135822853Y-98969123D01*
X135912722Y-98723330D01*
X137772278Y-98723330D01*
X137862147Y-98969123D01*
X137998241Y-99192660D01*
X138175330Y-99385351D01*
X138386608Y-99539792D01*
X138623956Y-99650047D01*
X138731671Y-99682716D01*
X138938000Y-99559374D01*
X138938000Y-98517000D01*
X139192000Y-98517000D01*
X139192000Y-99559374D01*
X139398329Y-99682716D01*
X139506044Y-99650047D01*
X139743392Y-99539792D01*
X139954670Y-99385351D01*
X140131759Y-99192660D01*
X140267853Y-98969123D01*
X140337612Y-98778330D01*
X142217278Y-98778330D01*
X142307147Y-99024123D01*
X142443241Y-99247660D01*
X142620330Y-99440351D01*
X142831608Y-99594792D01*
X143068956Y-99705047D01*
X143176671Y-99737716D01*
X143383000Y-99614374D01*
X143383000Y-98572000D01*
X143637000Y-98572000D01*
X143637000Y-99614374D01*
X143843329Y-99737716D01*
X143951044Y-99705047D01*
X144188392Y-99594792D01*
X144399670Y-99440351D01*
X144576759Y-99247660D01*
X144712853Y-99024123D01*
X144802722Y-98778330D01*
X146662278Y-98778330D01*
X146752147Y-99024123D01*
X146888241Y-99247660D01*
X147065330Y-99440351D01*
X147276608Y-99594792D01*
X147513956Y-99705047D01*
X147621671Y-99737716D01*
X147828000Y-99614374D01*
X147828000Y-98572000D01*
X148082000Y-98572000D01*
X148082000Y-99614374D01*
X148288329Y-99737716D01*
X148396044Y-99705047D01*
X148633392Y-99594792D01*
X148844670Y-99440351D01*
X149021759Y-99247660D01*
X149157853Y-99024123D01*
X149247722Y-98778330D01*
X151107278Y-98778330D01*
X151197147Y-99024123D01*
X151333241Y-99247660D01*
X151510330Y-99440351D01*
X151721608Y-99594792D01*
X151958956Y-99705047D01*
X152066671Y-99737716D01*
X152273000Y-99614374D01*
X152273000Y-98572000D01*
X152527000Y-98572000D01*
X152527000Y-99614374D01*
X152733329Y-99737716D01*
X152841044Y-99705047D01*
X153078392Y-99594792D01*
X153289670Y-99440351D01*
X153466759Y-99247660D01*
X153602853Y-99024123D01*
X153692722Y-98778330D01*
X155552278Y-98778330D01*
X155642147Y-99024123D01*
X155778241Y-99247660D01*
X155955330Y-99440351D01*
X156166608Y-99594792D01*
X156403956Y-99705047D01*
X156511671Y-99737716D01*
X156718000Y-99614374D01*
X156718000Y-98572000D01*
X156972000Y-98572000D01*
X156972000Y-99614374D01*
X157178329Y-99737716D01*
X157286044Y-99705047D01*
X157523392Y-99594792D01*
X157734670Y-99440351D01*
X157911759Y-99247660D01*
X158047853Y-99024123D01*
X158137722Y-98778330D01*
X159997278Y-98778330D01*
X160087147Y-99024123D01*
X160223241Y-99247660D01*
X160400330Y-99440351D01*
X160611608Y-99594792D01*
X160848956Y-99705047D01*
X160956671Y-99737716D01*
X161163000Y-99614374D01*
X161163000Y-98572000D01*
X161417000Y-98572000D01*
X161417000Y-99614374D01*
X161623329Y-99737716D01*
X161731044Y-99705047D01*
X161968392Y-99594792D01*
X162179670Y-99440351D01*
X162356759Y-99247660D01*
X162492853Y-99024123D01*
X162582722Y-98778330D01*
X162460201Y-98572000D01*
X161417000Y-98572000D01*
X161163000Y-98572000D01*
X160119799Y-98572000D01*
X159997278Y-98778330D01*
X158137722Y-98778330D01*
X158015201Y-98572000D01*
X156972000Y-98572000D01*
X156718000Y-98572000D01*
X155674799Y-98572000D01*
X155552278Y-98778330D01*
X153692722Y-98778330D01*
X153570201Y-98572000D01*
X152527000Y-98572000D01*
X152273000Y-98572000D01*
X151229799Y-98572000D01*
X151107278Y-98778330D01*
X149247722Y-98778330D01*
X149125201Y-98572000D01*
X148082000Y-98572000D01*
X147828000Y-98572000D01*
X146784799Y-98572000D01*
X146662278Y-98778330D01*
X144802722Y-98778330D01*
X144680201Y-98572000D01*
X143637000Y-98572000D01*
X143383000Y-98572000D01*
X142339799Y-98572000D01*
X142217278Y-98778330D01*
X140337612Y-98778330D01*
X140357722Y-98723330D01*
X140235201Y-98517000D01*
X139192000Y-98517000D01*
X138938000Y-98517000D01*
X137894799Y-98517000D01*
X137772278Y-98723330D01*
X135912722Y-98723330D01*
X135790201Y-98517000D01*
X134747000Y-98517000D01*
X134493000Y-98517000D01*
X133449799Y-98517000D01*
X133327278Y-98723330D01*
X129545000Y-98723330D01*
X129545000Y-98056670D01*
X133327278Y-98056670D01*
X133449799Y-98263000D01*
X134493000Y-98263000D01*
X134493000Y-97220626D01*
X134747000Y-97220626D01*
X134747000Y-98263000D01*
X135790201Y-98263000D01*
X135912722Y-98056670D01*
X137772278Y-98056670D01*
X137894799Y-98263000D01*
X138938000Y-98263000D01*
X138938000Y-97220626D01*
X139192000Y-97220626D01*
X139192000Y-98263000D01*
X140235201Y-98263000D01*
X140325062Y-98111670D01*
X142217278Y-98111670D01*
X142339799Y-98318000D01*
X143383000Y-98318000D01*
X143383000Y-97275626D01*
X143637000Y-97275626D01*
X143637000Y-98318000D01*
X144680201Y-98318000D01*
X144802722Y-98111670D01*
X146662278Y-98111670D01*
X146784799Y-98318000D01*
X147828000Y-98318000D01*
X147828000Y-97275626D01*
X148082000Y-97275626D01*
X148082000Y-98318000D01*
X149125201Y-98318000D01*
X149247722Y-98111670D01*
X151107278Y-98111670D01*
X151229799Y-98318000D01*
X152273000Y-98318000D01*
X152273000Y-97275626D01*
X152527000Y-97275626D01*
X152527000Y-98318000D01*
X153570201Y-98318000D01*
X153692722Y-98111670D01*
X155552278Y-98111670D01*
X155674799Y-98318000D01*
X156718000Y-98318000D01*
X156718000Y-97275626D01*
X156972000Y-97275626D01*
X156972000Y-98318000D01*
X158015201Y-98318000D01*
X158137722Y-98111670D01*
X159997278Y-98111670D01*
X160119799Y-98318000D01*
X161163000Y-98318000D01*
X161163000Y-97275626D01*
X161417000Y-97275626D01*
X161417000Y-98318000D01*
X162460201Y-98318000D01*
X162582722Y-98111670D01*
X162492853Y-97865877D01*
X162356759Y-97642340D01*
X162179670Y-97449649D01*
X161968392Y-97295208D01*
X161731044Y-97184953D01*
X161623329Y-97152284D01*
X161417000Y-97275626D01*
X161163000Y-97275626D01*
X160956671Y-97152284D01*
X160848956Y-97184953D01*
X160611608Y-97295208D01*
X160400330Y-97449649D01*
X160223241Y-97642340D01*
X160087147Y-97865877D01*
X159997278Y-98111670D01*
X158137722Y-98111670D01*
X158047853Y-97865877D01*
X157911759Y-97642340D01*
X157734670Y-97449649D01*
X157523392Y-97295208D01*
X157286044Y-97184953D01*
X157178329Y-97152284D01*
X156972000Y-97275626D01*
X156718000Y-97275626D01*
X156511671Y-97152284D01*
X156403956Y-97184953D01*
X156166608Y-97295208D01*
X155955330Y-97449649D01*
X155778241Y-97642340D01*
X155642147Y-97865877D01*
X155552278Y-98111670D01*
X153692722Y-98111670D01*
X153602853Y-97865877D01*
X153466759Y-97642340D01*
X153289670Y-97449649D01*
X153078392Y-97295208D01*
X152841044Y-97184953D01*
X152733329Y-97152284D01*
X152527000Y-97275626D01*
X152273000Y-97275626D01*
X152066671Y-97152284D01*
X151958956Y-97184953D01*
X151721608Y-97295208D01*
X151510330Y-97449649D01*
X151333241Y-97642340D01*
X151197147Y-97865877D01*
X151107278Y-98111670D01*
X149247722Y-98111670D01*
X149157853Y-97865877D01*
X149021759Y-97642340D01*
X148844670Y-97449649D01*
X148633392Y-97295208D01*
X148396044Y-97184953D01*
X148288329Y-97152284D01*
X148082000Y-97275626D01*
X147828000Y-97275626D01*
X147621671Y-97152284D01*
X147513956Y-97184953D01*
X147276608Y-97295208D01*
X147065330Y-97449649D01*
X146888241Y-97642340D01*
X146752147Y-97865877D01*
X146662278Y-98111670D01*
X144802722Y-98111670D01*
X144712853Y-97865877D01*
X144576759Y-97642340D01*
X144399670Y-97449649D01*
X144188392Y-97295208D01*
X143951044Y-97184953D01*
X143843329Y-97152284D01*
X143637000Y-97275626D01*
X143383000Y-97275626D01*
X143176671Y-97152284D01*
X143068956Y-97184953D01*
X142831608Y-97295208D01*
X142620330Y-97449649D01*
X142443241Y-97642340D01*
X142307147Y-97865877D01*
X142217278Y-98111670D01*
X140325062Y-98111670D01*
X140357722Y-98056670D01*
X140267853Y-97810877D01*
X140131759Y-97587340D01*
X139954670Y-97394649D01*
X139743392Y-97240208D01*
X139506044Y-97129953D01*
X139398329Y-97097284D01*
X139192000Y-97220626D01*
X138938000Y-97220626D01*
X138731671Y-97097284D01*
X138623956Y-97129953D01*
X138386608Y-97240208D01*
X138175330Y-97394649D01*
X137998241Y-97587340D01*
X137862147Y-97810877D01*
X137772278Y-98056670D01*
X135912722Y-98056670D01*
X135822853Y-97810877D01*
X135686759Y-97587340D01*
X135509670Y-97394649D01*
X135298392Y-97240208D01*
X135061044Y-97129953D01*
X134953329Y-97097284D01*
X134747000Y-97220626D01*
X134493000Y-97220626D01*
X134286671Y-97097284D01*
X134178956Y-97129953D01*
X133941608Y-97240208D01*
X133730330Y-97394649D01*
X133553241Y-97587340D01*
X133417147Y-97810877D01*
X133327278Y-98056670D01*
X129545000Y-98056670D01*
X129545000Y-89532277D01*
X131310538Y-91297816D01*
X131335116Y-91327764D01*
X131365064Y-91352342D01*
X131365067Y-91352345D01*
X131394439Y-91376450D01*
X131454647Y-91425862D01*
X131591020Y-91498754D01*
X131704552Y-91533194D01*
X131738992Y-91543641D01*
X131753370Y-91545057D01*
X131854319Y-91555000D01*
X131854326Y-91555000D01*
X131892879Y-91558797D01*
X131931432Y-91555000D01*
X133538930Y-91555000D01*
X133583038Y-91621013D01*
X133768987Y-91806962D01*
X133987641Y-91953061D01*
X134230595Y-92053696D01*
X134488514Y-92105000D01*
X134751486Y-92105000D01*
X135009405Y-92053696D01*
X135252359Y-91953061D01*
X135471013Y-91806962D01*
X135656962Y-91621013D01*
X135803061Y-91402359D01*
X135903696Y-91159405D01*
X135955000Y-90901486D01*
X135955000Y-90638514D01*
X135903696Y-90380595D01*
X135803061Y-90137641D01*
X135656962Y-89918987D01*
X135471013Y-89733038D01*
X135252359Y-89586939D01*
X135175252Y-89555000D01*
X136739843Y-89555000D01*
X137745489Y-90560647D01*
X137730000Y-90638514D01*
X137730000Y-90901486D01*
X137781304Y-91159405D01*
X137881939Y-91402359D01*
X138028038Y-91621013D01*
X138213987Y-91806962D01*
X138432641Y-91953061D01*
X138675595Y-92053696D01*
X138933514Y-92105000D01*
X139196486Y-92105000D01*
X139454405Y-92053696D01*
X139697359Y-91953061D01*
X139916013Y-91806962D01*
X140101962Y-91621013D01*
X140248061Y-91402359D01*
X140348696Y-91159405D01*
X140400000Y-90901486D01*
X140400000Y-90638514D01*
X140348696Y-90380595D01*
X140248061Y-90137641D01*
X140101962Y-89918987D01*
X139916013Y-89733038D01*
X139697359Y-89586939D01*
X139454405Y-89486304D01*
X139196486Y-89435000D01*
X138933514Y-89435000D01*
X138855647Y-89450489D01*
X138160157Y-88755000D01*
X140329843Y-88755000D01*
X142190489Y-90615646D01*
X142175000Y-90693514D01*
X142175000Y-90956486D01*
X142226304Y-91214405D01*
X142326939Y-91457359D01*
X142473038Y-91676013D01*
X142658987Y-91861962D01*
X142877641Y-92008061D01*
X143120595Y-92108696D01*
X143378514Y-92160000D01*
X143641486Y-92160000D01*
X143899405Y-92108696D01*
X144142359Y-92008061D01*
X144361013Y-91861962D01*
X144546962Y-91676013D01*
X144693061Y-91457359D01*
X144793696Y-91214405D01*
X144845000Y-90956486D01*
X144845000Y-90693514D01*
X144793696Y-90435595D01*
X144693061Y-90192641D01*
X144546962Y-89973987D01*
X144361013Y-89788038D01*
X144142359Y-89641939D01*
X143899405Y-89541304D01*
X143641486Y-89490000D01*
X143378514Y-89490000D01*
X143300646Y-89505489D01*
X141237347Y-87442190D01*
X141212764Y-87412236D01*
X141093233Y-87314138D01*
X140956860Y-87241246D01*
X140808887Y-87196359D01*
X140693561Y-87185000D01*
X140693553Y-87185000D01*
X140655000Y-87181203D01*
X140616447Y-87185000D01*
X136125158Y-87185000D01*
X134293905Y-85353748D01*
X134374482Y-85345812D01*
X134494180Y-85309502D01*
X134604494Y-85250537D01*
X134701185Y-85171185D01*
X134780537Y-85074494D01*
X134839502Y-84964180D01*
X134845056Y-84945873D01*
X134911495Y-85012312D01*
X135162905Y-85180299D01*
X135442257Y-85296011D01*
X135738816Y-85355000D01*
X136041184Y-85355000D01*
X136337743Y-85296011D01*
X136617095Y-85180299D01*
X136868505Y-85012312D01*
X137082312Y-84798505D01*
X137250299Y-84547095D01*
X137366011Y-84267743D01*
X137425000Y-83971184D01*
X137425000Y-83668816D01*
X137366011Y-83372257D01*
X137250299Y-83092905D01*
X137082312Y-82841495D01*
X136868505Y-82627688D01*
X136617095Y-82459701D01*
X136337743Y-82343989D01*
X136041184Y-82285000D01*
X135738816Y-82285000D01*
X135442257Y-82343989D01*
X135162905Y-82459701D01*
X134911495Y-82627688D01*
X134845056Y-82694127D01*
X134839502Y-82675820D01*
X134780537Y-82565506D01*
X134701185Y-82468815D01*
X134604494Y-82389463D01*
X134494180Y-82330498D01*
X134374482Y-82294188D01*
X134250000Y-82281928D01*
X132450000Y-82281928D01*
X132325518Y-82294188D01*
X132205820Y-82330498D01*
X132095506Y-82389463D01*
X131998815Y-82468815D01*
X131919463Y-82565506D01*
X131860498Y-82675820D01*
X131824188Y-82795518D01*
X131811928Y-82920000D01*
X131811928Y-84720000D01*
X131824188Y-84844482D01*
X131860498Y-84964180D01*
X131919463Y-85074494D01*
X131998815Y-85171185D01*
X132095506Y-85250537D01*
X132205820Y-85309502D01*
X132325518Y-85345812D01*
X132450000Y-85358072D01*
X132565001Y-85358072D01*
X132565001Y-85481438D01*
X132561203Y-85520000D01*
X132576359Y-85673886D01*
X132621246Y-85821859D01*
X132621247Y-85821860D01*
X132694139Y-85958233D01*
X132733971Y-86006768D01*
X132767655Y-86047812D01*
X132767659Y-86047816D01*
X132792237Y-86077764D01*
X132822185Y-86102342D01*
X134704842Y-87985000D01*
X131385000Y-87985000D01*
X131385000Y-74199957D01*
X132926885Y-72658072D01*
X134254800Y-72658072D01*
X134379282Y-72645812D01*
X134498980Y-72609502D01*
X134609294Y-72550537D01*
X134705985Y-72471185D01*
X134785337Y-72374494D01*
X134844302Y-72264180D01*
X134849856Y-72245873D01*
X134916295Y-72312312D01*
X135167705Y-72480299D01*
X135447057Y-72596011D01*
X135743616Y-72655000D01*
X136045984Y-72655000D01*
X136342543Y-72596011D01*
X136621895Y-72480299D01*
X136873305Y-72312312D01*
X137087112Y-72098505D01*
X137255099Y-71847095D01*
X137370811Y-71567743D01*
X137429800Y-71271184D01*
X137429800Y-70968816D01*
X137370811Y-70672257D01*
X137255099Y-70392905D01*
X137139568Y-70220000D01*
X145146928Y-70220000D01*
X145146928Y-72020000D01*
X145159188Y-72144482D01*
X145195498Y-72264180D01*
X145254463Y-72374494D01*
X145333815Y-72471185D01*
X145430506Y-72550537D01*
X145540820Y-72609502D01*
X145660518Y-72645812D01*
X145785000Y-72658072D01*
X145900000Y-72658072D01*
X145900001Y-89516437D01*
X145896203Y-89555000D01*
X145911359Y-89708886D01*
X145956246Y-89856859D01*
X145956247Y-89856860D01*
X146029139Y-89993233D01*
X146068543Y-90041246D01*
X146102655Y-90082812D01*
X146102659Y-90082816D01*
X146127237Y-90112764D01*
X146157185Y-90137342D01*
X146635489Y-90615646D01*
X146620000Y-90693514D01*
X146620000Y-90956486D01*
X146671304Y-91214405D01*
X146771939Y-91457359D01*
X146918038Y-91676013D01*
X147103987Y-91861962D01*
X147322641Y-92008061D01*
X147565595Y-92108696D01*
X147823514Y-92160000D01*
X148086486Y-92160000D01*
X148344405Y-92108696D01*
X148587359Y-92008061D01*
X148806013Y-91861962D01*
X148991962Y-91676013D01*
X149138061Y-91457359D01*
X149238696Y-91214405D01*
X149290000Y-90956486D01*
X149290000Y-90693514D01*
X151065000Y-90693514D01*
X151065000Y-90956486D01*
X151116304Y-91214405D01*
X151216939Y-91457359D01*
X151363038Y-91676013D01*
X151548987Y-91861962D01*
X151767641Y-92008061D01*
X152010595Y-92108696D01*
X152268514Y-92160000D01*
X152531486Y-92160000D01*
X152789405Y-92108696D01*
X153032359Y-92008061D01*
X153251013Y-91861962D01*
X153436962Y-91676013D01*
X153583061Y-91457359D01*
X153683696Y-91214405D01*
X153735000Y-90956486D01*
X153735000Y-90693514D01*
X155510000Y-90693514D01*
X155510000Y-90956486D01*
X155561304Y-91214405D01*
X155661939Y-91457359D01*
X155808038Y-91676013D01*
X155993987Y-91861962D01*
X156212641Y-92008061D01*
X156455595Y-92108696D01*
X156713514Y-92160000D01*
X156976486Y-92160000D01*
X157234405Y-92108696D01*
X157477359Y-92008061D01*
X157696013Y-91861962D01*
X157881962Y-91676013D01*
X158028061Y-91457359D01*
X158128696Y-91214405D01*
X158180000Y-90956486D01*
X158180000Y-90693514D01*
X158128696Y-90435595D01*
X158028061Y-90192641D01*
X157881962Y-89973987D01*
X157696013Y-89788038D01*
X157630000Y-89743930D01*
X157630000Y-73954957D01*
X158926886Y-72658072D01*
X160254800Y-72658072D01*
X160379282Y-72645812D01*
X160498980Y-72609502D01*
X160609294Y-72550537D01*
X160705985Y-72471185D01*
X160785337Y-72374494D01*
X160844302Y-72264180D01*
X160849856Y-72245873D01*
X160916295Y-72312312D01*
X161167705Y-72480299D01*
X161447057Y-72596011D01*
X161743616Y-72655000D01*
X162045984Y-72655000D01*
X162342543Y-72596011D01*
X162621895Y-72480299D01*
X162873305Y-72312312D01*
X163087112Y-72098505D01*
X163255099Y-71847095D01*
X163370811Y-71567743D01*
X163429800Y-71271184D01*
X163429800Y-70968816D01*
X163370811Y-70672257D01*
X163255099Y-70392905D01*
X163087112Y-70141495D01*
X162873305Y-69927688D01*
X162621895Y-69759701D01*
X162342543Y-69643989D01*
X162045984Y-69585000D01*
X161743616Y-69585000D01*
X161447057Y-69643989D01*
X161167705Y-69759701D01*
X160916295Y-69927688D01*
X160849856Y-69994127D01*
X160844302Y-69975820D01*
X160785337Y-69865506D01*
X160705985Y-69768815D01*
X160609294Y-69689463D01*
X160498980Y-69630498D01*
X160379282Y-69594188D01*
X160254800Y-69581928D01*
X158454800Y-69581928D01*
X158330318Y-69594188D01*
X158210620Y-69630498D01*
X158100306Y-69689463D01*
X158003615Y-69768815D01*
X157924263Y-69865506D01*
X157865298Y-69975820D01*
X157828988Y-70095518D01*
X157816728Y-70220000D01*
X157816728Y-71547914D01*
X156317190Y-73047453D01*
X156287236Y-73072036D01*
X156189138Y-73191568D01*
X156116246Y-73327941D01*
X156071359Y-73475914D01*
X156060000Y-73591240D01*
X156060000Y-73591247D01*
X156056203Y-73629800D01*
X156060000Y-73668353D01*
X156060001Y-89743929D01*
X155993987Y-89788038D01*
X155808038Y-89973987D01*
X155661939Y-90192641D01*
X155561304Y-90435595D01*
X155510000Y-90693514D01*
X153735000Y-90693514D01*
X153683696Y-90435595D01*
X153583061Y-90192641D01*
X153436962Y-89973987D01*
X153251013Y-89788038D01*
X153185000Y-89743930D01*
X153185000Y-62095157D01*
X156075158Y-59205000D01*
X157816728Y-59205000D01*
X157816728Y-59320000D01*
X157828988Y-59444482D01*
X157865298Y-59564180D01*
X157924263Y-59674494D01*
X158003615Y-59771185D01*
X158100306Y-59850537D01*
X158210620Y-59909502D01*
X158330318Y-59945812D01*
X158454800Y-59958072D01*
X160254800Y-59958072D01*
X160379282Y-59945812D01*
X160498980Y-59909502D01*
X160609294Y-59850537D01*
X160705985Y-59771185D01*
X160785337Y-59674494D01*
X160844302Y-59564180D01*
X160849856Y-59545873D01*
X160916295Y-59612312D01*
X161167705Y-59780299D01*
X161447057Y-59896011D01*
X161743616Y-59955000D01*
X162045984Y-59955000D01*
X162342543Y-59896011D01*
X162621895Y-59780299D01*
X162873305Y-59612312D01*
X163087112Y-59398505D01*
X163255099Y-59147095D01*
X163370811Y-58867743D01*
X163429800Y-58571184D01*
X163429800Y-58268816D01*
X163370811Y-57972257D01*
X163255099Y-57692905D01*
X163087112Y-57441495D01*
X162873305Y-57227688D01*
X162621895Y-57059701D01*
X162342543Y-56943989D01*
X162045984Y-56885000D01*
X161743616Y-56885000D01*
X161447057Y-56943989D01*
X161167705Y-57059701D01*
X160916295Y-57227688D01*
X160849856Y-57294127D01*
X160844302Y-57275820D01*
X160785337Y-57165506D01*
X160705985Y-57068815D01*
X160609294Y-56989463D01*
X160498980Y-56930498D01*
X160379282Y-56894188D01*
X160254800Y-56881928D01*
X158454800Y-56881928D01*
X158330318Y-56894188D01*
X158210620Y-56930498D01*
X158100306Y-56989463D01*
X158003615Y-57068815D01*
X157924263Y-57165506D01*
X157865298Y-57275820D01*
X157828988Y-57395518D01*
X157816728Y-57520000D01*
X157816728Y-57635000D01*
X155788552Y-57635000D01*
X155749999Y-57631203D01*
X155711446Y-57635000D01*
X155711439Y-57635000D01*
X155610490Y-57644943D01*
X155596112Y-57646359D01*
X155561672Y-57656806D01*
X155448140Y-57691246D01*
X155311767Y-57764138D01*
X155251559Y-57813550D01*
X155222187Y-57837655D01*
X155222184Y-57837658D01*
X155192236Y-57862236D01*
X155167658Y-57892184D01*
X151872190Y-61187653D01*
X151842236Y-61212236D01*
X151744138Y-61331768D01*
X151671246Y-61468141D01*
X151626359Y-61616114D01*
X151615000Y-61731440D01*
X151615000Y-61731447D01*
X151611203Y-61770000D01*
X151615000Y-61808553D01*
X151615001Y-89743929D01*
X151548987Y-89788038D01*
X151363038Y-89973987D01*
X151216939Y-90192641D01*
X151116304Y-90435595D01*
X151065000Y-90693514D01*
X149290000Y-90693514D01*
X149238696Y-90435595D01*
X149138061Y-90192641D01*
X148991962Y-89973987D01*
X148806013Y-89788038D01*
X148587359Y-89641939D01*
X148344405Y-89541304D01*
X148086486Y-89490000D01*
X147823514Y-89490000D01*
X147745646Y-89505489D01*
X147470000Y-89229843D01*
X147470000Y-72658072D01*
X147585000Y-72658072D01*
X147709482Y-72645812D01*
X147829180Y-72609502D01*
X147939494Y-72550537D01*
X148036185Y-72471185D01*
X148115537Y-72374494D01*
X148174502Y-72264180D01*
X148180056Y-72245873D01*
X148246495Y-72312312D01*
X148497905Y-72480299D01*
X148777257Y-72596011D01*
X149073816Y-72655000D01*
X149376184Y-72655000D01*
X149672743Y-72596011D01*
X149952095Y-72480299D01*
X150203505Y-72312312D01*
X150417312Y-72098505D01*
X150585299Y-71847095D01*
X150701011Y-71567743D01*
X150760000Y-71271184D01*
X150760000Y-70968816D01*
X150701011Y-70672257D01*
X150585299Y-70392905D01*
X150417312Y-70141495D01*
X150203505Y-69927688D01*
X149952095Y-69759701D01*
X149672743Y-69643989D01*
X149376184Y-69585000D01*
X149073816Y-69585000D01*
X148777257Y-69643989D01*
X148497905Y-69759701D01*
X148246495Y-69927688D01*
X148180056Y-69994127D01*
X148174502Y-69975820D01*
X148115537Y-69865506D01*
X148036185Y-69768815D01*
X147939494Y-69689463D01*
X147829180Y-69630498D01*
X147709482Y-69594188D01*
X147585000Y-69581928D01*
X145785000Y-69581928D01*
X145660518Y-69594188D01*
X145540820Y-69630498D01*
X145430506Y-69689463D01*
X145333815Y-69768815D01*
X145254463Y-69865506D01*
X145195498Y-69975820D01*
X145159188Y-70095518D01*
X145146928Y-70220000D01*
X137139568Y-70220000D01*
X137087112Y-70141495D01*
X136873305Y-69927688D01*
X136621895Y-69759701D01*
X136342543Y-69643989D01*
X136045984Y-69585000D01*
X135743616Y-69585000D01*
X135447057Y-69643989D01*
X135167705Y-69759701D01*
X134916295Y-69927688D01*
X134849856Y-69994127D01*
X134844302Y-69975820D01*
X134785337Y-69865506D01*
X134705985Y-69768815D01*
X134609294Y-69689463D01*
X134498980Y-69630498D01*
X134379282Y-69594188D01*
X134254800Y-69581928D01*
X132454800Y-69581928D01*
X132330318Y-69594188D01*
X132210620Y-69630498D01*
X132100306Y-69689463D01*
X132003615Y-69768815D01*
X131924263Y-69865506D01*
X131865298Y-69975820D01*
X131828988Y-70095518D01*
X131816728Y-70220000D01*
X131816728Y-71547915D01*
X130585000Y-72779643D01*
X130585000Y-60495157D01*
X131811928Y-59268229D01*
X131811928Y-59320000D01*
X131824188Y-59444482D01*
X131860498Y-59564180D01*
X131919463Y-59674494D01*
X131998815Y-59771185D01*
X132095506Y-59850537D01*
X132205820Y-59909502D01*
X132325518Y-59945812D01*
X132450000Y-59958072D01*
X134250000Y-59958072D01*
X134374482Y-59945812D01*
X134494180Y-59909502D01*
X134604494Y-59850537D01*
X134701185Y-59771185D01*
X134780537Y-59674494D01*
X134839502Y-59564180D01*
X134845056Y-59545873D01*
X134911495Y-59612312D01*
X135162905Y-59780299D01*
X135442257Y-59896011D01*
X135738816Y-59955000D01*
X136041184Y-59955000D01*
X136337743Y-59896011D01*
X136617095Y-59780299D01*
X136868505Y-59612312D01*
X137082312Y-59398505D01*
X137250299Y-59147095D01*
X137366011Y-58867743D01*
X137425000Y-58571184D01*
X137425000Y-58268816D01*
X137366011Y-57972257D01*
X137250299Y-57692905D01*
X137082312Y-57441495D01*
X136868505Y-57227688D01*
X136617095Y-57059701D01*
X136337743Y-56943989D01*
X136041184Y-56885000D01*
X135738816Y-56885000D01*
X135442257Y-56943989D01*
X135162905Y-57059701D01*
X134911495Y-57227688D01*
X134845056Y-57294127D01*
X134839502Y-57275820D01*
X134780537Y-57165506D01*
X134701185Y-57068815D01*
X134604494Y-56989463D01*
X134494180Y-56930498D01*
X134374482Y-56894188D01*
X134250000Y-56881928D01*
X132450000Y-56881928D01*
X132325518Y-56894188D01*
X132205820Y-56930498D01*
X132095506Y-56989463D01*
X131998815Y-57068815D01*
X131919463Y-57165506D01*
X131860498Y-57275820D01*
X131824188Y-57395518D01*
X131811928Y-57520000D01*
X131811928Y-57635000D01*
X131588556Y-57635000D01*
X131550000Y-57631203D01*
X131511444Y-57635000D01*
X131511439Y-57635000D01*
X131471026Y-57638980D01*
X131396113Y-57646358D01*
X131248140Y-57691246D01*
X131111767Y-57764138D01*
X130992236Y-57862236D01*
X130967653Y-57892190D01*
X129545000Y-59314843D01*
X129545000Y-53315000D01*
X166275000Y-53315000D01*
X166275001Y-148465000D01*
%TA.AperFunction,Conductor*%
D24*
G36*
X166275001Y-148465000D02*
G01*
X129545000Y-148465000D01*
X129545000Y-141620000D01*
X139011928Y-141620000D01*
X139011928Y-146720000D01*
X139024188Y-146844482D01*
X139060498Y-146964180D01*
X139119463Y-147074494D01*
X139198815Y-147171185D01*
X139295506Y-147250537D01*
X139405820Y-147309502D01*
X139525518Y-147345812D01*
X139650000Y-147358072D01*
X144750000Y-147358072D01*
X144874482Y-147345812D01*
X144994180Y-147309502D01*
X145104494Y-147250537D01*
X145201185Y-147171185D01*
X145280537Y-147074494D01*
X145339502Y-146964180D01*
X145375812Y-146844482D01*
X145388072Y-146720000D01*
X145388072Y-143703393D01*
X155531772Y-143703393D01*
X155627536Y-143967794D01*
X155917151Y-144108684D01*
X156228688Y-144190364D01*
X156550175Y-144209698D01*
X156869255Y-144165941D01*
X157173668Y-144060775D01*
X157347624Y-143967794D01*
X157443388Y-143703393D01*
X162031772Y-143703393D01*
X162127536Y-143967794D01*
X162417151Y-144108684D01*
X162728688Y-144190364D01*
X163050175Y-144209698D01*
X163369255Y-144165941D01*
X163673668Y-144060775D01*
X163847624Y-143967794D01*
X163943388Y-143703393D01*
X162987580Y-142747585D01*
X162031772Y-143703393D01*
X157443388Y-143703393D01*
X156487580Y-142747585D01*
X155531772Y-143703393D01*
X145388072Y-143703393D01*
X145388072Y-142630575D01*
X154845862Y-142630575D01*
X154889619Y-142949655D01*
X154994785Y-143254068D01*
X155087766Y-143428024D01*
X155352167Y-143523788D01*
X156307975Y-142567980D01*
X156667185Y-142567980D01*
X157622993Y-143523788D01*
X157887394Y-143428024D01*
X158028284Y-143138409D01*
X158109964Y-142826872D01*
X158121769Y-142630575D01*
X161345862Y-142630575D01*
X161389619Y-142949655D01*
X161494785Y-143254068D01*
X161587766Y-143428024D01*
X161852167Y-143523788D01*
X162807975Y-142567980D01*
X163167185Y-142567980D01*
X164122993Y-143523788D01*
X164387394Y-143428024D01*
X164528284Y-143138409D01*
X164609964Y-142826872D01*
X164629298Y-142505385D01*
X164585541Y-142186305D01*
X164480375Y-141881892D01*
X164387394Y-141707936D01*
X164122993Y-141612172D01*
X163167185Y-142567980D01*
X162807975Y-142567980D01*
X161852167Y-141612172D01*
X161587766Y-141707936D01*
X161446876Y-141997551D01*
X161365196Y-142309088D01*
X161345862Y-142630575D01*
X158121769Y-142630575D01*
X158129298Y-142505385D01*
X158085541Y-142186305D01*
X157980375Y-141881892D01*
X157887394Y-141707936D01*
X157622993Y-141612172D01*
X156667185Y-142567980D01*
X156307975Y-142567980D01*
X155352167Y-141612172D01*
X155087766Y-141707936D01*
X154946876Y-141997551D01*
X154865196Y-142309088D01*
X154845862Y-142630575D01*
X145388072Y-142630575D01*
X145388072Y-141620000D01*
X145375812Y-141495518D01*
X145356717Y-141432567D01*
X155531772Y-141432567D01*
X156487580Y-142388375D01*
X157443388Y-141432567D01*
X162031772Y-141432567D01*
X162987580Y-142388375D01*
X163943388Y-141432567D01*
X163847624Y-141168166D01*
X163558009Y-141027276D01*
X163246472Y-140945596D01*
X162924985Y-140926262D01*
X162605905Y-140970019D01*
X162301492Y-141075185D01*
X162127536Y-141168166D01*
X162031772Y-141432567D01*
X157443388Y-141432567D01*
X157347624Y-141168166D01*
X157058009Y-141027276D01*
X156746472Y-140945596D01*
X156424985Y-140926262D01*
X156105905Y-140970019D01*
X155801492Y-141075185D01*
X155627536Y-141168166D01*
X155531772Y-141432567D01*
X145356717Y-141432567D01*
X145339502Y-141375820D01*
X145280537Y-141265506D01*
X145201185Y-141168815D01*
X145104494Y-141089463D01*
X144994180Y-141030498D01*
X144874482Y-140994188D01*
X144750000Y-140981928D01*
X139650000Y-140981928D01*
X139525518Y-140994188D01*
X139405820Y-141030498D01*
X139295506Y-141089463D01*
X139198815Y-141168815D01*
X139119463Y-141265506D01*
X139060498Y-141375820D01*
X139024188Y-141495518D01*
X139011928Y-141620000D01*
X129545000Y-141620000D01*
X129545000Y-138121830D01*
X135627775Y-138121830D01*
X136671590Y-139195270D01*
X138304451Y-140123449D01*
X140087016Y-140715238D01*
X141950782Y-140947894D01*
X143824125Y-140812478D01*
X145635054Y-140314192D01*
X147313976Y-139472186D01*
X147728410Y-139195270D01*
X148772225Y-138121830D01*
X142200000Y-131549605D01*
X135627775Y-138121830D01*
X129545000Y-138121830D01*
X129545000Y-131120782D01*
X132622106Y-131120782D01*
X132757522Y-132994125D01*
X133255808Y-134805054D01*
X134097814Y-136483976D01*
X134374730Y-136898410D01*
X135448170Y-137942225D01*
X142020395Y-131370000D01*
X142379605Y-131370000D01*
X148951830Y-137942225D01*
X150025270Y-136898410D01*
X150953449Y-135265549D01*
X151545238Y-133482984D01*
X151777894Y-131619218D01*
X151642478Y-129745875D01*
X151144192Y-127934946D01*
X150302186Y-126256024D01*
X150025270Y-125841590D01*
X148951830Y-124797775D01*
X142379605Y-131370000D01*
X142020395Y-131370000D01*
X135448170Y-124797775D01*
X134374730Y-125841590D01*
X133446551Y-127474451D01*
X132854762Y-129257016D01*
X132622106Y-131120782D01*
X129545000Y-131120782D01*
X129545000Y-124618170D01*
X135627775Y-124618170D01*
X142200000Y-131190395D01*
X148772225Y-124618170D01*
X147728410Y-123544730D01*
X146095549Y-122616551D01*
X144312984Y-122024762D01*
X142449218Y-121792106D01*
X140575875Y-121927522D01*
X138764946Y-122425808D01*
X137086024Y-123267814D01*
X136671590Y-123544730D01*
X135627775Y-124618170D01*
X129545000Y-124618170D01*
X129545000Y-111618665D01*
X130645000Y-111618665D01*
X130645000Y-111901335D01*
X130700147Y-112178574D01*
X130808320Y-112439727D01*
X130965363Y-112674759D01*
X131165241Y-112874637D01*
X131400273Y-113031680D01*
X131661426Y-113139853D01*
X131938665Y-113195000D01*
X132221335Y-113195000D01*
X132498574Y-113139853D01*
X132759727Y-113031680D01*
X132994759Y-112874637D01*
X133194637Y-112674759D01*
X133350000Y-112442241D01*
X133505363Y-112674759D01*
X133705241Y-112874637D01*
X133940273Y-113031680D01*
X134201426Y-113139853D01*
X134478665Y-113195000D01*
X134761335Y-113195000D01*
X135038574Y-113139853D01*
X135299727Y-113031680D01*
X135534759Y-112874637D01*
X135734637Y-112674759D01*
X135890000Y-112442241D01*
X136045363Y-112674759D01*
X136245241Y-112874637D01*
X136480273Y-113031680D01*
X136741426Y-113139853D01*
X137018665Y-113195000D01*
X137301335Y-113195000D01*
X137578574Y-113139853D01*
X137839727Y-113031680D01*
X138074759Y-112874637D01*
X138274637Y-112674759D01*
X138430000Y-112442241D01*
X138585363Y-112674759D01*
X138785241Y-112874637D01*
X139020273Y-113031680D01*
X139281426Y-113139853D01*
X139558665Y-113195000D01*
X139841335Y-113195000D01*
X140118574Y-113139853D01*
X140379727Y-113031680D01*
X140614759Y-112874637D01*
X140814637Y-112674759D01*
X140971680Y-112439727D01*
X140976067Y-112429135D01*
X141087615Y-112615131D01*
X141276586Y-112823519D01*
X141502580Y-112991037D01*
X141756913Y-113111246D01*
X141890961Y-113151904D01*
X142113000Y-113029915D01*
X142113000Y-111887000D01*
X142093000Y-111887000D01*
X142093000Y-111633000D01*
X142113000Y-111633000D01*
X142113000Y-110490085D01*
X141890961Y-110368096D01*
X141756913Y-110408754D01*
X141502580Y-110528963D01*
X141276586Y-110696481D01*
X141087615Y-110904869D01*
X140976067Y-111090865D01*
X140971680Y-111080273D01*
X140814637Y-110845241D01*
X140614759Y-110645363D01*
X140379727Y-110488320D01*
X140118574Y-110380147D01*
X139841335Y-110325000D01*
X139558665Y-110325000D01*
X139281426Y-110380147D01*
X139020273Y-110488320D01*
X138785241Y-110645363D01*
X138585363Y-110845241D01*
X138430000Y-111077759D01*
X138274637Y-110845241D01*
X138074759Y-110645363D01*
X137839727Y-110488320D01*
X137578574Y-110380147D01*
X137301335Y-110325000D01*
X137018665Y-110325000D01*
X136741426Y-110380147D01*
X136480273Y-110488320D01*
X136245241Y-110645363D01*
X136045363Y-110845241D01*
X135890000Y-111077759D01*
X135734637Y-110845241D01*
X135534759Y-110645363D01*
X135299727Y-110488320D01*
X135038574Y-110380147D01*
X134761335Y-110325000D01*
X134478665Y-110325000D01*
X134201426Y-110380147D01*
X133940273Y-110488320D01*
X133705241Y-110645363D01*
X133505363Y-110845241D01*
X133350000Y-111077759D01*
X133194637Y-110845241D01*
X132994759Y-110645363D01*
X132759727Y-110488320D01*
X132498574Y-110380147D01*
X132221335Y-110325000D01*
X131938665Y-110325000D01*
X131661426Y-110380147D01*
X131400273Y-110488320D01*
X131165241Y-110645363D01*
X130965363Y-110845241D01*
X130808320Y-111080273D01*
X130700147Y-111341426D01*
X130645000Y-111618665D01*
X129545000Y-111618665D01*
X129545000Y-104489040D01*
X130688091Y-104489040D01*
X130782930Y-104753881D01*
X130927615Y-104995131D01*
X131116586Y-105203519D01*
X131342580Y-105371037D01*
X131596913Y-105491246D01*
X131730961Y-105531904D01*
X131953000Y-105409915D01*
X131953000Y-104267000D01*
X130809376Y-104267000D01*
X130688091Y-104489040D01*
X129545000Y-104489040D01*
X129545000Y-103790960D01*
X130688091Y-103790960D01*
X130809376Y-104013000D01*
X131953000Y-104013000D01*
X131953000Y-102870085D01*
X131730961Y-102748096D01*
X131596913Y-102788754D01*
X131342580Y-102908963D01*
X131116586Y-103076481D01*
X130927615Y-103284869D01*
X130782930Y-103526119D01*
X130688091Y-103790960D01*
X129545000Y-103790960D01*
X129545000Y-100868061D01*
X132165000Y-100868061D01*
X132165000Y-101071939D01*
X132204774Y-101271898D01*
X132282795Y-101460256D01*
X132396063Y-101629774D01*
X132540226Y-101773937D01*
X132709744Y-101887205D01*
X132898102Y-101965226D01*
X133098061Y-102005000D01*
X133124843Y-102005000D01*
X133974136Y-102854294D01*
X133940273Y-102868320D01*
X133705241Y-103025363D01*
X133505363Y-103225241D01*
X133348320Y-103460273D01*
X133343933Y-103470865D01*
X133232385Y-103284869D01*
X133043414Y-103076481D01*
X132817420Y-102908963D01*
X132563087Y-102788754D01*
X132429039Y-102748096D01*
X132207000Y-102870085D01*
X132207000Y-104013000D01*
X132227000Y-104013000D01*
X132227000Y-104267000D01*
X132207000Y-104267000D01*
X132207000Y-105409915D01*
X132429039Y-105531904D01*
X132563087Y-105491246D01*
X132817420Y-105371037D01*
X133043414Y-105203519D01*
X133232385Y-104995131D01*
X133343933Y-104809135D01*
X133348320Y-104819727D01*
X133505363Y-105054759D01*
X133705241Y-105254637D01*
X133940273Y-105411680D01*
X134201426Y-105519853D01*
X134478665Y-105575000D01*
X134761335Y-105575000D01*
X135038574Y-105519853D01*
X135299727Y-105411680D01*
X135491429Y-105283589D01*
X136025656Y-105817816D01*
X136050235Y-105847765D01*
X136080183Y-105872343D01*
X136080186Y-105872346D01*
X136109558Y-105896451D01*
X136169766Y-105945863D01*
X136306139Y-106018755D01*
X136454111Y-106063642D01*
X136468489Y-106065058D01*
X136569438Y-106075001D01*
X136569445Y-106075001D01*
X136607998Y-106078798D01*
X136646551Y-106075001D01*
X140524844Y-106075001D01*
X144774842Y-110325000D01*
X144638665Y-110325000D01*
X144361426Y-110380147D01*
X144100273Y-110488320D01*
X143865241Y-110645363D01*
X143665363Y-110845241D01*
X143508320Y-111080273D01*
X143503933Y-111090865D01*
X143392385Y-110904869D01*
X143203414Y-110696481D01*
X142977420Y-110528963D01*
X142723087Y-110408754D01*
X142589039Y-110368096D01*
X142367000Y-110490085D01*
X142367000Y-111633000D01*
X142387000Y-111633000D01*
X142387000Y-111887000D01*
X142367000Y-111887000D01*
X142367000Y-113029915D01*
X142589039Y-113151904D01*
X142723087Y-113111246D01*
X142977420Y-112991037D01*
X143203414Y-112823519D01*
X143392385Y-112615131D01*
X143503933Y-112429135D01*
X143508320Y-112439727D01*
X143665363Y-112674759D01*
X143865241Y-112874637D01*
X144100273Y-113031680D01*
X144361426Y-113139853D01*
X144638665Y-113195000D01*
X144921335Y-113195000D01*
X145198574Y-113139853D01*
X145459727Y-113031680D01*
X145694759Y-112874637D01*
X145894637Y-112674759D01*
X146050000Y-112442241D01*
X146205363Y-112674759D01*
X146405241Y-112874637D01*
X146640273Y-113031680D01*
X146901426Y-113139853D01*
X147178665Y-113195000D01*
X147461335Y-113195000D01*
X147738574Y-113139853D01*
X147999727Y-113031680D01*
X148234759Y-112874637D01*
X148434637Y-112674759D01*
X148590000Y-112442241D01*
X148745363Y-112674759D01*
X148945241Y-112874637D01*
X149180273Y-113031680D01*
X149441426Y-113139853D01*
X149718665Y-113195000D01*
X150001335Y-113195000D01*
X150278574Y-113139853D01*
X150539727Y-113031680D01*
X150774759Y-112874637D01*
X150974637Y-112674759D01*
X151061339Y-112545000D01*
X154578661Y-112545000D01*
X154665363Y-112674759D01*
X154865241Y-112874637D01*
X155100273Y-113031680D01*
X155361426Y-113139853D01*
X155638665Y-113195000D01*
X155921335Y-113195000D01*
X156074397Y-113164554D01*
X158339002Y-115429159D01*
X158339002Y-119978275D01*
X158201880Y-119951000D01*
X157938120Y-119951000D01*
X157679428Y-120002457D01*
X157435746Y-120103393D01*
X157216437Y-120249931D01*
X157029931Y-120436437D01*
X156883393Y-120655746D01*
X156782457Y-120899428D01*
X156731000Y-121158120D01*
X156731000Y-121421880D01*
X156782457Y-121680572D01*
X156883393Y-121924254D01*
X157029931Y-122143563D01*
X157216437Y-122330069D01*
X157435746Y-122476607D01*
X157588791Y-122540000D01*
X157435746Y-122603393D01*
X157216437Y-122749931D01*
X157029931Y-122936437D01*
X156984119Y-123005000D01*
X153745157Y-123005000D01*
X148782347Y-118042190D01*
X148757764Y-118012236D01*
X148638233Y-117914138D01*
X148501860Y-117841246D01*
X148353887Y-117796359D01*
X148238561Y-117785000D01*
X148238553Y-117785000D01*
X148200000Y-117781203D01*
X148161447Y-117785000D01*
X145388072Y-117785000D01*
X145388072Y-116020000D01*
X145375812Y-115895518D01*
X145339502Y-115775820D01*
X145280537Y-115665506D01*
X145201185Y-115568815D01*
X145104494Y-115489463D01*
X144994180Y-115430498D01*
X144874482Y-115394188D01*
X144750000Y-115381928D01*
X139650000Y-115381928D01*
X139525518Y-115394188D01*
X139405820Y-115430498D01*
X139295506Y-115489463D01*
X139198815Y-115568815D01*
X139119463Y-115665506D01*
X139060498Y-115775820D01*
X139024188Y-115895518D01*
X139011928Y-116020000D01*
X139011928Y-121120000D01*
X139024188Y-121244482D01*
X139060498Y-121364180D01*
X139119463Y-121474494D01*
X139198815Y-121571185D01*
X139295506Y-121650537D01*
X139405820Y-121709502D01*
X139525518Y-121745812D01*
X139650000Y-121758072D01*
X144750000Y-121758072D01*
X144874482Y-121745812D01*
X144994180Y-121709502D01*
X145104494Y-121650537D01*
X145201185Y-121571185D01*
X145280537Y-121474494D01*
X145339502Y-121364180D01*
X145375812Y-121244482D01*
X145388072Y-121120000D01*
X145388072Y-119355000D01*
X147874843Y-119355000D01*
X152837653Y-124317810D01*
X152862236Y-124347764D01*
X152981767Y-124445862D01*
X153096608Y-124507245D01*
X153118140Y-124518754D01*
X153266113Y-124563642D01*
X153341026Y-124571020D01*
X153381439Y-124575000D01*
X153381444Y-124575000D01*
X153420000Y-124578797D01*
X153458556Y-124575000D01*
X156984119Y-124575000D01*
X157029931Y-124643563D01*
X157216437Y-124830069D01*
X157392825Y-124947928D01*
X157366000Y-124947928D01*
X157241518Y-124960188D01*
X157121820Y-124996498D01*
X157011506Y-125055463D01*
X156914815Y-125134815D01*
X156835463Y-125231506D01*
X156776498Y-125341820D01*
X156740188Y-125461518D01*
X156727928Y-125586000D01*
X156727928Y-126994000D01*
X156740188Y-127118482D01*
X156776498Y-127238180D01*
X156835463Y-127348494D01*
X156914815Y-127445185D01*
X157011506Y-127524537D01*
X157121820Y-127583502D01*
X157241518Y-127619812D01*
X157366000Y-127632072D01*
X158774000Y-127632072D01*
X158898482Y-127619812D01*
X159018180Y-127583502D01*
X159128494Y-127524537D01*
X159225185Y-127445185D01*
X159304537Y-127348494D01*
X159363502Y-127238180D01*
X159399812Y-127118482D01*
X159412072Y-126994000D01*
X159412072Y-126058085D01*
X159651812Y-125818345D01*
X159681765Y-125793763D01*
X159779863Y-125674232D01*
X159852755Y-125537859D01*
X159875913Y-125461518D01*
X159897643Y-125389886D01*
X159905021Y-125314973D01*
X159909001Y-125274560D01*
X159909001Y-125274555D01*
X159912798Y-125235999D01*
X159909001Y-125197443D01*
X159909001Y-115142557D01*
X159912798Y-115104001D01*
X159909001Y-115065445D01*
X159909001Y-115065440D01*
X159905021Y-115025027D01*
X159897643Y-114950114D01*
X159852755Y-114802141D01*
X159779863Y-114665768D01*
X159681765Y-114546237D01*
X159651811Y-114521654D01*
X157184554Y-112054397D01*
X157215000Y-111901335D01*
X157215000Y-111618665D01*
X157159853Y-111341426D01*
X157051680Y-111080273D01*
X156894637Y-110845241D01*
X156694759Y-110645363D01*
X156462241Y-110490000D01*
X156694759Y-110334637D01*
X156894637Y-110134759D01*
X157051680Y-109899727D01*
X157159853Y-109638574D01*
X157215000Y-109361335D01*
X157215000Y-109078665D01*
X157159853Y-108801426D01*
X157051680Y-108540273D01*
X156894637Y-108305241D01*
X156694759Y-108105363D01*
X156462241Y-107950000D01*
X156694759Y-107794637D01*
X156894637Y-107594759D01*
X157051680Y-107359727D01*
X157159853Y-107098574D01*
X157215000Y-106821335D01*
X157215000Y-106538665D01*
X157159853Y-106261426D01*
X157051680Y-106000273D01*
X156894637Y-105765241D01*
X156694759Y-105565363D01*
X156462241Y-105410000D01*
X156694759Y-105254637D01*
X156894637Y-105054759D01*
X157051680Y-104819727D01*
X157159853Y-104558574D01*
X157215000Y-104281335D01*
X157215000Y-103998665D01*
X157170509Y-103774999D01*
X160222840Y-103774999D01*
X162256411Y-105808571D01*
X162128320Y-106000273D01*
X162020147Y-106261426D01*
X161965000Y-106538665D01*
X161965000Y-106821335D01*
X161995446Y-106974396D01*
X161072190Y-107897653D01*
X161042236Y-107922236D01*
X160944138Y-108041768D01*
X160871246Y-108178141D01*
X160826359Y-108326114D01*
X160815000Y-108441440D01*
X160815000Y-108441447D01*
X160811203Y-108480000D01*
X160815000Y-108518553D01*
X160815001Y-136641837D01*
X160811203Y-136680400D01*
X160826359Y-136834286D01*
X160871246Y-136982259D01*
X160871247Y-136982260D01*
X160944139Y-137118633D01*
X160984690Y-137168044D01*
X161017655Y-137208212D01*
X161017659Y-137208216D01*
X161042237Y-137238164D01*
X161072185Y-137262742D01*
X161092423Y-137282980D01*
X157929457Y-137282980D01*
X157757567Y-137025728D01*
X157529832Y-136797993D01*
X157262043Y-136619062D01*
X156964492Y-136495812D01*
X156648613Y-136432980D01*
X156326547Y-136432980D01*
X156010668Y-136495812D01*
X155713117Y-136619062D01*
X155445328Y-136797993D01*
X155217593Y-137025728D01*
X155038662Y-137293517D01*
X154915412Y-137591068D01*
X154852580Y-137906947D01*
X154852580Y-138229013D01*
X154915412Y-138544892D01*
X155038662Y-138842443D01*
X155217593Y-139110232D01*
X155445328Y-139337967D01*
X155713117Y-139516898D01*
X156010668Y-139640148D01*
X156326547Y-139702980D01*
X156648613Y-139702980D01*
X156964492Y-139640148D01*
X157262043Y-139516898D01*
X157529832Y-139337967D01*
X157757567Y-139110232D01*
X157929457Y-138852980D01*
X161545703Y-138852980D01*
X161717593Y-139110232D01*
X161945328Y-139337967D01*
X162213117Y-139516898D01*
X162510668Y-139640148D01*
X162826547Y-139702980D01*
X163148613Y-139702980D01*
X163464492Y-139640148D01*
X163762043Y-139516898D01*
X164029832Y-139337967D01*
X164257567Y-139110232D01*
X164436498Y-138842443D01*
X164559748Y-138544892D01*
X164622580Y-138229013D01*
X164622580Y-137906947D01*
X164559748Y-137591068D01*
X164436498Y-137293517D01*
X164257567Y-137025728D01*
X164029832Y-136797993D01*
X163762043Y-136619062D01*
X163464492Y-136495812D01*
X163148613Y-136432980D01*
X162826547Y-136432980D01*
X162523097Y-136493340D01*
X162385000Y-136355243D01*
X162385000Y-113158354D01*
X162475518Y-113185812D01*
X162600000Y-113198072D01*
X164200000Y-113198072D01*
X164324482Y-113185812D01*
X164444180Y-113149502D01*
X164554494Y-113090537D01*
X164651185Y-113011185D01*
X164730537Y-112914494D01*
X164789502Y-112804180D01*
X164825812Y-112684482D01*
X164838072Y-112560000D01*
X164838072Y-110960000D01*
X164825812Y-110835518D01*
X164789502Y-110715820D01*
X164730537Y-110605506D01*
X164651185Y-110508815D01*
X164554494Y-110429463D01*
X164444180Y-110370498D01*
X164324482Y-110334188D01*
X164316039Y-110333357D01*
X164514637Y-110134759D01*
X164671680Y-109899727D01*
X164779853Y-109638574D01*
X164835000Y-109361335D01*
X164835000Y-109078665D01*
X164779853Y-108801426D01*
X164671680Y-108540273D01*
X164514637Y-108305241D01*
X164314759Y-108105363D01*
X164082241Y-107950000D01*
X164314759Y-107794637D01*
X164514637Y-107594759D01*
X164671680Y-107359727D01*
X164779853Y-107098574D01*
X164835000Y-106821335D01*
X164835000Y-106538665D01*
X164779853Y-106261426D01*
X164671680Y-106000273D01*
X164543589Y-105808570D01*
X165077812Y-105274347D01*
X165107765Y-105249765D01*
X165205863Y-105130234D01*
X165278755Y-104993861D01*
X165298492Y-104928797D01*
X165323643Y-104845888D01*
X165334836Y-104732237D01*
X165335001Y-104730562D01*
X165335001Y-104730557D01*
X165338798Y-104692001D01*
X165335001Y-104653445D01*
X165335001Y-86483553D01*
X165338798Y-86445000D01*
X165335001Y-86406447D01*
X165335001Y-86406440D01*
X165323642Y-86291114D01*
X165278755Y-86143141D01*
X165205863Y-86006768D01*
X165107765Y-85887237D01*
X165077817Y-85862659D01*
X163414597Y-84199440D01*
X163460000Y-83971184D01*
X163460000Y-83668816D01*
X163401011Y-83372257D01*
X163285299Y-83092905D01*
X163117312Y-82841495D01*
X162903505Y-82627688D01*
X162652095Y-82459701D01*
X162372743Y-82343989D01*
X162076184Y-82285000D01*
X161773816Y-82285000D01*
X161477257Y-82343989D01*
X161197905Y-82459701D01*
X160946495Y-82627688D01*
X160880056Y-82694127D01*
X160874502Y-82675820D01*
X160815537Y-82565506D01*
X160736185Y-82468815D01*
X160639494Y-82389463D01*
X160529180Y-82330498D01*
X160409482Y-82294188D01*
X160285000Y-82281928D01*
X158485000Y-82281928D01*
X158360518Y-82294188D01*
X158240820Y-82330498D01*
X158130506Y-82389463D01*
X158033815Y-82468815D01*
X157954463Y-82565506D01*
X157895498Y-82675820D01*
X157859188Y-82795518D01*
X157846928Y-82920000D01*
X157846928Y-84720000D01*
X157859188Y-84844482D01*
X157895498Y-84964180D01*
X157954463Y-85074494D01*
X158033815Y-85171185D01*
X158130506Y-85250537D01*
X158240820Y-85309502D01*
X158360518Y-85345812D01*
X158485000Y-85358072D01*
X158600000Y-85358072D01*
X158600001Y-88881437D01*
X158596203Y-88920000D01*
X158611359Y-89073886D01*
X158656246Y-89221859D01*
X158656247Y-89221860D01*
X158729139Y-89358233D01*
X158764331Y-89401114D01*
X158802655Y-89447812D01*
X158802659Y-89447816D01*
X158827237Y-89477764D01*
X158857185Y-89502342D01*
X159970489Y-90615646D01*
X159955000Y-90693514D01*
X159955000Y-90956486D01*
X160006304Y-91214405D01*
X160106939Y-91457359D01*
X160253038Y-91676013D01*
X160438987Y-91861962D01*
X160657641Y-92008061D01*
X160900595Y-92108696D01*
X161158514Y-92160000D01*
X161421486Y-92160000D01*
X161679405Y-92108696D01*
X161922359Y-92008061D01*
X162141013Y-91861962D01*
X162326962Y-91676013D01*
X162473061Y-91457359D01*
X162573696Y-91214405D01*
X162625000Y-90956486D01*
X162625000Y-90693514D01*
X162573696Y-90435595D01*
X162473061Y-90192641D01*
X162326962Y-89973987D01*
X162141013Y-89788038D01*
X161922359Y-89641939D01*
X161679405Y-89541304D01*
X161421486Y-89490000D01*
X161158514Y-89490000D01*
X161080646Y-89505489D01*
X160170000Y-88594843D01*
X160170000Y-85358072D01*
X160285000Y-85358072D01*
X160409482Y-85345812D01*
X160529180Y-85309502D01*
X160639494Y-85250537D01*
X160736185Y-85171185D01*
X160815537Y-85074494D01*
X160874502Y-84964180D01*
X160880056Y-84945873D01*
X160946495Y-85012312D01*
X161197905Y-85180299D01*
X161477257Y-85296011D01*
X161773816Y-85355000D01*
X162076184Y-85355000D01*
X162304440Y-85309597D01*
X163765002Y-86770160D01*
X163765001Y-102753807D01*
X163749040Y-102748091D01*
X163527000Y-102869376D01*
X163527000Y-104013000D01*
X163547000Y-104013000D01*
X163547000Y-104267000D01*
X163527000Y-104267000D01*
X163527000Y-104287000D01*
X163273000Y-104287000D01*
X163273000Y-104267000D01*
X163253000Y-104267000D01*
X163253000Y-104013000D01*
X163273000Y-104013000D01*
X163273000Y-102869376D01*
X163050960Y-102748091D01*
X162786119Y-102842930D01*
X162544869Y-102987615D01*
X162336481Y-103176586D01*
X162168963Y-103402580D01*
X162137437Y-103469281D01*
X161130344Y-102462189D01*
X161105761Y-102432235D01*
X160986230Y-102334137D01*
X160849857Y-102261245D01*
X160701884Y-102216358D01*
X160586558Y-102204999D01*
X160586550Y-102204999D01*
X160547997Y-102201202D01*
X160509444Y-102204999D01*
X138348553Y-102204999D01*
X138310000Y-102201202D01*
X138271447Y-102204999D01*
X138271440Y-102204999D01*
X138156114Y-102216358D01*
X138008141Y-102261245D01*
X137871768Y-102334137D01*
X137811560Y-102383549D01*
X137782188Y-102407654D01*
X137782185Y-102407657D01*
X137752237Y-102432235D01*
X137727659Y-102462184D01*
X137454396Y-102735446D01*
X137301335Y-102705000D01*
X137018665Y-102705000D01*
X136741426Y-102760147D01*
X136480273Y-102868320D01*
X136319695Y-102975614D01*
X136297817Y-102957659D01*
X134235000Y-100894843D01*
X134235000Y-100868061D01*
X134195226Y-100668102D01*
X134117205Y-100479744D01*
X134003937Y-100310226D01*
X133859774Y-100166063D01*
X133690256Y-100052795D01*
X133501898Y-99974774D01*
X133301939Y-99935000D01*
X133098061Y-99935000D01*
X132898102Y-99974774D01*
X132709744Y-100052795D01*
X132540226Y-100166063D01*
X132396063Y-100310226D01*
X132282795Y-100479744D01*
X132204774Y-100668102D01*
X132165000Y-100868061D01*
X129545000Y-100868061D01*
X129545000Y-98723330D01*
X133327278Y-98723330D01*
X133417147Y-98969123D01*
X133553241Y-99192660D01*
X133730330Y-99385351D01*
X133941608Y-99539792D01*
X134178956Y-99650047D01*
X134286671Y-99682716D01*
X134493000Y-99559374D01*
X134493000Y-98517000D01*
X134747000Y-98517000D01*
X134747000Y-99559374D01*
X134953329Y-99682716D01*
X135061044Y-99650047D01*
X135298392Y-99539792D01*
X135509670Y-99385351D01*
X135686759Y-99192660D01*
X135822853Y-98969123D01*
X135912722Y-98723330D01*
X137772278Y-98723330D01*
X137862147Y-98969123D01*
X137998241Y-99192660D01*
X138175330Y-99385351D01*
X138386608Y-99539792D01*
X138623956Y-99650047D01*
X138731671Y-99682716D01*
X138938000Y-99559374D01*
X138938000Y-98517000D01*
X139192000Y-98517000D01*
X139192000Y-99559374D01*
X139398329Y-99682716D01*
X139506044Y-99650047D01*
X139743392Y-99539792D01*
X139954670Y-99385351D01*
X140131759Y-99192660D01*
X140267853Y-98969123D01*
X140337612Y-98778330D01*
X142217278Y-98778330D01*
X142307147Y-99024123D01*
X142443241Y-99247660D01*
X142620330Y-99440351D01*
X142831608Y-99594792D01*
X143068956Y-99705047D01*
X143176671Y-99737716D01*
X143383000Y-99614374D01*
X143383000Y-98572000D01*
X143637000Y-98572000D01*
X143637000Y-99614374D01*
X143843329Y-99737716D01*
X143951044Y-99705047D01*
X144188392Y-99594792D01*
X144399670Y-99440351D01*
X144576759Y-99247660D01*
X144712853Y-99024123D01*
X144802722Y-98778330D01*
X146662278Y-98778330D01*
X146752147Y-99024123D01*
X146888241Y-99247660D01*
X147065330Y-99440351D01*
X147276608Y-99594792D01*
X147513956Y-99705047D01*
X147621671Y-99737716D01*
X147828000Y-99614374D01*
X147828000Y-98572000D01*
X148082000Y-98572000D01*
X148082000Y-99614374D01*
X148288329Y-99737716D01*
X148396044Y-99705047D01*
X148633392Y-99594792D01*
X148844670Y-99440351D01*
X149021759Y-99247660D01*
X149157853Y-99024123D01*
X149247722Y-98778330D01*
X151107278Y-98778330D01*
X151197147Y-99024123D01*
X151333241Y-99247660D01*
X151510330Y-99440351D01*
X151721608Y-99594792D01*
X151958956Y-99705047D01*
X152066671Y-99737716D01*
X152273000Y-99614374D01*
X152273000Y-98572000D01*
X152527000Y-98572000D01*
X152527000Y-99614374D01*
X152733329Y-99737716D01*
X152841044Y-99705047D01*
X153078392Y-99594792D01*
X153289670Y-99440351D01*
X153466759Y-99247660D01*
X153602853Y-99024123D01*
X153692722Y-98778330D01*
X155552278Y-98778330D01*
X155642147Y-99024123D01*
X155778241Y-99247660D01*
X155955330Y-99440351D01*
X156166608Y-99594792D01*
X156403956Y-99705047D01*
X156511671Y-99737716D01*
X156718000Y-99614374D01*
X156718000Y-98572000D01*
X156972000Y-98572000D01*
X156972000Y-99614374D01*
X157178329Y-99737716D01*
X157286044Y-99705047D01*
X157523392Y-99594792D01*
X157734670Y-99440351D01*
X157911759Y-99247660D01*
X158047853Y-99024123D01*
X158137722Y-98778330D01*
X159997278Y-98778330D01*
X160087147Y-99024123D01*
X160223241Y-99247660D01*
X160400330Y-99440351D01*
X160611608Y-99594792D01*
X160848956Y-99705047D01*
X160956671Y-99737716D01*
X161163000Y-99614374D01*
X161163000Y-98572000D01*
X161417000Y-98572000D01*
X161417000Y-99614374D01*
X161623329Y-99737716D01*
X161731044Y-99705047D01*
X161968392Y-99594792D01*
X162179670Y-99440351D01*
X162356759Y-99247660D01*
X162492853Y-99024123D01*
X162582722Y-98778330D01*
X162460201Y-98572000D01*
X161417000Y-98572000D01*
X161163000Y-98572000D01*
X160119799Y-98572000D01*
X159997278Y-98778330D01*
X158137722Y-98778330D01*
X158015201Y-98572000D01*
X156972000Y-98572000D01*
X156718000Y-98572000D01*
X155674799Y-98572000D01*
X155552278Y-98778330D01*
X153692722Y-98778330D01*
X153570201Y-98572000D01*
X152527000Y-98572000D01*
X152273000Y-98572000D01*
X151229799Y-98572000D01*
X151107278Y-98778330D01*
X149247722Y-98778330D01*
X149125201Y-98572000D01*
X148082000Y-98572000D01*
X147828000Y-98572000D01*
X146784799Y-98572000D01*
X146662278Y-98778330D01*
X144802722Y-98778330D01*
X144680201Y-98572000D01*
X143637000Y-98572000D01*
X143383000Y-98572000D01*
X142339799Y-98572000D01*
X142217278Y-98778330D01*
X140337612Y-98778330D01*
X140357722Y-98723330D01*
X140235201Y-98517000D01*
X139192000Y-98517000D01*
X138938000Y-98517000D01*
X137894799Y-98517000D01*
X137772278Y-98723330D01*
X135912722Y-98723330D01*
X135790201Y-98517000D01*
X134747000Y-98517000D01*
X134493000Y-98517000D01*
X133449799Y-98517000D01*
X133327278Y-98723330D01*
X129545000Y-98723330D01*
X129545000Y-98056670D01*
X133327278Y-98056670D01*
X133449799Y-98263000D01*
X134493000Y-98263000D01*
X134493000Y-97220626D01*
X134747000Y-97220626D01*
X134747000Y-98263000D01*
X135790201Y-98263000D01*
X135912722Y-98056670D01*
X137772278Y-98056670D01*
X137894799Y-98263000D01*
X138938000Y-98263000D01*
X138938000Y-97220626D01*
X139192000Y-97220626D01*
X139192000Y-98263000D01*
X140235201Y-98263000D01*
X140325062Y-98111670D01*
X142217278Y-98111670D01*
X142339799Y-98318000D01*
X143383000Y-98318000D01*
X143383000Y-97275626D01*
X143637000Y-97275626D01*
X143637000Y-98318000D01*
X144680201Y-98318000D01*
X144802722Y-98111670D01*
X146662278Y-98111670D01*
X146784799Y-98318000D01*
X147828000Y-98318000D01*
X147828000Y-97275626D01*
X148082000Y-97275626D01*
X148082000Y-98318000D01*
X149125201Y-98318000D01*
X149247722Y-98111670D01*
X151107278Y-98111670D01*
X151229799Y-98318000D01*
X152273000Y-98318000D01*
X152273000Y-97275626D01*
X152527000Y-97275626D01*
X152527000Y-98318000D01*
X153570201Y-98318000D01*
X153692722Y-98111670D01*
X155552278Y-98111670D01*
X155674799Y-98318000D01*
X156718000Y-98318000D01*
X156718000Y-97275626D01*
X156972000Y-97275626D01*
X156972000Y-98318000D01*
X158015201Y-98318000D01*
X158137722Y-98111670D01*
X159997278Y-98111670D01*
X160119799Y-98318000D01*
X161163000Y-98318000D01*
X161163000Y-97275626D01*
X161417000Y-97275626D01*
X161417000Y-98318000D01*
X162460201Y-98318000D01*
X162582722Y-98111670D01*
X162492853Y-97865877D01*
X162356759Y-97642340D01*
X162179670Y-97449649D01*
X161968392Y-97295208D01*
X161731044Y-97184953D01*
X161623329Y-97152284D01*
X161417000Y-97275626D01*
X161163000Y-97275626D01*
X160956671Y-97152284D01*
X160848956Y-97184953D01*
X160611608Y-97295208D01*
X160400330Y-97449649D01*
X160223241Y-97642340D01*
X160087147Y-97865877D01*
X159997278Y-98111670D01*
X158137722Y-98111670D01*
X158047853Y-97865877D01*
X157911759Y-97642340D01*
X157734670Y-97449649D01*
X157523392Y-97295208D01*
X157286044Y-97184953D01*
X157178329Y-97152284D01*
X156972000Y-97275626D01*
X156718000Y-97275626D01*
X156511671Y-97152284D01*
X156403956Y-97184953D01*
X156166608Y-97295208D01*
X155955330Y-97449649D01*
X155778241Y-97642340D01*
X155642147Y-97865877D01*
X155552278Y-98111670D01*
X153692722Y-98111670D01*
X153602853Y-97865877D01*
X153466759Y-97642340D01*
X153289670Y-97449649D01*
X153078392Y-97295208D01*
X152841044Y-97184953D01*
X152733329Y-97152284D01*
X152527000Y-97275626D01*
X152273000Y-97275626D01*
X152066671Y-97152284D01*
X151958956Y-97184953D01*
X151721608Y-97295208D01*
X151510330Y-97449649D01*
X151333241Y-97642340D01*
X151197147Y-97865877D01*
X151107278Y-98111670D01*
X149247722Y-98111670D01*
X149157853Y-97865877D01*
X149021759Y-97642340D01*
X148844670Y-97449649D01*
X148633392Y-97295208D01*
X148396044Y-97184953D01*
X148288329Y-97152284D01*
X148082000Y-97275626D01*
X147828000Y-97275626D01*
X147621671Y-97152284D01*
X147513956Y-97184953D01*
X147276608Y-97295208D01*
X147065330Y-97449649D01*
X146888241Y-97642340D01*
X146752147Y-97865877D01*
X146662278Y-98111670D01*
X144802722Y-98111670D01*
X144712853Y-97865877D01*
X144576759Y-97642340D01*
X144399670Y-97449649D01*
X144188392Y-97295208D01*
X143951044Y-97184953D01*
X143843329Y-97152284D01*
X143637000Y-97275626D01*
X143383000Y-97275626D01*
X143176671Y-97152284D01*
X143068956Y-97184953D01*
X142831608Y-97295208D01*
X142620330Y-97449649D01*
X142443241Y-97642340D01*
X142307147Y-97865877D01*
X142217278Y-98111670D01*
X140325062Y-98111670D01*
X140357722Y-98056670D01*
X140267853Y-97810877D01*
X140131759Y-97587340D01*
X139954670Y-97394649D01*
X139743392Y-97240208D01*
X139506044Y-97129953D01*
X139398329Y-97097284D01*
X139192000Y-97220626D01*
X138938000Y-97220626D01*
X138731671Y-97097284D01*
X138623956Y-97129953D01*
X138386608Y-97240208D01*
X138175330Y-97394649D01*
X137998241Y-97587340D01*
X137862147Y-97810877D01*
X137772278Y-98056670D01*
X135912722Y-98056670D01*
X135822853Y-97810877D01*
X135686759Y-97587340D01*
X135509670Y-97394649D01*
X135298392Y-97240208D01*
X135061044Y-97129953D01*
X134953329Y-97097284D01*
X134747000Y-97220626D01*
X134493000Y-97220626D01*
X134286671Y-97097284D01*
X134178956Y-97129953D01*
X133941608Y-97240208D01*
X133730330Y-97394649D01*
X133553241Y-97587340D01*
X133417147Y-97810877D01*
X133327278Y-98056670D01*
X129545000Y-98056670D01*
X129545000Y-89532277D01*
X131310538Y-91297816D01*
X131335116Y-91327764D01*
X131365064Y-91352342D01*
X131365067Y-91352345D01*
X131394439Y-91376450D01*
X131454647Y-91425862D01*
X131591020Y-91498754D01*
X131704552Y-91533194D01*
X131738992Y-91543641D01*
X131753370Y-91545057D01*
X131854319Y-91555000D01*
X131854326Y-91555000D01*
X131892879Y-91558797D01*
X131931432Y-91555000D01*
X133538930Y-91555000D01*
X133583038Y-91621013D01*
X133768987Y-91806962D01*
X133987641Y-91953061D01*
X134230595Y-92053696D01*
X134488514Y-92105000D01*
X134751486Y-92105000D01*
X135009405Y-92053696D01*
X135252359Y-91953061D01*
X135471013Y-91806962D01*
X135656962Y-91621013D01*
X135803061Y-91402359D01*
X135903696Y-91159405D01*
X135955000Y-90901486D01*
X135955000Y-90638514D01*
X135903696Y-90380595D01*
X135803061Y-90137641D01*
X135656962Y-89918987D01*
X135471013Y-89733038D01*
X135252359Y-89586939D01*
X135175252Y-89555000D01*
X136739843Y-89555000D01*
X137745489Y-90560647D01*
X137730000Y-90638514D01*
X137730000Y-90901486D01*
X137781304Y-91159405D01*
X137881939Y-91402359D01*
X138028038Y-91621013D01*
X138213987Y-91806962D01*
X138432641Y-91953061D01*
X138675595Y-92053696D01*
X138933514Y-92105000D01*
X139196486Y-92105000D01*
X139454405Y-92053696D01*
X139697359Y-91953061D01*
X139916013Y-91806962D01*
X140101962Y-91621013D01*
X140248061Y-91402359D01*
X140348696Y-91159405D01*
X140400000Y-90901486D01*
X140400000Y-90638514D01*
X140348696Y-90380595D01*
X140248061Y-90137641D01*
X140101962Y-89918987D01*
X139916013Y-89733038D01*
X139697359Y-89586939D01*
X139454405Y-89486304D01*
X139196486Y-89435000D01*
X138933514Y-89435000D01*
X138855647Y-89450489D01*
X138160157Y-88755000D01*
X140329843Y-88755000D01*
X142190489Y-90615646D01*
X142175000Y-90693514D01*
X142175000Y-90956486D01*
X142226304Y-91214405D01*
X142326939Y-91457359D01*
X142473038Y-91676013D01*
X142658987Y-91861962D01*
X142877641Y-92008061D01*
X143120595Y-92108696D01*
X143378514Y-92160000D01*
X143641486Y-92160000D01*
X143899405Y-92108696D01*
X144142359Y-92008061D01*
X144361013Y-91861962D01*
X144546962Y-91676013D01*
X144693061Y-91457359D01*
X144793696Y-91214405D01*
X144845000Y-90956486D01*
X144845000Y-90693514D01*
X144793696Y-90435595D01*
X144693061Y-90192641D01*
X144546962Y-89973987D01*
X144361013Y-89788038D01*
X144142359Y-89641939D01*
X143899405Y-89541304D01*
X143641486Y-89490000D01*
X143378514Y-89490000D01*
X143300646Y-89505489D01*
X141237347Y-87442190D01*
X141212764Y-87412236D01*
X141093233Y-87314138D01*
X140956860Y-87241246D01*
X140808887Y-87196359D01*
X140693561Y-87185000D01*
X140693553Y-87185000D01*
X140655000Y-87181203D01*
X140616447Y-87185000D01*
X136125158Y-87185000D01*
X134293905Y-85353748D01*
X134374482Y-85345812D01*
X134494180Y-85309502D01*
X134604494Y-85250537D01*
X134701185Y-85171185D01*
X134780537Y-85074494D01*
X134839502Y-84964180D01*
X134845056Y-84945873D01*
X134911495Y-85012312D01*
X135162905Y-85180299D01*
X135442257Y-85296011D01*
X135738816Y-85355000D01*
X136041184Y-85355000D01*
X136337743Y-85296011D01*
X136617095Y-85180299D01*
X136868505Y-85012312D01*
X137082312Y-84798505D01*
X137250299Y-84547095D01*
X137366011Y-84267743D01*
X137425000Y-83971184D01*
X137425000Y-83668816D01*
X137366011Y-83372257D01*
X137250299Y-83092905D01*
X137082312Y-82841495D01*
X136868505Y-82627688D01*
X136617095Y-82459701D01*
X136337743Y-82343989D01*
X136041184Y-82285000D01*
X135738816Y-82285000D01*
X135442257Y-82343989D01*
X135162905Y-82459701D01*
X134911495Y-82627688D01*
X134845056Y-82694127D01*
X134839502Y-82675820D01*
X134780537Y-82565506D01*
X134701185Y-82468815D01*
X134604494Y-82389463D01*
X134494180Y-82330498D01*
X134374482Y-82294188D01*
X134250000Y-82281928D01*
X132450000Y-82281928D01*
X132325518Y-82294188D01*
X132205820Y-82330498D01*
X132095506Y-82389463D01*
X131998815Y-82468815D01*
X131919463Y-82565506D01*
X131860498Y-82675820D01*
X131824188Y-82795518D01*
X131811928Y-82920000D01*
X131811928Y-84720000D01*
X131824188Y-84844482D01*
X131860498Y-84964180D01*
X131919463Y-85074494D01*
X131998815Y-85171185D01*
X132095506Y-85250537D01*
X132205820Y-85309502D01*
X132325518Y-85345812D01*
X132450000Y-85358072D01*
X132565001Y-85358072D01*
X132565001Y-85481438D01*
X132561203Y-85520000D01*
X132576359Y-85673886D01*
X132621246Y-85821859D01*
X132621247Y-85821860D01*
X132694139Y-85958233D01*
X132733971Y-86006768D01*
X132767655Y-86047812D01*
X132767659Y-86047816D01*
X132792237Y-86077764D01*
X132822185Y-86102342D01*
X134704842Y-87985000D01*
X131385000Y-87985000D01*
X131385000Y-74199957D01*
X132926885Y-72658072D01*
X134254800Y-72658072D01*
X134379282Y-72645812D01*
X134498980Y-72609502D01*
X134609294Y-72550537D01*
X134705985Y-72471185D01*
X134785337Y-72374494D01*
X134844302Y-72264180D01*
X134849856Y-72245873D01*
X134916295Y-72312312D01*
X135167705Y-72480299D01*
X135447057Y-72596011D01*
X135743616Y-72655000D01*
X136045984Y-72655000D01*
X136342543Y-72596011D01*
X136621895Y-72480299D01*
X136873305Y-72312312D01*
X137087112Y-72098505D01*
X137255099Y-71847095D01*
X137370811Y-71567743D01*
X137429800Y-71271184D01*
X137429800Y-70968816D01*
X137370811Y-70672257D01*
X137255099Y-70392905D01*
X137139568Y-70220000D01*
X145146928Y-70220000D01*
X145146928Y-72020000D01*
X145159188Y-72144482D01*
X145195498Y-72264180D01*
X145254463Y-72374494D01*
X145333815Y-72471185D01*
X145430506Y-72550537D01*
X145540820Y-72609502D01*
X145660518Y-72645812D01*
X145785000Y-72658072D01*
X145900000Y-72658072D01*
X145900001Y-89516437D01*
X145896203Y-89555000D01*
X145911359Y-89708886D01*
X145956246Y-89856859D01*
X145956247Y-89856860D01*
X146029139Y-89993233D01*
X146068543Y-90041246D01*
X146102655Y-90082812D01*
X146102659Y-90082816D01*
X146127237Y-90112764D01*
X146157185Y-90137342D01*
X146635489Y-90615646D01*
X146620000Y-90693514D01*
X146620000Y-90956486D01*
X146671304Y-91214405D01*
X146771939Y-91457359D01*
X146918038Y-91676013D01*
X147103987Y-91861962D01*
X147322641Y-92008061D01*
X147565595Y-92108696D01*
X147823514Y-92160000D01*
X148086486Y-92160000D01*
X148344405Y-92108696D01*
X148587359Y-92008061D01*
X148806013Y-91861962D01*
X148991962Y-91676013D01*
X149138061Y-91457359D01*
X149238696Y-91214405D01*
X149290000Y-90956486D01*
X149290000Y-90693514D01*
X151065000Y-90693514D01*
X151065000Y-90956486D01*
X151116304Y-91214405D01*
X151216939Y-91457359D01*
X151363038Y-91676013D01*
X151548987Y-91861962D01*
X151767641Y-92008061D01*
X152010595Y-92108696D01*
X152268514Y-92160000D01*
X152531486Y-92160000D01*
X152789405Y-92108696D01*
X153032359Y-92008061D01*
X153251013Y-91861962D01*
X153436962Y-91676013D01*
X153583061Y-91457359D01*
X153683696Y-91214405D01*
X153735000Y-90956486D01*
X153735000Y-90693514D01*
X155510000Y-90693514D01*
X155510000Y-90956486D01*
X155561304Y-91214405D01*
X155661939Y-91457359D01*
X155808038Y-91676013D01*
X155993987Y-91861962D01*
X156212641Y-92008061D01*
X156455595Y-92108696D01*
X156713514Y-92160000D01*
X156976486Y-92160000D01*
X157234405Y-92108696D01*
X157477359Y-92008061D01*
X157696013Y-91861962D01*
X157881962Y-91676013D01*
X158028061Y-91457359D01*
X158128696Y-91214405D01*
X158180000Y-90956486D01*
X158180000Y-90693514D01*
X158128696Y-90435595D01*
X158028061Y-90192641D01*
X157881962Y-89973987D01*
X157696013Y-89788038D01*
X157630000Y-89743930D01*
X157630000Y-73954957D01*
X158926886Y-72658072D01*
X160254800Y-72658072D01*
X160379282Y-72645812D01*
X160498980Y-72609502D01*
X160609294Y-72550537D01*
X160705985Y-72471185D01*
X160785337Y-72374494D01*
X160844302Y-72264180D01*
X160849856Y-72245873D01*
X160916295Y-72312312D01*
X161167705Y-72480299D01*
X161447057Y-72596011D01*
X161743616Y-72655000D01*
X162045984Y-72655000D01*
X162342543Y-72596011D01*
X162621895Y-72480299D01*
X162873305Y-72312312D01*
X163087112Y-72098505D01*
X163255099Y-71847095D01*
X163370811Y-71567743D01*
X163429800Y-71271184D01*
X163429800Y-70968816D01*
X163370811Y-70672257D01*
X163255099Y-70392905D01*
X163087112Y-70141495D01*
X162873305Y-69927688D01*
X162621895Y-69759701D01*
X162342543Y-69643989D01*
X162045984Y-69585000D01*
X161743616Y-69585000D01*
X161447057Y-69643989D01*
X161167705Y-69759701D01*
X160916295Y-69927688D01*
X160849856Y-69994127D01*
X160844302Y-69975820D01*
X160785337Y-69865506D01*
X160705985Y-69768815D01*
X160609294Y-69689463D01*
X160498980Y-69630498D01*
X160379282Y-69594188D01*
X160254800Y-69581928D01*
X158454800Y-69581928D01*
X158330318Y-69594188D01*
X158210620Y-69630498D01*
X158100306Y-69689463D01*
X158003615Y-69768815D01*
X157924263Y-69865506D01*
X157865298Y-69975820D01*
X157828988Y-70095518D01*
X157816728Y-70220000D01*
X157816728Y-71547914D01*
X156317190Y-73047453D01*
X156287236Y-73072036D01*
X156189138Y-73191568D01*
X156116246Y-73327941D01*
X156071359Y-73475914D01*
X156060000Y-73591240D01*
X156060000Y-73591247D01*
X156056203Y-73629800D01*
X156060000Y-73668353D01*
X156060001Y-89743929D01*
X155993987Y-89788038D01*
X155808038Y-89973987D01*
X155661939Y-90192641D01*
X155561304Y-90435595D01*
X155510000Y-90693514D01*
X153735000Y-90693514D01*
X153683696Y-90435595D01*
X153583061Y-90192641D01*
X153436962Y-89973987D01*
X153251013Y-89788038D01*
X153185000Y-89743930D01*
X153185000Y-62095157D01*
X156075158Y-59205000D01*
X157816728Y-59205000D01*
X157816728Y-59320000D01*
X157828988Y-59444482D01*
X157865298Y-59564180D01*
X157924263Y-59674494D01*
X158003615Y-59771185D01*
X158100306Y-59850537D01*
X158210620Y-59909502D01*
X158330318Y-59945812D01*
X158454800Y-59958072D01*
X160254800Y-59958072D01*
X160379282Y-59945812D01*
X160498980Y-59909502D01*
X160609294Y-59850537D01*
X160705985Y-59771185D01*
X160785337Y-59674494D01*
X160844302Y-59564180D01*
X160849856Y-59545873D01*
X160916295Y-59612312D01*
X161167705Y-59780299D01*
X161447057Y-59896011D01*
X161743616Y-59955000D01*
X162045984Y-59955000D01*
X162342543Y-59896011D01*
X162621895Y-59780299D01*
X162873305Y-59612312D01*
X163087112Y-59398505D01*
X163255099Y-59147095D01*
X163370811Y-58867743D01*
X163429800Y-58571184D01*
X163429800Y-58268816D01*
X163370811Y-57972257D01*
X163255099Y-57692905D01*
X163087112Y-57441495D01*
X162873305Y-57227688D01*
X162621895Y-57059701D01*
X162342543Y-56943989D01*
X162045984Y-56885000D01*
X161743616Y-56885000D01*
X161447057Y-56943989D01*
X161167705Y-57059701D01*
X160916295Y-57227688D01*
X160849856Y-57294127D01*
X160844302Y-57275820D01*
X160785337Y-57165506D01*
X160705985Y-57068815D01*
X160609294Y-56989463D01*
X160498980Y-56930498D01*
X160379282Y-56894188D01*
X160254800Y-56881928D01*
X158454800Y-56881928D01*
X158330318Y-56894188D01*
X158210620Y-56930498D01*
X158100306Y-56989463D01*
X158003615Y-57068815D01*
X157924263Y-57165506D01*
X157865298Y-57275820D01*
X157828988Y-57395518D01*
X157816728Y-57520000D01*
X157816728Y-57635000D01*
X155788552Y-57635000D01*
X155749999Y-57631203D01*
X155711446Y-57635000D01*
X155711439Y-57635000D01*
X155610490Y-57644943D01*
X155596112Y-57646359D01*
X155561672Y-57656806D01*
X155448140Y-57691246D01*
X155311767Y-57764138D01*
X155251559Y-57813550D01*
X155222187Y-57837655D01*
X155222184Y-57837658D01*
X155192236Y-57862236D01*
X155167658Y-57892184D01*
X151872190Y-61187653D01*
X151842236Y-61212236D01*
X151744138Y-61331768D01*
X151671246Y-61468141D01*
X151626359Y-61616114D01*
X151615000Y-61731440D01*
X151615000Y-61731447D01*
X151611203Y-61770000D01*
X151615000Y-61808553D01*
X151615001Y-89743929D01*
X151548987Y-89788038D01*
X151363038Y-89973987D01*
X151216939Y-90192641D01*
X151116304Y-90435595D01*
X151065000Y-90693514D01*
X149290000Y-90693514D01*
X149238696Y-90435595D01*
X149138061Y-90192641D01*
X148991962Y-89973987D01*
X148806013Y-89788038D01*
X148587359Y-89641939D01*
X148344405Y-89541304D01*
X148086486Y-89490000D01*
X147823514Y-89490000D01*
X147745646Y-89505489D01*
X147470000Y-89229843D01*
X147470000Y-72658072D01*
X147585000Y-72658072D01*
X147709482Y-72645812D01*
X147829180Y-72609502D01*
X147939494Y-72550537D01*
X148036185Y-72471185D01*
X148115537Y-72374494D01*
X148174502Y-72264180D01*
X148180056Y-72245873D01*
X148246495Y-72312312D01*
X148497905Y-72480299D01*
X148777257Y-72596011D01*
X149073816Y-72655000D01*
X149376184Y-72655000D01*
X149672743Y-72596011D01*
X149952095Y-72480299D01*
X150203505Y-72312312D01*
X150417312Y-72098505D01*
X150585299Y-71847095D01*
X150701011Y-71567743D01*
X150760000Y-71271184D01*
X150760000Y-70968816D01*
X150701011Y-70672257D01*
X150585299Y-70392905D01*
X150417312Y-70141495D01*
X150203505Y-69927688D01*
X149952095Y-69759701D01*
X149672743Y-69643989D01*
X149376184Y-69585000D01*
X149073816Y-69585000D01*
X148777257Y-69643989D01*
X148497905Y-69759701D01*
X148246495Y-69927688D01*
X148180056Y-69994127D01*
X148174502Y-69975820D01*
X148115537Y-69865506D01*
X148036185Y-69768815D01*
X147939494Y-69689463D01*
X147829180Y-69630498D01*
X147709482Y-69594188D01*
X147585000Y-69581928D01*
X145785000Y-69581928D01*
X145660518Y-69594188D01*
X145540820Y-69630498D01*
X145430506Y-69689463D01*
X145333815Y-69768815D01*
X145254463Y-69865506D01*
X145195498Y-69975820D01*
X145159188Y-70095518D01*
X145146928Y-70220000D01*
X137139568Y-70220000D01*
X137087112Y-70141495D01*
X136873305Y-69927688D01*
X136621895Y-69759701D01*
X136342543Y-69643989D01*
X136045984Y-69585000D01*
X135743616Y-69585000D01*
X135447057Y-69643989D01*
X135167705Y-69759701D01*
X134916295Y-69927688D01*
X134849856Y-69994127D01*
X134844302Y-69975820D01*
X134785337Y-69865506D01*
X134705985Y-69768815D01*
X134609294Y-69689463D01*
X134498980Y-69630498D01*
X134379282Y-69594188D01*
X134254800Y-69581928D01*
X132454800Y-69581928D01*
X132330318Y-69594188D01*
X132210620Y-69630498D01*
X132100306Y-69689463D01*
X132003615Y-69768815D01*
X131924263Y-69865506D01*
X131865298Y-69975820D01*
X131828988Y-70095518D01*
X131816728Y-70220000D01*
X131816728Y-71547915D01*
X130585000Y-72779643D01*
X130585000Y-60495157D01*
X131811928Y-59268229D01*
X131811928Y-59320000D01*
X131824188Y-59444482D01*
X131860498Y-59564180D01*
X131919463Y-59674494D01*
X131998815Y-59771185D01*
X132095506Y-59850537D01*
X132205820Y-59909502D01*
X132325518Y-59945812D01*
X132450000Y-59958072D01*
X134250000Y-59958072D01*
X134374482Y-59945812D01*
X134494180Y-59909502D01*
X134604494Y-59850537D01*
X134701185Y-59771185D01*
X134780537Y-59674494D01*
X134839502Y-59564180D01*
X134845056Y-59545873D01*
X134911495Y-59612312D01*
X135162905Y-59780299D01*
X135442257Y-59896011D01*
X135738816Y-59955000D01*
X136041184Y-59955000D01*
X136337743Y-59896011D01*
X136617095Y-59780299D01*
X136868505Y-59612312D01*
X137082312Y-59398505D01*
X137250299Y-59147095D01*
X137366011Y-58867743D01*
X137425000Y-58571184D01*
X137425000Y-58268816D01*
X137366011Y-57972257D01*
X137250299Y-57692905D01*
X137082312Y-57441495D01*
X136868505Y-57227688D01*
X136617095Y-57059701D01*
X136337743Y-56943989D01*
X136041184Y-56885000D01*
X135738816Y-56885000D01*
X135442257Y-56943989D01*
X135162905Y-57059701D01*
X134911495Y-57227688D01*
X134845056Y-57294127D01*
X134839502Y-57275820D01*
X134780537Y-57165506D01*
X134701185Y-57068815D01*
X134604494Y-56989463D01*
X134494180Y-56930498D01*
X134374482Y-56894188D01*
X134250000Y-56881928D01*
X132450000Y-56881928D01*
X132325518Y-56894188D01*
X132205820Y-56930498D01*
X132095506Y-56989463D01*
X131998815Y-57068815D01*
X131919463Y-57165506D01*
X131860498Y-57275820D01*
X131824188Y-57395518D01*
X131811928Y-57520000D01*
X131811928Y-57635000D01*
X131588556Y-57635000D01*
X131550000Y-57631203D01*
X131511444Y-57635000D01*
X131511439Y-57635000D01*
X131471026Y-57638980D01*
X131396113Y-57646358D01*
X131248140Y-57691246D01*
X131111767Y-57764138D01*
X130992236Y-57862236D01*
X130967653Y-57892190D01*
X129545000Y-59314843D01*
X129545000Y-53315000D01*
X166275000Y-53315000D01*
X166275001Y-148465000D01*
G37*
%TD.AperFunction*%
%TD*%
M02*
