%TF.GenerationSoftware,KiCad,Pcbnew,5.1.9-73d0e3b20d~88~ubuntu18.04.1*%
%TF.CreationDate,2021-01-26T17:19:55+01:00*%
%TF.ProjectId,d1ce,64316365-2e6b-4696-9361-645f70636258,v1*%
%TF.SameCoordinates,Original*%
%TF.FileFunction,Copper,L2,Bot*%
%TF.FilePolarity,Positive*%
%FSLAX46Y46*%
G04 Gerber Fmt 4.6, Leading zero omitted, Abs format (unit mm)*
G04 Created by KiCad (PCBNEW 5.1.9-73d0e3b20d~88~ubuntu18.04.1) date 2021-01-26 17:19:55*
%MOMM*%
%LPD*%
G01*
G04 APERTURE LIST*
%TA.AperFunction,ComponentPad*%
%ADD10R,1.800000X1.800000*%
%TD*%
%TA.AperFunction,ComponentPad*%
%ADD11C,1.800000*%
%TD*%
%TA.AperFunction,ComponentPad*%
%ADD12O,1.400000X1.400000*%
%TD*%
%TA.AperFunction,ComponentPad*%
%ADD13C,1.400000*%
%TD*%
%TA.AperFunction,ComponentPad*%
%ADD14C,2.000000*%
%TD*%
%TA.AperFunction,ComponentPad*%
%ADD15C,1.408000*%
%TD*%
%TA.AperFunction,ComponentPad*%
%ADD16R,1.408000X1.408000*%
%TD*%
%TA.AperFunction,ComponentPad*%
%ADD17O,1.600000X1.600000*%
%TD*%
%TA.AperFunction,ComponentPad*%
%ADD18R,1.600000X1.600000*%
%TD*%
%TA.AperFunction,ViaPad*%
%ADD19C,0.800000*%
%TD*%
%TA.AperFunction,Conductor*%
%ADD20C,0.300000*%
%TD*%
G04 APERTURE END LIST*
D10*
%TO.P,D1,1*%
%TO.N,Net-(D1-Pad1)*%
X133350000Y-58420000D03*
D11*
%TO.P,D1,2*%
%TO.N,/LED1*%
X135890000Y-58420000D03*
%TD*%
%TO.P,D2,2*%
%TO.N,/LED2*%
X135894800Y-71120000D03*
D10*
%TO.P,D2,1*%
%TO.N,Net-(D2-Pad1)*%
X133354800Y-71120000D03*
%TD*%
D11*
%TO.P,D3,2*%
%TO.N,/LED3*%
X135890000Y-83820000D03*
D10*
%TO.P,D3,1*%
%TO.N,Net-(D3-Pad1)*%
X133350000Y-83820000D03*
%TD*%
%TO.P,D4,1*%
%TO.N,Net-(D4-Pad1)*%
X146685000Y-71120000D03*
D11*
%TO.P,D4,2*%
%TO.N,/LED4*%
X149225000Y-71120000D03*
%TD*%
%TO.P,D5,2*%
%TO.N,/LED5*%
X161894800Y-58420000D03*
D10*
%TO.P,D5,1*%
%TO.N,Net-(D5-Pad1)*%
X159354800Y-58420000D03*
%TD*%
D11*
%TO.P,D6,2*%
%TO.N,/LED6*%
X161894800Y-71120000D03*
D10*
%TO.P,D6,1*%
%TO.N,Net-(D6-Pad1)*%
X159354800Y-71120000D03*
%TD*%
%TO.P,D7,1*%
%TO.N,Net-(D7-Pad1)*%
X159385000Y-83820000D03*
D11*
%TO.P,D7,2*%
%TO.N,/LED7*%
X161925000Y-83820000D03*
%TD*%
D12*
%TO.P,R1,2*%
%TO.N,GND*%
X134620000Y-98390000D03*
D13*
%TO.P,R1,1*%
%TO.N,Net-(D1-Pad1)*%
X134620000Y-90770000D03*
%TD*%
D12*
%TO.P,R2,2*%
%TO.N,GND*%
X139065000Y-98390000D03*
D13*
%TO.P,R2,1*%
%TO.N,Net-(D2-Pad1)*%
X139065000Y-90770000D03*
%TD*%
%TO.P,R3,1*%
%TO.N,Net-(D3-Pad1)*%
X143510000Y-90825000D03*
D12*
%TO.P,R3,2*%
%TO.N,GND*%
X143510000Y-98445000D03*
%TD*%
%TO.P,R4,2*%
%TO.N,GND*%
X147955000Y-98445000D03*
D13*
%TO.P,R4,1*%
%TO.N,Net-(D4-Pad1)*%
X147955000Y-90825000D03*
%TD*%
D12*
%TO.P,R5,2*%
%TO.N,GND*%
X152400000Y-98445000D03*
D13*
%TO.P,R5,1*%
%TO.N,Net-(D5-Pad1)*%
X152400000Y-90825000D03*
%TD*%
%TO.P,R6,1*%
%TO.N,Net-(D6-Pad1)*%
X156845000Y-90825000D03*
D12*
%TO.P,R6,2*%
%TO.N,GND*%
X156845000Y-98445000D03*
%TD*%
%TO.P,R7,2*%
%TO.N,GND*%
X161290000Y-98445000D03*
D13*
%TO.P,R7,1*%
%TO.N,Net-(D7-Pad1)*%
X161290000Y-90825000D03*
%TD*%
D14*
%TO.P,SW1,1*%
%TO.N,Net-(SW1-Pad1)*%
X162987580Y-138067980D03*
%TO.P,SW1,2*%
%TO.N,GND*%
X162987580Y-142567980D03*
%TO.P,SW1,1*%
%TO.N,Net-(SW1-Pad1)*%
X156487580Y-138067980D03*
%TO.P,SW1,2*%
%TO.N,GND*%
X156487580Y-142567980D03*
%TD*%
D15*
%TO.P,SW2,3*%
%TO.N,Net-(SW2-Pad3)*%
X158070000Y-121290000D03*
%TO.P,SW2,2*%
%TO.N,Net-(BT1-Pad1)*%
X158070000Y-123790000D03*
D16*
%TO.P,SW2,1*%
%TO.N,VCC*%
X158070000Y-126290000D03*
%TD*%
D17*
%TO.P,U1,8*%
%TO.N,VCC*%
X155780000Y-111760000D03*
%TO.P,U1,4*%
%TO.N,GND*%
X163400000Y-104140000D03*
%TO.P,U1,7*%
%TO.N,/PB2toData*%
X155780000Y-109220000D03*
%TO.P,U1,3*%
%TO.N,Net-(SW1-Pad1)*%
X163400000Y-106680000D03*
%TO.P,U1,6*%
%TO.N,/PB1toLatch*%
X155780000Y-106680000D03*
%TO.P,U1,2*%
%TO.N,Net-(U1-Pad2)*%
X163400000Y-109220000D03*
%TO.P,U1,5*%
%TO.N,/PB0toClock*%
X155780000Y-104140000D03*
D18*
%TO.P,U1,1*%
%TO.N,Net-(U1-Pad1)*%
X163400000Y-111760000D03*
%TD*%
D17*
%TO.P,U2,16*%
%TO.N,VCC*%
X149860000Y-111760000D03*
%TO.P,U2,8*%
%TO.N,GND*%
X132080000Y-104140000D03*
%TO.P,U2,15*%
%TO.N,/LED1*%
X147320000Y-111760000D03*
%TO.P,U2,7*%
%TO.N,Net-(U2-Pad7)*%
X134620000Y-104140000D03*
%TO.P,U2,14*%
%TO.N,/PB2toData*%
X144780000Y-111760000D03*
%TO.P,U2,6*%
%TO.N,/LED7*%
X137160000Y-104140000D03*
%TO.P,U2,13*%
%TO.N,GND*%
X142240000Y-111760000D03*
%TO.P,U2,5*%
%TO.N,/LED6*%
X139700000Y-104140000D03*
%TO.P,U2,12*%
%TO.N,/PB1toLatch*%
X139700000Y-111760000D03*
%TO.P,U2,4*%
%TO.N,/LED5*%
X142240000Y-104140000D03*
%TO.P,U2,11*%
%TO.N,/PB0toClock*%
X137160000Y-111760000D03*
%TO.P,U2,3*%
%TO.N,/LED4*%
X144780000Y-104140000D03*
%TO.P,U2,10*%
%TO.N,VCC*%
X134620000Y-111760000D03*
%TO.P,U2,2*%
%TO.N,/LED3*%
X147320000Y-104140000D03*
%TO.P,U2,9*%
%TO.N,Net-(U2-Pad9)*%
X132080000Y-111760000D03*
D18*
%TO.P,U2,1*%
%TO.N,/LED2*%
X149860000Y-104140000D03*
%TD*%
D19*
%TO.N,/LED1*%
X133200000Y-100970000D03*
%TD*%
D20*
%TO.N,/LED1*%
X133200000Y-100970000D02*
X131400000Y-99170000D01*
X131400000Y-62910000D02*
X135890000Y-58420000D01*
X131400000Y-99170000D02*
X131400000Y-62910000D01*
%TO.N,/LED2*%
X145434999Y-99714999D02*
X145434999Y-80660199D01*
X145434999Y-80660199D02*
X135894800Y-71120000D01*
X149860000Y-104140000D02*
X145434999Y-99714999D01*
%TO.N,/LED3*%
X138014999Y-85944999D02*
X135890000Y-83820000D01*
X138014999Y-94834999D02*
X138014999Y-85944999D01*
X147320000Y-104140000D02*
X138014999Y-94834999D01*
%TO.N,/LED4*%
X151044802Y-71120000D02*
X149225000Y-71120000D01*
X163144801Y-59020001D02*
X151044802Y-71120000D01*
X163144801Y-57819999D02*
X163144801Y-59020001D01*
X144874799Y-57169999D02*
X162494801Y-57169999D01*
X132099999Y-85000001D02*
X132099999Y-69944799D01*
X135932871Y-88832873D02*
X132099999Y-85000001D01*
X135932871Y-98539991D02*
X135932871Y-88832873D01*
X141089999Y-103697119D02*
X135932871Y-98539991D01*
X132099999Y-69944799D02*
X144874799Y-57169999D01*
X141089999Y-104692001D02*
X141089999Y-103697119D01*
X162494801Y-57169999D02*
X163144801Y-57819999D01*
X141687999Y-105290001D02*
X141089999Y-104692001D01*
X142792001Y-105290001D02*
X141687999Y-105290001D01*
X143942002Y-104140000D02*
X142792001Y-105290001D01*
X144780000Y-104140000D02*
X143942002Y-104140000D01*
%TO.N,/LED5*%
X160644799Y-59670001D02*
X161894800Y-58420000D01*
X145494797Y-59670001D02*
X160644799Y-59670001D01*
X134639999Y-70524799D02*
X145494797Y-59670001D01*
X134639999Y-84420001D02*
X134639999Y-70524799D01*
X136432881Y-86212883D02*
X134639999Y-84420001D01*
X136432881Y-98332881D02*
X136432881Y-86212883D01*
X142240000Y-104140000D02*
X136432881Y-98332881D01*
%TO.N,/LED6*%
X163175001Y-72400201D02*
X161894800Y-71120000D01*
X163175001Y-98114001D02*
X163175001Y-72400201D01*
X155227999Y-110370001D02*
X156332001Y-110370001D01*
X162249999Y-99039003D02*
X163175001Y-98114001D01*
X152187989Y-113410011D02*
X155227999Y-110370001D01*
X134568009Y-113410011D02*
X152187989Y-113410011D01*
X133469999Y-112312001D02*
X134568009Y-113410011D01*
X156332001Y-110370001D02*
X162249999Y-104452003D01*
X133469999Y-110370001D02*
X133469999Y-112312001D01*
X162249999Y-104452003D02*
X162249999Y-99039003D01*
X139700000Y-104140000D02*
X133469999Y-110370001D01*
%TO.N,VCC*%
X148709999Y-112910001D02*
X135770001Y-112910001D01*
X135770001Y-112910001D02*
X134620000Y-111760000D01*
X149860000Y-111760000D02*
X148709999Y-112910001D01*
%TO.N,/PB0toClock*%
X154629999Y-105290001D02*
X155780000Y-104140000D01*
X143629999Y-105290001D02*
X154629999Y-105290001D01*
X137160000Y-111760000D02*
X143629999Y-105290001D01*
%TO.N,/PB1toLatch*%
X144780000Y-106680000D02*
X155780000Y-106680000D01*
X139700000Y-111760000D02*
X144780000Y-106680000D01*
%TO.N,/PB2toData*%
X147320000Y-109220000D02*
X155780000Y-109220000D01*
X144780000Y-111760000D02*
X147320000Y-109220000D01*
%TD*%
M02*
