%TF.GenerationSoftware,KiCad,Pcbnew,5.1.9-73d0e3b20d~88~ubuntu18.04.1*%
%TF.CreationDate,2021-01-26T17:19:55+01:00*%
%TF.ProjectId,d1ce,64316365-2e6b-4696-9361-645f70636258,v1*%
%TF.SameCoordinates,Original*%
%TF.FileFunction,Legend,Top*%
%TF.FilePolarity,Positive*%
%FSLAX46Y46*%
G04 Gerber Fmt 4.6, Leading zero omitted, Abs format (unit mm)*
G04 Created by KiCad (PCBNEW 5.1.9-73d0e3b20d~88~ubuntu18.04.1) date 2021-01-26 17:19:55*
%MOMM*%
%LPD*%
G01*
G04 APERTURE LIST*
%ADD10C,0.200000*%
%ADD11C,0.120000*%
%ADD12C,0.127000*%
%ADD13C,0.150000*%
G04 APERTURE END LIST*
D10*
X157671428Y-146248571D02*
X157671428Y-145248571D01*
X157671428Y-145534285D02*
X157742857Y-145391428D01*
X157814285Y-145320000D01*
X157957142Y-145248571D01*
X158100000Y-145248571D01*
X158814285Y-146248571D02*
X158671428Y-146177142D01*
X158600000Y-146105714D01*
X158528571Y-145962857D01*
X158528571Y-145534285D01*
X158600000Y-145391428D01*
X158671428Y-145320000D01*
X158814285Y-145248571D01*
X159028571Y-145248571D01*
X159171428Y-145320000D01*
X159242857Y-145391428D01*
X159314285Y-145534285D01*
X159314285Y-145962857D01*
X159242857Y-146105714D01*
X159171428Y-146177142D01*
X159028571Y-146248571D01*
X158814285Y-146248571D01*
X160171428Y-146248571D02*
X160028571Y-146177142D01*
X159957142Y-146034285D01*
X159957142Y-144748571D01*
X160957142Y-146248571D02*
X160814285Y-146177142D01*
X160742857Y-146034285D01*
X160742857Y-144748571D01*
X161528571Y-146105714D02*
X161600000Y-146177142D01*
X161528571Y-146248571D01*
X161457142Y-146177142D01*
X161528571Y-146105714D01*
X161528571Y-146248571D01*
X161528571Y-145677142D02*
X161457142Y-144820000D01*
X161528571Y-144748571D01*
X161600000Y-144820000D01*
X161528571Y-145677142D01*
X161528571Y-144748571D01*
D11*
%TO.C,BT1*%
X139450000Y-115820000D02*
X139450000Y-120620000D01*
X144950000Y-115820000D02*
X139450000Y-115820000D01*
X144950000Y-120620000D02*
X144950000Y-115820000D01*
X144950000Y-146920000D02*
X144950000Y-142120000D01*
X139450000Y-146920000D02*
X144950000Y-146920000D01*
X139450000Y-142120000D02*
X139450000Y-146920000D01*
X132700000Y-120820000D02*
X132700000Y-127520000D01*
X132700000Y-141920000D02*
X132700000Y-135220000D01*
X153050000Y-127420000D02*
X148250000Y-120620000D01*
X153050000Y-135320000D02*
X153050000Y-127420000D01*
X148250000Y-142170000D02*
X153050000Y-135320000D01*
X132698536Y-135216385D02*
G75*
G02*
X132700000Y-127520000I9501464J3846385D01*
G01*
%TO.C,D1*%
X137120000Y-58420000D02*
G75*
G03*
X137120000Y-58420000I-2500000J0D01*
G01*
X132060000Y-56875000D02*
X132060000Y-59965000D01*
X137610000Y-58420462D02*
G75*
G03*
X132060000Y-56875170I-2990000J462D01*
G01*
X137610000Y-58419538D02*
G75*
G02*
X132060000Y-59964830I-2990000J-462D01*
G01*
%TO.C,D2*%
X132064800Y-69575000D02*
X132064800Y-72665000D01*
X137124800Y-71120000D02*
G75*
G03*
X137124800Y-71120000I-2500000J0D01*
G01*
X137614800Y-71119538D02*
G75*
G02*
X132064800Y-72664830I-2990000J-462D01*
G01*
X137614800Y-71120462D02*
G75*
G03*
X132064800Y-69575170I-2990000J462D01*
G01*
%TO.C,D3*%
X132060000Y-82275000D02*
X132060000Y-85365000D01*
X137120000Y-83820000D02*
G75*
G03*
X137120000Y-83820000I-2500000J0D01*
G01*
X137610000Y-83819538D02*
G75*
G02*
X132060000Y-85364830I-2990000J-462D01*
G01*
X137610000Y-83820462D02*
G75*
G03*
X132060000Y-82275170I-2990000J462D01*
G01*
%TO.C,D4*%
X150455000Y-71120000D02*
G75*
G03*
X150455000Y-71120000I-2500000J0D01*
G01*
X145395000Y-69575000D02*
X145395000Y-72665000D01*
X150945000Y-71120462D02*
G75*
G03*
X145395000Y-69575170I-2990000J462D01*
G01*
X150945000Y-71119538D02*
G75*
G02*
X145395000Y-72664830I-2990000J-462D01*
G01*
%TO.C,D5*%
X158064800Y-56875000D02*
X158064800Y-59965000D01*
X163124800Y-58420000D02*
G75*
G03*
X163124800Y-58420000I-2500000J0D01*
G01*
X163614800Y-58419538D02*
G75*
G02*
X158064800Y-59964830I-2990000J-462D01*
G01*
X163614800Y-58420462D02*
G75*
G03*
X158064800Y-56875170I-2990000J462D01*
G01*
%TO.C,D6*%
X158064800Y-69575000D02*
X158064800Y-72665000D01*
X163124800Y-71120000D02*
G75*
G03*
X163124800Y-71120000I-2500000J0D01*
G01*
X163614800Y-71119538D02*
G75*
G02*
X158064800Y-72664830I-2990000J-462D01*
G01*
X163614800Y-71120462D02*
G75*
G03*
X158064800Y-69575170I-2990000J462D01*
G01*
%TO.C,D7*%
X163155000Y-83820000D02*
G75*
G03*
X163155000Y-83820000I-2500000J0D01*
G01*
X158095000Y-82275000D02*
X158095000Y-85365000D01*
X163645000Y-83820462D02*
G75*
G03*
X158095000Y-82275170I-2990000J462D01*
G01*
X163645000Y-83819538D02*
G75*
G02*
X158095000Y-85364830I-2990000J-462D01*
G01*
%TO.C,R1*%
X134620000Y-97450000D02*
X134620000Y-96500000D01*
X134620000Y-91710000D02*
X134620000Y-92660000D01*
X135540000Y-96500000D02*
X135540000Y-92660000D01*
X133700000Y-96500000D02*
X135540000Y-96500000D01*
X133700000Y-92660000D02*
X133700000Y-96500000D01*
X135540000Y-92660000D02*
X133700000Y-92660000D01*
%TO.C,R2*%
X139065000Y-97450000D02*
X139065000Y-96500000D01*
X139065000Y-91710000D02*
X139065000Y-92660000D01*
X139985000Y-96500000D02*
X139985000Y-92660000D01*
X138145000Y-96500000D02*
X139985000Y-96500000D01*
X138145000Y-92660000D02*
X138145000Y-96500000D01*
X139985000Y-92660000D02*
X138145000Y-92660000D01*
%TO.C,R3*%
X144430000Y-92715000D02*
X142590000Y-92715000D01*
X142590000Y-92715000D02*
X142590000Y-96555000D01*
X142590000Y-96555000D02*
X144430000Y-96555000D01*
X144430000Y-96555000D02*
X144430000Y-92715000D01*
X143510000Y-91765000D02*
X143510000Y-92715000D01*
X143510000Y-97505000D02*
X143510000Y-96555000D01*
%TO.C,R4*%
X147955000Y-97505000D02*
X147955000Y-96555000D01*
X147955000Y-91765000D02*
X147955000Y-92715000D01*
X148875000Y-96555000D02*
X148875000Y-92715000D01*
X147035000Y-96555000D02*
X148875000Y-96555000D01*
X147035000Y-92715000D02*
X147035000Y-96555000D01*
X148875000Y-92715000D02*
X147035000Y-92715000D01*
%TO.C,R5*%
X152400000Y-97505000D02*
X152400000Y-96555000D01*
X152400000Y-91765000D02*
X152400000Y-92715000D01*
X153320000Y-96555000D02*
X153320000Y-92715000D01*
X151480000Y-96555000D02*
X153320000Y-96555000D01*
X151480000Y-92715000D02*
X151480000Y-96555000D01*
X153320000Y-92715000D02*
X151480000Y-92715000D01*
%TO.C,R6*%
X157765000Y-92715000D02*
X155925000Y-92715000D01*
X155925000Y-92715000D02*
X155925000Y-96555000D01*
X155925000Y-96555000D02*
X157765000Y-96555000D01*
X157765000Y-96555000D02*
X157765000Y-92715000D01*
X156845000Y-91765000D02*
X156845000Y-92715000D01*
X156845000Y-97505000D02*
X156845000Y-96555000D01*
%TO.C,R7*%
X161290000Y-97505000D02*
X161290000Y-96555000D01*
X161290000Y-91765000D02*
X161290000Y-92715000D01*
X162210000Y-96555000D02*
X162210000Y-92715000D01*
X160370000Y-96555000D02*
X162210000Y-96555000D01*
X160370000Y-92715000D02*
X160370000Y-96555000D01*
X162210000Y-92715000D02*
X160370000Y-92715000D01*
%TO.C,SW1*%
X163237580Y-141067980D02*
X163237580Y-139567980D01*
X161987580Y-137067980D02*
X157487580Y-137067980D01*
X156237580Y-139567980D02*
X156237580Y-141067980D01*
X157487580Y-143567980D02*
X161987580Y-143567980D01*
D10*
%TO.C,SW2*%
X158170000Y-127790000D02*
G75*
G03*
X158170000Y-127790000I-100000J0D01*
G01*
D12*
X160170000Y-117290000D02*
X160170000Y-130290000D01*
X165370000Y-117290000D02*
X160170000Y-117290000D01*
X165370000Y-130290000D02*
X165370000Y-117290000D01*
X160170000Y-130290000D02*
X165370000Y-130290000D01*
D11*
%TO.C,U1*%
X154450000Y-113150000D02*
X164730000Y-113150000D01*
X154450000Y-102750000D02*
X154450000Y-113150000D01*
X164730000Y-102750000D02*
X154450000Y-102750000D01*
X164730000Y-113150000D02*
X164730000Y-102750000D01*
X156940000Y-113090000D02*
X158590000Y-113090000D01*
X156940000Y-102810000D02*
X156940000Y-113090000D01*
X162240000Y-102810000D02*
X156940000Y-102810000D01*
X162240000Y-113090000D02*
X162240000Y-102810000D01*
X160590000Y-113090000D02*
X162240000Y-113090000D01*
X158590000Y-113090000D02*
G75*
G02*
X160590000Y-113090000I1000000J0D01*
G01*
%TO.C,U2*%
X151250000Y-113090000D02*
X151250000Y-102810000D01*
X130690000Y-113090000D02*
X151250000Y-113090000D01*
X130690000Y-102810000D02*
X130690000Y-113090000D01*
X151250000Y-102810000D02*
X130690000Y-102810000D01*
X151190000Y-110600000D02*
X151190000Y-108950000D01*
X130750000Y-110600000D02*
X151190000Y-110600000D01*
X130750000Y-105300000D02*
X130750000Y-110600000D01*
X151190000Y-105300000D02*
X130750000Y-105300000D01*
X151190000Y-106950000D02*
X151190000Y-105300000D01*
X151190000Y-108950000D02*
G75*
G02*
X151190000Y-106950000I0J1000000D01*
G01*
%TO.C,BT1*%
D13*
X146414285Y-143498571D02*
X146557142Y-143546190D01*
X146604761Y-143593809D01*
X146652380Y-143689047D01*
X146652380Y-143831904D01*
X146604761Y-143927142D01*
X146557142Y-143974761D01*
X146461904Y-144022380D01*
X146080952Y-144022380D01*
X146080952Y-143022380D01*
X146414285Y-143022380D01*
X146509523Y-143070000D01*
X146557142Y-143117619D01*
X146604761Y-143212857D01*
X146604761Y-143308095D01*
X146557142Y-143403333D01*
X146509523Y-143450952D01*
X146414285Y-143498571D01*
X146080952Y-143498571D01*
X146938095Y-143022380D02*
X147509523Y-143022380D01*
X147223809Y-144022380D02*
X147223809Y-143022380D01*
X148366666Y-144022380D02*
X147795238Y-144022380D01*
X148080952Y-144022380D02*
X148080952Y-143022380D01*
X147985714Y-143165238D01*
X147890476Y-143260476D01*
X147795238Y-143308095D01*
%TO.C,D1*%
X133881904Y-54912380D02*
X133881904Y-53912380D01*
X134120000Y-53912380D01*
X134262857Y-53960000D01*
X134358095Y-54055238D01*
X134405714Y-54150476D01*
X134453333Y-54340952D01*
X134453333Y-54483809D01*
X134405714Y-54674285D01*
X134358095Y-54769523D01*
X134262857Y-54864761D01*
X134120000Y-54912380D01*
X133881904Y-54912380D01*
X135405714Y-54912380D02*
X134834285Y-54912380D01*
X135120000Y-54912380D02*
X135120000Y-53912380D01*
X135024761Y-54055238D01*
X134929523Y-54150476D01*
X134834285Y-54198095D01*
%TO.C,D2*%
X133886704Y-67612380D02*
X133886704Y-66612380D01*
X134124800Y-66612380D01*
X134267657Y-66660000D01*
X134362895Y-66755238D01*
X134410514Y-66850476D01*
X134458133Y-67040952D01*
X134458133Y-67183809D01*
X134410514Y-67374285D01*
X134362895Y-67469523D01*
X134267657Y-67564761D01*
X134124800Y-67612380D01*
X133886704Y-67612380D01*
X134839085Y-66707619D02*
X134886704Y-66660000D01*
X134981942Y-66612380D01*
X135220038Y-66612380D01*
X135315276Y-66660000D01*
X135362895Y-66707619D01*
X135410514Y-66802857D01*
X135410514Y-66898095D01*
X135362895Y-67040952D01*
X134791466Y-67612380D01*
X135410514Y-67612380D01*
%TO.C,D3*%
X133881904Y-80312380D02*
X133881904Y-79312380D01*
X134120000Y-79312380D01*
X134262857Y-79360000D01*
X134358095Y-79455238D01*
X134405714Y-79550476D01*
X134453333Y-79740952D01*
X134453333Y-79883809D01*
X134405714Y-80074285D01*
X134358095Y-80169523D01*
X134262857Y-80264761D01*
X134120000Y-80312380D01*
X133881904Y-80312380D01*
X134786666Y-79312380D02*
X135405714Y-79312380D01*
X135072380Y-79693333D01*
X135215238Y-79693333D01*
X135310476Y-79740952D01*
X135358095Y-79788571D01*
X135405714Y-79883809D01*
X135405714Y-80121904D01*
X135358095Y-80217142D01*
X135310476Y-80264761D01*
X135215238Y-80312380D01*
X134929523Y-80312380D01*
X134834285Y-80264761D01*
X134786666Y-80217142D01*
%TO.C,D4*%
X147216904Y-67612380D02*
X147216904Y-66612380D01*
X147455000Y-66612380D01*
X147597857Y-66660000D01*
X147693095Y-66755238D01*
X147740714Y-66850476D01*
X147788333Y-67040952D01*
X147788333Y-67183809D01*
X147740714Y-67374285D01*
X147693095Y-67469523D01*
X147597857Y-67564761D01*
X147455000Y-67612380D01*
X147216904Y-67612380D01*
X148645476Y-66945714D02*
X148645476Y-67612380D01*
X148407380Y-66564761D02*
X148169285Y-67279047D01*
X148788333Y-67279047D01*
%TO.C,D5*%
X159886704Y-54912380D02*
X159886704Y-53912380D01*
X160124800Y-53912380D01*
X160267657Y-53960000D01*
X160362895Y-54055238D01*
X160410514Y-54150476D01*
X160458133Y-54340952D01*
X160458133Y-54483809D01*
X160410514Y-54674285D01*
X160362895Y-54769523D01*
X160267657Y-54864761D01*
X160124800Y-54912380D01*
X159886704Y-54912380D01*
X161362895Y-53912380D02*
X160886704Y-53912380D01*
X160839085Y-54388571D01*
X160886704Y-54340952D01*
X160981942Y-54293333D01*
X161220038Y-54293333D01*
X161315276Y-54340952D01*
X161362895Y-54388571D01*
X161410514Y-54483809D01*
X161410514Y-54721904D01*
X161362895Y-54817142D01*
X161315276Y-54864761D01*
X161220038Y-54912380D01*
X160981942Y-54912380D01*
X160886704Y-54864761D01*
X160839085Y-54817142D01*
%TO.C,D6*%
X159886704Y-67612380D02*
X159886704Y-66612380D01*
X160124800Y-66612380D01*
X160267657Y-66660000D01*
X160362895Y-66755238D01*
X160410514Y-66850476D01*
X160458133Y-67040952D01*
X160458133Y-67183809D01*
X160410514Y-67374285D01*
X160362895Y-67469523D01*
X160267657Y-67564761D01*
X160124800Y-67612380D01*
X159886704Y-67612380D01*
X161315276Y-66612380D02*
X161124800Y-66612380D01*
X161029561Y-66660000D01*
X160981942Y-66707619D01*
X160886704Y-66850476D01*
X160839085Y-67040952D01*
X160839085Y-67421904D01*
X160886704Y-67517142D01*
X160934323Y-67564761D01*
X161029561Y-67612380D01*
X161220038Y-67612380D01*
X161315276Y-67564761D01*
X161362895Y-67517142D01*
X161410514Y-67421904D01*
X161410514Y-67183809D01*
X161362895Y-67088571D01*
X161315276Y-67040952D01*
X161220038Y-66993333D01*
X161029561Y-66993333D01*
X160934323Y-67040952D01*
X160886704Y-67088571D01*
X160839085Y-67183809D01*
%TO.C,D7*%
X159916904Y-80312380D02*
X159916904Y-79312380D01*
X160155000Y-79312380D01*
X160297857Y-79360000D01*
X160393095Y-79455238D01*
X160440714Y-79550476D01*
X160488333Y-79740952D01*
X160488333Y-79883809D01*
X160440714Y-80074285D01*
X160393095Y-80169523D01*
X160297857Y-80264761D01*
X160155000Y-80312380D01*
X159916904Y-80312380D01*
X160821666Y-79312380D02*
X161488333Y-79312380D01*
X161059761Y-80312380D01*
%TO.C,R1*%
X134633333Y-100822380D02*
X134300000Y-100346190D01*
X134061904Y-100822380D02*
X134061904Y-99822380D01*
X134442857Y-99822380D01*
X134538095Y-99870000D01*
X134585714Y-99917619D01*
X134633333Y-100012857D01*
X134633333Y-100155714D01*
X134585714Y-100250952D01*
X134538095Y-100298571D01*
X134442857Y-100346190D01*
X134061904Y-100346190D01*
X135585714Y-100822380D02*
X135014285Y-100822380D01*
X135300000Y-100822380D02*
X135300000Y-99822380D01*
X135204761Y-99965238D01*
X135109523Y-100060476D01*
X135014285Y-100108095D01*
%TO.C,R2*%
X138898333Y-100822380D02*
X138565000Y-100346190D01*
X138326904Y-100822380D02*
X138326904Y-99822380D01*
X138707857Y-99822380D01*
X138803095Y-99870000D01*
X138850714Y-99917619D01*
X138898333Y-100012857D01*
X138898333Y-100155714D01*
X138850714Y-100250952D01*
X138803095Y-100298571D01*
X138707857Y-100346190D01*
X138326904Y-100346190D01*
X139279285Y-99917619D02*
X139326904Y-99870000D01*
X139422142Y-99822380D01*
X139660238Y-99822380D01*
X139755476Y-99870000D01*
X139803095Y-99917619D01*
X139850714Y-100012857D01*
X139850714Y-100108095D01*
X139803095Y-100250952D01*
X139231666Y-100822380D01*
X139850714Y-100822380D01*
%TO.C,R3*%
X143433333Y-100822380D02*
X143100000Y-100346190D01*
X142861904Y-100822380D02*
X142861904Y-99822380D01*
X143242857Y-99822380D01*
X143338095Y-99870000D01*
X143385714Y-99917619D01*
X143433333Y-100012857D01*
X143433333Y-100155714D01*
X143385714Y-100250952D01*
X143338095Y-100298571D01*
X143242857Y-100346190D01*
X142861904Y-100346190D01*
X143766666Y-99822380D02*
X144385714Y-99822380D01*
X144052380Y-100203333D01*
X144195238Y-100203333D01*
X144290476Y-100250952D01*
X144338095Y-100298571D01*
X144385714Y-100393809D01*
X144385714Y-100631904D01*
X144338095Y-100727142D01*
X144290476Y-100774761D01*
X144195238Y-100822380D01*
X143909523Y-100822380D01*
X143814285Y-100774761D01*
X143766666Y-100727142D01*
%TO.C,R4*%
X147788333Y-100822380D02*
X147455000Y-100346190D01*
X147216904Y-100822380D02*
X147216904Y-99822380D01*
X147597857Y-99822380D01*
X147693095Y-99870000D01*
X147740714Y-99917619D01*
X147788333Y-100012857D01*
X147788333Y-100155714D01*
X147740714Y-100250952D01*
X147693095Y-100298571D01*
X147597857Y-100346190D01*
X147216904Y-100346190D01*
X148645476Y-100155714D02*
X148645476Y-100822380D01*
X148407380Y-99774761D02*
X148169285Y-100489047D01*
X148788333Y-100489047D01*
%TO.C,R5*%
X152233333Y-100822380D02*
X151900000Y-100346190D01*
X151661904Y-100822380D02*
X151661904Y-99822380D01*
X152042857Y-99822380D01*
X152138095Y-99870000D01*
X152185714Y-99917619D01*
X152233333Y-100012857D01*
X152233333Y-100155714D01*
X152185714Y-100250952D01*
X152138095Y-100298571D01*
X152042857Y-100346190D01*
X151661904Y-100346190D01*
X153138095Y-99822380D02*
X152661904Y-99822380D01*
X152614285Y-100298571D01*
X152661904Y-100250952D01*
X152757142Y-100203333D01*
X152995238Y-100203333D01*
X153090476Y-100250952D01*
X153138095Y-100298571D01*
X153185714Y-100393809D01*
X153185714Y-100631904D01*
X153138095Y-100727142D01*
X153090476Y-100774761D01*
X152995238Y-100822380D01*
X152757142Y-100822380D01*
X152661904Y-100774761D01*
X152614285Y-100727142D01*
%TO.C,R6*%
X156633333Y-100822380D02*
X156300000Y-100346190D01*
X156061904Y-100822380D02*
X156061904Y-99822380D01*
X156442857Y-99822380D01*
X156538095Y-99870000D01*
X156585714Y-99917619D01*
X156633333Y-100012857D01*
X156633333Y-100155714D01*
X156585714Y-100250952D01*
X156538095Y-100298571D01*
X156442857Y-100346190D01*
X156061904Y-100346190D01*
X157490476Y-99822380D02*
X157300000Y-99822380D01*
X157204761Y-99870000D01*
X157157142Y-99917619D01*
X157061904Y-100060476D01*
X157014285Y-100250952D01*
X157014285Y-100631904D01*
X157061904Y-100727142D01*
X157109523Y-100774761D01*
X157204761Y-100822380D01*
X157395238Y-100822380D01*
X157490476Y-100774761D01*
X157538095Y-100727142D01*
X157585714Y-100631904D01*
X157585714Y-100393809D01*
X157538095Y-100298571D01*
X157490476Y-100250952D01*
X157395238Y-100203333D01*
X157204761Y-100203333D01*
X157109523Y-100250952D01*
X157061904Y-100298571D01*
X157014285Y-100393809D01*
%TO.C,R7*%
X161123333Y-100822380D02*
X160790000Y-100346190D01*
X160551904Y-100822380D02*
X160551904Y-99822380D01*
X160932857Y-99822380D01*
X161028095Y-99870000D01*
X161075714Y-99917619D01*
X161123333Y-100012857D01*
X161123333Y-100155714D01*
X161075714Y-100250952D01*
X161028095Y-100298571D01*
X160932857Y-100346190D01*
X160551904Y-100346190D01*
X161456666Y-99822380D02*
X162123333Y-99822380D01*
X161694761Y-100822380D01*
%TO.C,SW1*%
X158404246Y-136174761D02*
X158547103Y-136222380D01*
X158785199Y-136222380D01*
X158880437Y-136174761D01*
X158928056Y-136127142D01*
X158975675Y-136031904D01*
X158975675Y-135936666D01*
X158928056Y-135841428D01*
X158880437Y-135793809D01*
X158785199Y-135746190D01*
X158594722Y-135698571D01*
X158499484Y-135650952D01*
X158451865Y-135603333D01*
X158404246Y-135508095D01*
X158404246Y-135412857D01*
X158451865Y-135317619D01*
X158499484Y-135270000D01*
X158594722Y-135222380D01*
X158832818Y-135222380D01*
X158975675Y-135270000D01*
X159309008Y-135222380D02*
X159547103Y-136222380D01*
X159737580Y-135508095D01*
X159928056Y-136222380D01*
X160166151Y-135222380D01*
X161070913Y-136222380D02*
X160499484Y-136222380D01*
X160785199Y-136222380D02*
X160785199Y-135222380D01*
X160689960Y-135365238D01*
X160594722Y-135460476D01*
X160499484Y-135508095D01*
%TO.C,SW2*%
X156465322Y-129175169D02*
X156608323Y-129222836D01*
X156846659Y-129222836D01*
X156941993Y-129175169D01*
X156989660Y-129127502D01*
X157037327Y-129032168D01*
X157037327Y-128936834D01*
X156989660Y-128841500D01*
X156941993Y-128793833D01*
X156846659Y-128746166D01*
X156655990Y-128698499D01*
X156560656Y-128650832D01*
X156512989Y-128603165D01*
X156465322Y-128507831D01*
X156465322Y-128412497D01*
X156512989Y-128317163D01*
X156560656Y-128269496D01*
X156655990Y-128221828D01*
X156894326Y-128221828D01*
X157037327Y-128269496D01*
X157370996Y-128221828D02*
X157609331Y-129222836D01*
X157800000Y-128507831D01*
X157990668Y-129222836D01*
X158229003Y-128221828D01*
X158562672Y-128317163D02*
X158610339Y-128269496D01*
X158705673Y-128221828D01*
X158944009Y-128221828D01*
X159039343Y-128269496D01*
X159087010Y-128317163D01*
X159134677Y-128412497D01*
X159134677Y-128507831D01*
X159087010Y-128650832D01*
X158515005Y-129222836D01*
X159134677Y-129222836D01*
%TO.C,U1*%
X165292380Y-108731904D02*
X166101904Y-108731904D01*
X166197142Y-108684285D01*
X166244761Y-108636666D01*
X166292380Y-108541428D01*
X166292380Y-108350952D01*
X166244761Y-108255714D01*
X166197142Y-108208095D01*
X166101904Y-108160476D01*
X165292380Y-108160476D01*
X166292380Y-107160476D02*
X166292380Y-107731904D01*
X166292380Y-107446190D02*
X165292380Y-107446190D01*
X165435238Y-107541428D01*
X165530476Y-107636666D01*
X165578095Y-107731904D01*
%TO.C,U2*%
X151642380Y-108711904D02*
X152451904Y-108711904D01*
X152547142Y-108664285D01*
X152594761Y-108616666D01*
X152642380Y-108521428D01*
X152642380Y-108330952D01*
X152594761Y-108235714D01*
X152547142Y-108188095D01*
X152451904Y-108140476D01*
X151642380Y-108140476D01*
X151737619Y-107711904D02*
X151690000Y-107664285D01*
X151642380Y-107569047D01*
X151642380Y-107330952D01*
X151690000Y-107235714D01*
X151737619Y-107188095D01*
X151832857Y-107140476D01*
X151928095Y-107140476D01*
X152070952Y-107188095D01*
X152642380Y-107759523D01*
X152642380Y-107140476D01*
%TD*%
M02*
