%TF.GenerationSoftware,KiCad,Pcbnew,5.1.9-73d0e3b20d~88~ubuntu18.04.1*%
%TF.CreationDate,2021-01-26T17:19:55+01:00*%
%TF.ProjectId,d1ce,64316365-2e6b-4696-9361-645f70636258,v1*%
%TF.SameCoordinates,Original*%
%TF.FileFunction,Soldermask,Top*%
%TF.FilePolarity,Negative*%
%FSLAX46Y46*%
G04 Gerber Fmt 4.6, Leading zero omitted, Abs format (unit mm)*
G04 Created by KiCad (PCBNEW 5.1.9-73d0e3b20d~88~ubuntu18.04.1) date 2021-01-26 17:19:55*
%MOMM*%
%LPD*%
G01*
G04 APERTURE LIST*
%ADD10R,5.100000X5.100000*%
%ADD11C,17.800000*%
%ADD12R,1.800000X1.800000*%
%ADD13C,1.800000*%
%ADD14O,1.400000X1.400000*%
%ADD15C,1.400000*%
%ADD16C,2.000000*%
%ADD17C,1.408000*%
%ADD18R,1.408000X1.408000*%
%ADD19O,1.600000X1.600000*%
%ADD20R,1.600000X1.600000*%
G04 APERTURE END LIST*
D10*
%TO.C,BT1*%
X142200000Y-118570000D03*
X142200000Y-144170000D03*
D11*
X142200000Y-131370000D03*
%TD*%
D12*
%TO.C,D1*%
X133350000Y-58420000D03*
D13*
X135890000Y-58420000D03*
%TD*%
%TO.C,D2*%
X135894800Y-71120000D03*
D12*
X133354800Y-71120000D03*
%TD*%
D13*
%TO.C,D3*%
X135890000Y-83820000D03*
D12*
X133350000Y-83820000D03*
%TD*%
%TO.C,D4*%
X146685000Y-71120000D03*
D13*
X149225000Y-71120000D03*
%TD*%
%TO.C,D5*%
X161894800Y-58420000D03*
D12*
X159354800Y-58420000D03*
%TD*%
D13*
%TO.C,D6*%
X161894800Y-71120000D03*
D12*
X159354800Y-71120000D03*
%TD*%
%TO.C,D7*%
X159385000Y-83820000D03*
D13*
X161925000Y-83820000D03*
%TD*%
D14*
%TO.C,R1*%
X134620000Y-98390000D03*
D15*
X134620000Y-90770000D03*
%TD*%
D14*
%TO.C,R2*%
X139065000Y-98390000D03*
D15*
X139065000Y-90770000D03*
%TD*%
%TO.C,R3*%
X143510000Y-90825000D03*
D14*
X143510000Y-98445000D03*
%TD*%
%TO.C,R4*%
X147955000Y-98445000D03*
D15*
X147955000Y-90825000D03*
%TD*%
D14*
%TO.C,R5*%
X152400000Y-98445000D03*
D15*
X152400000Y-90825000D03*
%TD*%
%TO.C,R6*%
X156845000Y-90825000D03*
D14*
X156845000Y-98445000D03*
%TD*%
%TO.C,R7*%
X161290000Y-98445000D03*
D15*
X161290000Y-90825000D03*
%TD*%
D16*
%TO.C,SW1*%
X162987580Y-138067980D03*
X162987580Y-142567980D03*
X156487580Y-138067980D03*
X156487580Y-142567980D03*
%TD*%
D17*
%TO.C,SW2*%
X158070000Y-121290000D03*
X158070000Y-123790000D03*
D18*
X158070000Y-126290000D03*
%TD*%
D19*
%TO.C,U1*%
X155780000Y-111760000D03*
X163400000Y-104140000D03*
X155780000Y-109220000D03*
X163400000Y-106680000D03*
X155780000Y-106680000D03*
X163400000Y-109220000D03*
X155780000Y-104140000D03*
D20*
X163400000Y-111760000D03*
%TD*%
D19*
%TO.C,U2*%
X149860000Y-111760000D03*
X132080000Y-104140000D03*
X147320000Y-111760000D03*
X134620000Y-104140000D03*
X144780000Y-111760000D03*
X137160000Y-104140000D03*
X142240000Y-111760000D03*
X139700000Y-104140000D03*
X139700000Y-111760000D03*
X142240000Y-104140000D03*
X137160000Y-111760000D03*
X144780000Y-104140000D03*
X134620000Y-111760000D03*
X147320000Y-104140000D03*
X132080000Y-111760000D03*
D20*
X149860000Y-104140000D03*
%TD*%
M02*
