M48
; DRILL file {KiCad 5.1.9-73d0e3b20d~88~ubuntu18.04.1} date Tue Jan 26 17:19:34 2021
; FORMAT={-:-/ absolute / inch / decimal}
; #@! TF.CreationDate,2021-01-26T17:19:34+01:00
; #@! TF.GenerationSoftware,Kicad,Pcbnew,5.1.9-73d0e3b20d~88~ubuntu18.04.1
; #@! TF.FileFunction,Plated,1,2,PTH
FMAT,2
INCH
T1C0.0157
T2C0.0276
T3C0.0315
T4C0.0354
T5C0.0433
%
G90
G05
T1
X5.2441Y-3.9752
T2
X5.3Y-3.5736
X5.3Y-3.8736
X5.475Y-3.5736
X5.475Y-3.8736
X5.65Y-3.5758
X5.65Y-3.8758
X5.825Y-3.5758
X5.825Y-3.8758
X6.0Y-3.5758
X6.0Y-3.8758
X6.175Y-3.5758
X6.175Y-3.8758
X6.35Y-3.5758
X6.35Y-3.8758
T3
X5.2Y-4.1
X5.2Y-4.4
X5.3Y-4.1
X5.3Y-4.4
X5.4Y-4.1
X5.4Y-4.4
X5.5Y-4.1
X5.5Y-4.4
X5.6Y-4.1
X5.6Y-4.4
X5.7Y-4.1
X5.7Y-4.4
X5.8Y-4.1
X5.8Y-4.4
X5.9Y-4.1
X5.9Y-4.4
X6.1331Y-4.1
X6.1331Y-4.2
X6.1331Y-4.3
X6.1331Y-4.4
X6.4331Y-4.1
X6.4331Y-4.2
X6.4331Y-4.3
X6.4331Y-4.4
T4
X5.25Y-2.3
X5.25Y-3.3
X5.2502Y-2.8
X5.35Y-2.3
X5.35Y-3.3
X5.3502Y-2.8
X5.775Y-2.8
X5.875Y-2.8
X6.2232Y-4.7752
X6.2232Y-4.8736
X6.2232Y-4.972
X6.2738Y-2.3
X6.2738Y-2.8
X6.275Y-3.3
X6.3738Y-2.3
X6.3738Y-2.8
X6.375Y-3.3
T5
X6.1609Y-5.4357
X6.1609Y-5.6129
X6.4168Y-5.4357
X6.4168Y-5.6129
T0
M30
